<mxfile host="65bd71144e">
    <diagram id="ZhlICh3Pnu239k_P5t_8" name="Page-1">
        <mxGraphModel dx="2907" dy="1078" grid="1" gridSize="10" guides="1" tooltips="1" connect="1" arrows="1" fold="1" page="1" pageScale="1" pageWidth="1654" pageHeight="1169" math="0" shadow="0">
            <root>
                <mxCell id="0"/>
                <mxCell id="1" parent="0"/>
                <mxCell id="3" value="" style="shape=image;verticalLabelPosition=bottom;labelBackgroundColor=default;verticalAlign=top;aspect=fixed;imageAspect=0;image=data:image/png,iVBORw0KGgoAAAANSUhEUgAAA5QAAAQ+CAYAAACgFnBOAAAABGdBTUEAALGPC/xhBQAAACBjSFJNAAB6JgAAgIQAAPoAAACA6AAAdTAAAOpgAAA6mAAAF3CculE8AAAAomVYSWZNTQAqAAAACAAFARIAAwAAAAEAAQAAARoABQAAAAEAAABKARsABQAAAAEAAABSASgAAwAAAAEAAgAAh2kABAAAAAEAAABaAAAAAAAAAJAAAAABAAAAkAAAAAEABJKGAAcAAAASAAAAkKABAAMAAAABAAEAAKACAAQAAAABAAADlKADAAQAAAABAAAEPgAAAABBU0NJSQAAAFNjcmVlbnNob3RjADueAAAACXBIWXMAABYlAAAWJQFJUiTwAAADBmlUWHRYTUw6Y29tLmFkb2JlLnhtcAAAAAAAPHg6eG1wbWV0YSB4bWxuczp4PSJhZG9iZTpuczptZXRhLyIgeDp4bXB0az0iWE1QIENvcmUgNi4wLjAiPgogICA8cmRmOlJERiB4bWxuczpyZGY9Imh0dHA6Ly93d3cudzMub3JnLzE5OTkvMDIvMjItcmRmLXN5bnRheC1ucyMiPgogICAgICA8cmRmOkRlc2NyaXB0aW9uIHJkZjphYm91dD0iIgogICAgICAgICAgICB4bWxuczpleGlmPSJodHRwOi8vbnMuYWRvYmUuY29tL2V4aWYvMS4wLyIKICAgICAgICAgICAgeG1sbnM6dGlmZj0iaHR0cDovL25zLmFkb2JlLmNvbS90aWZmLzEuMC8iPgogICAgICAgICA8ZXhpZjpQaXhlbFhEaW1lbnNpb24+OTE2PC9leGlmOlBpeGVsWERpbWVuc2lvbj4KICAgICAgICAgPGV4aWY6Q29sb3JTcGFjZT4xPC9leGlmOkNvbG9yU3BhY2U+CiAgICAgICAgIDxleGlmOlVzZXJDb21tZW50PlNjcmVlbnNob3Q8L2V4aWY6VXNlckNvbW1lbnQ+CiAgICAgICAgIDxleGlmOlBpeGVsWURpbWVuc2lvbj4xMDg2PC9leGlmOlBpeGVsWURpbWVuc2lvbj4KICAgICAgICAgPHRpZmY6UmVzb2x1dGlvblVuaXQ+MjwvdGlmZjpSZXNvbHV0aW9uVW5pdD4KICAgICAgICAgPHRpZmY6WVJlc29sdXRpb24+MTQ0PC90aWZmOllSZXNvbHV0aW9uPgogICAgICAgICA8dGlmZjpYUmVzb2x1dGlvbj4xNDQ8L3RpZmY6WFJlc29sdXRpb24+CiAgICAgICAgIDx0aWZmOk9yaWVudGF0aW9uPjE8L3RpZmY6T3JpZW50YXRpb24+CiAgICAgIDwvcmRmOkRlc2NyaXB0aW9uPgogICA8L3JkZjpSREY+CjwveDp4bXBtZXRhPgqW+buGAABAAElEQVR4AezdB5wTxdvA8efg6L0IqDQFRHoHRaogKiiiAlbAhv1FUIpKUbErKCp2sIAookgTCxYQVARp0nuXIqIUaUfJu8/o5r/JJXe5uySXZH/z+dxlszs7O/PdXC5PZnY2yWMlISGAAAIIIIAAAhEUSLJSBIunaAQQQACBbBLIkU3H5bAIIIAAAggggAACCCCAAAJxLkBAGecnkOojgAACCCCAAAIIIIAAAtklQECZXfIcFwEEEEAAAQQQQAABBBCIc4HkOK8/1UcAAQQQQACBGBXguskYPTFUCwEEEAijAD2UYcSkKAQQQAABBBBAAAEEEEDATQIElG4627QVAQQQQAABBBBAAAEEEAijAAFlGDEpCgEEEEAAAQQQQAABBBBwkwABpZvONm1FAAEEEEAAAQQQQAABBMIoQEAZRkyKQgABBBBAAAEEEEAAAQTcJEBA6aazTVsRQAABBBBAAAEEEEAAgTAKEFCGEZOiEEAAAQQQQAABBBBAAAE3CRBQuuls01YEEEAAAQQQQAABBBBAIIwCBJRhxKQoBBBAAAEEEEAAAQQQQMBNAgSUbjrbtBUBBBBAAAEEEEAAAQQQCKMAAWUYMSkKAQQQQAABBBBAAAEEEHCTAAGlm842bUUAAQQQQAABBBBAAAEEwihAQBlGTIpCAAEEEEAAAQQQQAABBNwkQEDpprNNWxFAAAEEEEAAAQQQQACBMAoQUIYRk6IQQAABBBBAAAEEEEAAATcJEFC66WzTVgQQQAABBBBAAAEEEEAgjAIElGHEpCgEEEAAAQQQQAABBBBAwE0CBJRuOtu0FQEEEEAAAQQQQAABBBAIowABZRgxKQoBBBBAAAEEEEAAAQQQcJMAAaWbzjZtRQABBBBAAAEEEEAAAQTCKJAcxrIoCgEEEHC9wIgRI2TlypWudwgnQHJysgwZMkTKlCkTzmIpCwEEEEAAAQTCIJDksVIYyqEIBBBAAAFL4OKLL5YZM2ZIsWLF8AiDwIkTJ+TgwYNSoUIF+eWXXwgqw2AazSKSrBTN43EsBBBAAIHoCxBQRt+cIyKAQAILaEC5Z88eWbRoUQK3MnpNmzlzplx44YWSO3duqVSpknz//fcEldHjz/KRCCizTEgBCCCAQMwLcA1lzJ8iKogAAggg8NBDD8nmzZtNcLlr1y5AEEAAAQQQQCBGBAgoY+REUA0EEEAAgeACderUkfHjxxNUBidiCwIIIIAAAtkiQECZLewcFAEEEEAgowKtW7cmqMwoGvkRQAABBBCIsAABZYSBKR4BBBBAIHwCBJXhs6QkBBBAAAEEwiFAQBkORcpAAAEEEIiaAEFl1Kg5EAIIIIAAAukKEFCmS0QGBBBAAIFYEyCojLUzQn0QQAABBNwqQEDp1jNPuxFAAIE4FyCojPMTSPURQAABBBJCgIAyIU4jjUAAAQTcKUBQ6c7zTqsRQAABBGJHgIAyds4FNUEAAQQQyIQAQWUm0NgFAQQQQACBMAkQUIYJkmIQQAABBLJPgKAy++w5MgIIIICAuwUIKN19/mk9AgggkDACBJUJcyppCAIIIIBAHAkQUMbRyaKqCCCAAAJpCxBUpu3DVgQQQAABBMItQEAZblHKQwABBBDIVgGCymzl5+AIIIAAAi4TIKB02QmnuQgggIAbBAgq3XCWaSMCCCCAQCwIEFDGwlmgDggggAACYRcgqAw7KQUigAACCCCQSoCAMhUJKxBAAAEEEkWAoDJRziTtQAABBBCIVQECylg9M9QLAQQQQCAsAgSVYWGkEAQQQAABBAIKEFAGZGElAggggEAiCRBUJtLZpC0IIIAAArEkQEAZS2eDuiCAAAIIREyAoDJitBSMAAIIIOBiAQJKF598mo4AAoklsHXrVnnppZdk8uTJidWwMLZGg8qPPvpINm/eLBdeeKHs2rUrjKVTFAIIIIAAAu4TIKB03zmnxQggkKACS5culd69e8vrr78eEy387LPPpF+/frJhw4aYqI9dCQ0kCSptDR4RQAABBBDImgABZdb82BsBBBBAIIjAjBkzZNiwYaI9p1lNx44dk3D+XHDBBTJmzBjTU6m9ljt37sxqFdkfAQQQQAABVwoku7LVNBoBBBBwscCRI0ckX758aQqcPHlSUlJS0s2XZiFpbDx16pT89ddfUqJECUlKSkoj57+brrvuunTzZDbD6tWr5corr5Rffvkls0WwHwIIIIAAAq4VIKB07amn4Qgg4AaBcePGyWOPPSbPPfecfPPNNzJp0iTTG1e5cmXp37+/9OzZ0zCMGDHC9Ng9+uij8uGHH5q8+/fvl9q1a8vIkSOladOmXq66deuaQHPu3LnedbrQsWNHM7x12bJl0qJFC1m+fLnZ3r17d2nWrJkZZrp9+3YzLPfzzz83PY6FChWSli1byltvvSWnn366T3n6pGLFijJkyJBU68O5Qoe//vnnn+EskrIQQAABBBBwjQABpWtONQ1FAAE3Cuzbt0/WrVsn3bp1k8OHD0v79u3l6NGj8u2338odd9wh1atXFx3++fvvv8vixYvlqquukoIFC0qbNm1k27ZtsmDBAhPwafDYsGFDQ7h+/XrJnz9/Ks4tW7bIypUrRXsfa9WqJZs2bRINSjUoLFu2rHg8Hrniiitk0aJF0qpVK9HAVK/71OBSr2tctWpVqjLPOussExCn2hDGFRoA28FvGIulKAQQQAABBFwhwDWUrjjNNBIBBNwuoENY58yZI9OmTTO9jzp5jwZ4/r2MBQoUkCVLlsjEiRNl/vz58uCDD8qJEydkwIABGSLUiYEuv/xys8/QoUPl+eefl7Vr15pgskaNGjJz5kx58cUX5bvvvpMuXbqIDjvV45IQQAABBBBAIL4ECCjj63xRWwQQQCBTAj169PAZttquXTtTjvYoOtNdd91lehTtdTpcNk+ePPLTTz+Znkd7fWYeNYDVpD2ROiGOTrKjadSoUWaobJUqVcxzfiGAAAIIIIBA/AgQUMbPuaKmCCCAQKYF9JpJZypZsqR5qsNfnalatWrOp5IrVy6pWrWqCf50WGxW0rnnniudO3c2gakGuMWKFZOLLrpI3n33XTOEVntHSQgggAACCCAQXwIElPF1vqgtAgggkCmB9GZ1tQstVaqUveh9tPfVYbNppV27dqW12WybMGGCTJ061VzTWbx4cXMtpw6/1WBzxYoV6e5PBgQQQAABBBCILQECytg6H9QGAQQQyFYBvc7RmTSI3Lhxo+lBPOOMM7ybjh8/7l3WBZ18548//vBZ5/9EZ3jVobP2PSD1uU7QoxPy6P6jR4/234XnCCCAAAIIIBDjAgSUMX6CqB4CCCAQTQG9hYYzWNTbjuzZs8fc9iN37tymKhUqVBCdPVZndbXTm2++aS+metRJfTRNnz5dmjdvLq+88oo3T7169cS+x+ShQ4e861lAAAEEEEAAgfgQ4LYh8XGeqCUCCCAQFYF58+bJJZdcIp06dTL3qxw2bJjkzJnTzPZqV6Bx48bm9iCXXXaZXH/99WZZA1H/VL58ebNKZ3ndvXu3XHzxxZI3b15zT0y9NrN+/fpmgp7hw4ebfB06dPAvgucIIIAAAgggEOMCBJQxfoKoHgIIIBCqQI4c/w460QDQToHW6TZnHjuvPnbv3l0mTZok33//vVldqFAh0YCvdevW3mzPPvus/Pbbb+a+lQ8//LCUKVNG+vTpY+4pOWPGDG8+vael9nD++OOP5t6XN954o5nddciQITJw4EBvPp1FVmeT7dixo3cdCwgggAACCCAQHwJJ1jTu/87jHh/1pZYIIIBATAtoL5wOEdVrA+Mp9evXT7Q38osvvjAzry5cuFBSUlKkVq1aUrRo0YBN0Wsgd+7cKQ0aNBA7cA2UUYfGahlFihQxm/XfzuzZs0X312C0Zs2aUrp06UC7RmWdBr7Lly8398mMygFddJAkK7mouTQVAQQQcKUAPZSuPO00GgEEEAgukJycLE2aNAme4b8tZcuWFf1JL+k1l86kMUbLli2dq1hGAAEEEEAAgTgVYFKeOD1xVBsBBBBAAAEEEEAAAQQQyG4BAsrsPgMcHwEEEIgBAb3/pN4LslixYjFQG6qAAAIIIIAAAvEiQEAZL2eKeiKAAAIRFNBrKFetWiXnnXdeBI9C0QgggAACCCCQaAIElIl2RmkPAggggAACCCCAAAIIIBAlAQLKKEFzGAQQQAABBBBAAAEEEEAg0QQIKBPtjNIeBBBAAAEEEEAAAQQQQCBKAgSUUYLmMAgggAACCCCAAAIIIIBAogkQUCbaGaU9CCCAAAIIIIAAAggggECUBAgoowTNYRBAAAEEEEAAAQQQQACBRBNITrQG0R4EEEAgngSOHDkihw8f9qly4cKFJVeuXD7rnE88Ho/89ddfUqhQIcmdO7dzU7Ys79u3T/Llyyd58uTxOf7+/fvlxIkT3nVJSUlSvHhx7/P0Fg4cOCApKSlSsmTJgFl1e44cOaRgwYJy9OhROXTokJQoUSJgXlYigAACCCCAQGQE6KGMjCulIoAAAiEJ9O3b1wRMGjTZP6effrr06tXLBI2BClmwYIHJu2jRokCbQ163bt06efPNN+XkyZMh7+Ofce3ataL13bJli/8mqVKlirdN2jYN9mrXri2vv/56qryBVtx7771yzTXXBNpk1jVp0kQGDhxolocMGSJ169YNmpcNCCCAAAIIIBAZAQLKyLhSKgIIIBCSwPz580UDo9mzZ5ufL7/8Uq699lp55ZVXTLAXqJACBQrIs88+K/Xq1Qu0OeR1Y8eOFQ3EcubMGfI+/hkHDx4sN954o5xzzjk+mzZv3ix79uyRBx980Nu2CRMmSP78+eXuu++W9evX++QP9ERtGjduHGiTaO/nmjVrvNvPP/98GT58eMC8rEQAAQQQQACByAkw5DVytpSMAAIIpCmgwzR/++030V7K5s2be/O2aNFCXn31VdHhsDq89d1335VWrVqZAGrnzp1SqVIladSokRlO+sEHH5igqlatWt79x48fb3oNW7ZsaXoOv//+e1m5cqXZp3379maI6Oeffy76o8Nrv/jiC9H1mpYuXSrffvutHDt2TC699NI0e/20h3TatGmivZT+ad68eWZV165dfQJfHd6r27RtX331lSQnJ0vbtm1N3n/++Uc+/vhj6dChg+TNm9eUe+6558obb7whGzduNIH31VdfbfJqL63aaMCpPaxa7nnnneethpb9ww8/SOnSpeXKK6+UChUqeLexgAACCCCAAAJhFLD+IZMQQAABBMIk0K5dO4/VcxhSaXPnzvVYb+eeSZMm+eR/8sknPda1gR4r2PRYwZrJU7ZsWY91DaLnoYce8lStWtVj9fJ5rKDM5BswYIB3/6+//trktwIqzzfffOOxeh89VlDmsQJSj3Vdpufyyy83ebt06WLyWcGpx+plNOus4aOmPM1fuXJljxXseaxg01u2/4K29YEHHvBfbZ7ff//9Huu6Ss/x48e9263rKT0NGjTwWMGvR5crVqzoue+++7zbZ8yYYepk9V567GUto1y5cp5ixYqZbS+88ILJ/9RTT3ms6zHNshUEm20zZ8405Xbu3NljBaQeK0j3WNeZmnaoY7BkBZwea3husM2sz4JAGD+uUBQCCCCAQKwKZOH/BLsigAACCPgJZCSgfOmll0wgZF0v6Xn88cdNYHfJJZd4rIl2PLfffrsp2eqBNHmuu+46jzWM1PP333+bwPK9994z28866yyPbtNk9dR5rGsUPVdccYUJ5M444wxTrtlo/dL1DRs2NE/tQFUDUE2jRo0yx/nss8/Mc6uH0gRZ1jWM5rn/Lw3erN5Nz59//um/yTxv1qyZp1SpUub42rY+ffp46tSpY46hge7u3bvN8ocffujd/4knnvBY11ma57ps/d/0PP/886Zdepyzzz7bY/VCmu3alosvvtgsv/322yYQPnjwoDG0hgR7rF5Qs83qmTXlWMNtzfNAvwgoA6mEZ12sfvahXggggAAC4RNgyGv4LCkJAQQQyJCAXiOos6POmTPHu58VhMnTTz8t//d//2fWaR5dp5Pn6KyuVjDmHeqpGXRI6LZt20xeK8g0w0QnT55shpLqpDtWL6jZd/Xq1WYoq9UzafLqsFOddVWHjFqhg1gBnLkOUoeiWkGeyaOztvrPQGs2WL+snlIzVDfQrKo6s6sOhy1atKhYAarZRa/T1Oss9TrHNm3amOG2usF5jaTWSYfyatJlqydWrEDUzOSqxylfvrypq25Xl9tuu00XzXL16tXNzLgvv/yydOvWzVtutWrVRIfH6jBhEgIIIIAAAgiEX4CAMvymlIgAAgiEJKBBk16nOHHixKD5NY9e36jBpCYNpIoUKWICSX2uAaXur7fM0Aly9HpMq9dSfv75Z+nUqZO57Ub9+vVNcKZ5dAIgTVqOzsKqQd+yZctEJ9GpUaOGjBw50mzXX3rM1q1be5/bC1OmTDHXNGqwFygtX77cBKLvvPNO0FlatV0aJNqBnt4eRANrnd1Wk9avX79+3gmDTp06Zeqobdq+fbvotaTOtmhgqvvrZD3XX3+9T7WsYbY+z3mCAAIIIIAAAuETYJbX8FlSEgIIIBCygN5HUmc6dfbQ+e9sXX8oS5Ys8cmjgZY1bNX0Lmp+DSh37NhhZn3VCW6051D369mzp+hEPdZQUdFJeayhtKZ4+3ga0NkBmebR9Nxzz5lAVIPRcePGiTWUVnr06GG22b80sNNbdeiP3v8xUNI6arKPFSiPtss5S+3UqVNF72epddq6datYQ2LFum7Su6v2uu7atcsEmVp3TVq+9qBqAKvLf/zxh1mvM8naSYNs+9Yi9joeEUAAAQQQQCB8AgSU4bOkJAQQQCBkgV9//dXkTSvo0hlgdbZVZx4N1pzPNaDUIaY6ZHXYsGHmthw6e+yqVatMPt1fZ2LVW3VYk/KYXkg98IoVK0zvpAZkOpRUk95GRIM57YHUmVatyYLEmvjGbLN/6ayy2tN555132qtSPWrAp/ed1J7SYEmH1mpA/dNPP8n06dPl5ptvNlm1bXbAOGbMGNMTqkN5e/fuLdZ1pWJdF2p6L60JfeS0006ThQsXmlleNRC1rrE0ZWgv64YNG0yArCb+PZbB6sR6BBBAAAEEEMiEQHguu6cUBBBAAAEVCHVSHp10RmdyPXDgQFC4119/3WNdx+ixhoOaPNZQTzPBjHNWWKtXzqyzhqb6lKOT1lj/EsyPToZj3Q/STOZjz6pqXc9otr3//vtmP2t4qTe/zu7avXt3j9Vj6FOmPTOrvY/PRscTnRjIGqbrWJN60bqPpqmP1lFnfdX66wRDmvr3729mptVJeOw26MRDttWFF17osW5HYvLqrK/2bLJW76nHun7Su4/WQyc1Si8xKU96QpnfnomPJeyCAAIIIBBnAkn6byLO6kx1EUAAgZgVsGYelT179phJabK7kps2bTL3czz99NNNVXRorF4zqUNCtRfTmjFWypQp4x0+q9t1H72uUddHOukQVr120u4h9T+e/nvSnlTtlfTvKfXP63yu5eqwX+t2I87VQZevuuoqM2w20P00g+7EhpAErImfkkLKSCYEEEAAgbgVYFKeuD11VBwBBBBIW8B/yKkGZnay7tModqBpr9Ptzjz2+kg9phe0aixSs2bNDB8+vXIzXCA7IIAAAggggEBQAa6hDErDBgQQQAABBBBAAAEEEEAAgbQECCjT0mEbAggggAACCCCAAAIIIIBAUAECyqA0bEAAAQQQQAABBBBAAAEEEEhLgIAyLR22IYAAAggggAACCCCAAAIIBBUgoAxKwwYEEEAAAQQQQAABBBBAAIG0BAgo09JhGwIIIIAAAggggAACCCCAQFABAsqgNGxAAAEEEEAAAQQQQAABBBBIS4CAMi0dtiGAAAIIIIAAAggggAACCAQVIKAMSsMGBBBAAAEEEEAAAQQQQACBtAQIKNPSYRsCCCCAAAIIIIAAAggggEBQAQLKoDRsQAABBBBAAAEEEEAAAQQQSEuAgDItHbYhgAACCCCAAAIIIIAAAggEFSCgDErDBgQQQAABBBBAAAEEEEAAgbQECCjT0mEbAggggAACCCCAAAIIIIBAUAECyqA0bEAAAQQQQAABBBBAAAEEEEhLgIAyLR22IYAAAggggAACCCCAAAIIBBUgoAxKwwYEEEAAAQQQQAABBBBAAIG0BJLT2sg2BBBAAIGMCyxevFjq16+f8R3ZI1sE9HxVrlw5W47NQRFAAAEEEIh3AQLKeD+D1B8BBGJKQANJj8cTU3UKR2UOHDgg8+bNk9q1a0vp0qXDUWTMlHHRRRfJmWeeGTP1oSIIIIAAAgjEk0CS9cEn8T75xNMZoK4IIIBAHAgsWLBAGjVqJBMmTJAuXbrEQY2pYiwIJFkpFupBHRBAAAEEIifANZSRs6VkBBBAAAEEEEAAAQQQQCChBQgoE/r00jgEEEAAAQQQQAABBBBAIHICBJSRs6VkBBBAIGEESpUqJb169ZIqVaokTJtoCAIIIIAAAghkXYBrKLNuSAkIIIAAAgggEECAaygDoLAKAQQQSDABeigT7ITSHAQQQAABBBBAAAEEEEAgWgIElNGS5jgIIIAAAggggAACCCCAQIIJEFAm2AmlOQgggAACCCCAAAIIIIBAtAQIKKMlzXEQQACBOBZYsWKF1K5dW2bMmBHHraDqCCCAAAIIIBBuAQLKcItSHgIIIJCAAkeOHJFly5bJ/v37E7B1NAkBBBBAAAEEMitAQJlZOfZDAAEEEEAAAQQQQAABBFwuQEDp8hcAzUcAAQQQQAABBBBAAAEEMitAQJlZOfZDAAEEXCRQoEABadKkiZQoUcJFraapCCCAAAIIIJCeQJLHSullYjsCCCCAAAIIIJBRgSQrZXQf8iOAAAIIxJcAPZTxdb6oLQIIIIAAAggggAACCCAQMwIElDFzKqgIAggggAACCCCAAAIIIBBfAgSU8XW+qC0CCCCAAAIIIIAAAgggEDMCBJQxcyqoCAIIIBC7Aps3b5aePXvKwoULY7eS1AwBBBBAAAEEoi5AQBl1cg6IAAIIxJ/An3/+KaNGjZKNGzfGX+WpMQIIIIAAAghETICAMmK0FIwAAggggAACCCCAAAIIJLYAAWVin19ahwACCCCAAAIIIIAAAghETICAMmK0FIwAAggggAACCCCAAAIIJLZAksdKid1EWocAAggggAAC2SGQZKXsOC7HRAABBBCIngA9lNGz5kgIIIAAAggggAACCCCAQEIJEFAm1OmkMQgggAACCCCAAAIIIIBA9AQIKKNnzZEQQAABBBBAAAEEEEAAgYQSIKBMqNNJYxBAAIHICNj3ody0aVNkDkCpCCCAAAIIIBCXAgSUcXnaqDQCCCAQXYHNmzdLz549ZcGCBdE9MEdDAAEEEEAAgZgWIKCM6dND5RBAAAEEEEAAAQQQQACB2BUgoIzdc0PNEEAAAQQQQAABBBBAAIGYFiCgjOnTQ+UQQAABBBBAAAEEEEAAgdgVSPJYKXarR80QQAABBGJB4NChQ7J8+XKpUqWKFC9ePBaqRB3iQCDJSnFQTaqIAAIIIJAFAQLKLOCxKwIIIIAAAggEFyCgDG7DFgQQQCBRBBjymihnknYggAACCCCAAAIIIIAAAlEWIKCMMjiHQwABBBBAAAEEEEAAAQQSRYCAMlHOJO1AAAEEIihw5MgRWbZsmezfvz+CR6FoBBBAAAEEEIg3AQLKeDtj1BcBBBDIBoEVK1ZI7dq1ZcaMGdlwdA6JAAIIIIAAArEqQEAZq2eGeiGAAAIIIIAAAggggAACMS5AQBnjJ4jqIYAAAggggAACCCCAAAKxKkBAGatnhnohgAACCCCAAAIIIIAAAjEuQEAZ4yeI6iGAAAKxIFCuXDl56aWXpG7durFQHeqAAAIIIIAAAjEikOSxUozUhWoggAACCCCAQAIJJFkpgZpDUxBAAAEEAgjQQxkAhVUIIIAAAggggAACCCCAAALpCxBQpm9EDgQQQAABBBBAAAEEEEAAgQACBJQBUFiFAAIIIIAAAggggAACCCCQvgABZfpG5EAAAQRcL7Bo0SIpUKCATJo0yfUWACCAAAIIIIDA/wQIKP9nwRICCCDgeoHFixfLjBkzUjmcOnVKDh8+LCdOnEi1bf78+TJz5sxU61mBAAIIIIAAAokvQECZ+OeYFiKAAAIhC9SsWVPuuusuOfPMM+Wrr75Kcz8NJKtXry7t2rWTOnXqpJmXjQgggAACCCCQmAIElIl5XmkVAgggkCmBXLlySf/+/WXHjh1y6aWXyvnnn5+qx1IDyfbt20uTJk1k1apV0r17dylevHimjsdOCCCAAAIIIBDfAtyHMr7PH7VHAAEEwi5w/PhxKVeunOzevVty5swpJ0+elHr16pllDTjnzp0rOXLkEB0Gq2nv3r0ElGE/C4lRIPehTIzzSCsQQACBtASS09rINgQQQAAB9wlo0PjUU0/JrbfeaoJJFVi6dKlZ1kBSkx1MDho0iGDSiPALAQQQQAABdwrQQ+nO806rEUAAgTQFtJeySpUqsm3bNm/w6NzB6nkys75u2bKFgNIJw7KPAD2UPhw8QQABBBJSgGsoE/K00igEEEAgawLaSzlkyJCAwaSW7PF4pHfv3gSTWWNmbwQQQAABBOJegB7KuD+FNAABBBCIjECwXkp6JyPjnYil0kOZiGeVNiGAAAK+AvRQ+nrwDAEEEEDgP4FgvZT0TvISQQABBBBAAAFbgB5KW4JHBBBAAIFUAv69lPROpiJiRRoC9FCmgcMmBBBAIEEE6KFMkBNJMxBAAIFICPj3UtI7GQllykQAAQQQQCB+BeihjN9zR80RQACBqAjYvZQ6o2uBAgVk69atTMYTFfn4Pwg9lPF/DmkBAgggkJ4APZTpCbEdAQQQcLmA9lI+/PDDRkHvTVm8eHGXi9B8BBBAAAEEELAFku0FHhNfQHsZPvroo8RvaJRbWK5cOWndunWUj8rhslPgr/U/yuE9m7KzClE/drtquaVGlfLSs3012T53bNSPn50HzFOolJxW8+LsrALHRgABBBBAIGYFGPIas6cm/BU7ePCgFC5cOPwFu7xEnaRk1KhRcsstt7hcwj3NXzK6h/w+70P3NPi/lh44KlI4r+uaLcUqXyBN+89yX8PD0GKGvIYBkSIQQACBGBeghzLGT1AkqnfttdfKoEGDIlG068ocOnSoTJw4UXr27GnaTlDpnpdA7vxFpGEX/o4S/Ywv++LVRG8i7UMAAQQQQCBLAgSUWeKLz51r1Kgh+kPKukCpUqUkT548Ur9+fYLKrHPGVwlJOaVgiXLxVWdqm2GBnLnyZHgfdkAAAQQQQMBNAkzK46azTVsjIqBDXj/99FNp2rSpCSrfeeediByHQhFAAAEEEEAAAQQQiDUBAspYOyPUJy4F8ufPT1AZl2eOSiOAAAIIIIAAAghkRYCAMit67IuAQ4Cg0oHBIgIIIIAAAggggIArBAgoXXGaaWS0BAgqoyXNcRBAAAEEEEAAAQRiQYCAMhbOAnVIKAGCyoQ6nTQGAQQQQAABBBBAIA0BAso0cNiEQGYFCCozK8d+CCCAAAIIIIAAAvEkQEAZT2eLusaVAEFlXJ0uKosAAggggAACCCCQCQECykygsQsCoQoQVIYqRT4EEEAAAQQQQACBeBQgoIzHs0ad40qAoDKuTheVRQABBBBAAAEEEMiAAAFlBrDIikBmBQgqMyvHfggggAACCCCAAAKxLEBAGctnh7ollABBZUKdThqDAAIIIIAAAgggYAkQUPIyQCCKAgSVUcTmUAgggAACCCCAAAIRFyCgjDgxB0DAV4Cg0teDZwgggAACCCCAAALxK0BAGb/njprHsQBBZRyfPKqOAAIIIIAAAggg4BUgoPRSsIBAdAUIKqPrzdEQQAABBBBAAAEEwi9AQBl+U0pEIGQBgsqQqciIAAIIIIAAAgggEIMCBJQxeFKokrsECCrddb5pLQIIIIAAAgggkEgCBJSJdDZpS9wK+AeV7777bty2hYojgAACCCCAAAIIuEcg2T1NpaUIxLaAHVR27txZbrvtNlPZm2++ObYrTe3iXmDJqk0y59eVkitXstx53cUB2zP1u/my5fc9qbYVLVxAap5TXmpVrSDJOXP6bJ/41VzZ8cdf0vnSpnL6acV8tvEEAQQQQAABBBJHgIAycc4lLUkAAYLKBDiJcdaEISM+lK9mLza1rl/jbGlcu0qqFrwyZrr8MH9FqvX2ivPrVZXxL/X1CRyfHzVJFq3YKI2s8ggobSkeEUAAAQQQSDwBAsrEO6e0KM4FCCrj/ATGUfV3Wj2I3/z0m7fG46b8EDCgtDMMf+hmqVa5rHl66PBRWb9ll7w27kuZu3iNPPLSR/LWE3fbWXlEAAEEEEAAAZcIEFC65ETTzMgJHDp0SFq1ahX2A5w6dUo0uLz11lulcOHCcvXVV4f9GBToboEPps6WkydPSaeLmsjkb+bJJ1/+JMOsoDFXsu/wVVupcZ0q0qTOOfZT83jRBXWk4ZV95YtZC8Xj8UhSUpLPdp4ggAACCCCAQGILEFAm9vmldREWqFKlirRu3TpiR6lfv77Mnj1bfv31VwLKiCm7t+Axk2aaxj95/w1Wb+NOWb52q3w9e5FcdmGjkFHK/Hd9ZIH8eQkmQ1YjIwIIIIAAAokjQECZOOeSlmSDQK9evUR/IpW0xydHDiZjjpSvm8udv3SdrNn4uxniWqXiGdK1fTMroPxQtNcy1IDy7wOHRK/B1HRN+wvczEnbEUAAAQQQcK0AAaVrTz0NRwABNwu8/9n3pvk3dmplHjUg1OBw+swFsv/gYSlSKH8qnuv7vCD58uY26/+xrqHcsfsvs1zn3IrS++aOqfKzAgEEEEAAAQQSX4Cuj8Q/x7QQAQQQ8BE4euy4fPLFz+ZayS7WbT00nVWutDSsVVmOpRyXiV/P9cnvfJIndy7Rn6KFCkiBfHnMpqVrtsjgF8c5s7GMAAIIIIAAAi4RoIfSJSeaZiKAAAK2gN5Xct/BQ1KoQD7p98x79mr5e/8/Zllne72lcxvvenvhwxfv95mUR4dk/7Rotdxg9Vy+/fE30qJRDbmmQzM7O48IIIAAAggg4AIBeihdcJJpIgIIIOAUsIe7Hjx0RD6wgkf7Z8PWXSbbjwtXydYde5y7BFzWGV2bNagmPa9tZ7b/bAWXJAQQQAABBBBwlwABpbvON61FAAGHgPaw7du3z7Em8Rd/37VXvpu7VAoXzCe7570v+xaP8/nRCXnUZZw1OU+oSe9Jqemkdasb0r8Chw8flpSUFDgQQAABBBBIeAECyoQ/xbHXwO+//16eeuop2bZtW7qVGz16tLzxxhtp5nvrrbfk7bffTjMPGxEIJKA9bP369ZPBgwfLX3/9O8FMoHyJtO6DqT/IqVMeueri86VY4QKSP28en59r/xuyOs7KF0paunqz6BBZTRfUrxbKLgmdRwPJ4cOHy7XXXiu5c/87gVFCN5jGIYAAAgi4XoBrKF3/Eog+wJdffinDhg2TZs2aSbly5dKswIMPPmi+5b/zzjuD5hs4cKC5/13Pnj2D5mEDAsEEevfuLTVr1pQnnnhCBg0aJH369JHixYsHyx7368dMmmXacP3lLQK2pX2rBmYm17WbdsiCZevNRD12xvseH2X1bP5v9tffrVleN27bJSdPnpL2LRu4+vpJDSRff/116du3r+GaPn26zcYjAggggAACCS1AQJnQpzf+G3fDDTekex/Gq666SpKTeSnH/9nOnhbUqFFDqlatKmvWrDFB5YgRI0SDzEQMLDVAXLd5h5QtU1JaNq4RELxg/rxyqRUcfmbN9Drhi59MQKk9uZoWrdjos0+JooWsXslz5fI2jaVX9w7mix07g33/1JwJfh9VO5B85pln5M8//7SbL+3bt/cus4AAAggggEAiC/ApPJHPbja37Z9//pGCBQumW4ujR49aQ/BOSf78/+v5sHfSD/fppTfffDNoFq2DfhguUKBA0Dx6vdjOnTuldOnSkjNnzqD57A1HjhyRfPny2U95TACBiRMnSq1atcy1g4cOHUrYwFJvC5Ky6tN0z9j4EQ/45Jnx3qM+z0N58vOEZ0LJFrd5/ANJO+jWBtE7GbenlYojgAACCGRCgGsoM4HGLsEF1q1bJ/fcc4+cc845UqhQITn77LOle/fuMmvWrFQ7ad4WLVpI4cKFTV79QK/XVzrThRdeaPI41/kva542bXxvcfD+++9LxYoVTblaj0qVKsmoUaN8dv3777/l+uuvl2LFismZZ55pgs5LLrlE1q9f7803btw405bJkyebdp1xxhkm8K1SpQrXbXqV4n9Beym7dOliesP1CwZNdmBZoUIFV11jGf9nM7ItsK+R1NeFDm/du3evOaC+bvQLqYYNG9I7GdlTQOkIIIAAAjEmQEAZYycknqujPXc6/PS1116TY8eOye23326ukfzggw9EA7XNmzf7NO+2226T5cuXS+fOnaVly5Zm+aKLLpIff/zRm2/ZsmXy22+/eZ8HWtA8+mOnlStXyi233CLa83nzzTebeuzfv1/0GsuPP/7YZNNgQT/4ffTRR2a4owbBTZo0ka+//lrq1asnW7ZsMfl0BlANfLt162YmB2rQoIG0bdvWBJ133HGH/PTTT/ZheYxzgSFDhpgeSrsZBJa2BI8qkFYgaQudPHlSHnvsMfspjwgggAACCLhCgIDSFac5Oo2cOXOmCQqvueYa2bRpk+hQ1B9++EE6depkAsyff/7ZpyLly5eXFStWyIcffmh6JnWmTR36+vDDD/vky+iTp59+2pQzcuRIeeedd0wgqPXQpAGkJp0UaOPGjaJ1/eWXX0Tzap4BAwaIDpO9//77TT77l35QnDNnjkybNk2++eYbc42dBhxz5861s0T0UWeN1GG29o8G6c50/Phx7zY7z3333efMYpbPP/98n3xNmzZNladXr14+ebS8EydO+OQbO3Zsqjz+FqtXr06V5+WXX/YpR5/oUGO7zvp44403pspz2WWX+eTRax79k36Qd5ajy7t37/bJ9sUXX6TK8/nnn5s82kupvd32tX/2jnZgqa8LnbinRIkS8ta0pVbwaefgMdEFdu3aJWeddZbpkbSvk7RfF3bb9XWjw16vvvrqVK8x/9dlZp/rteK67x9//GEflkcEEEAAAQSyXYBrKLP9FCROBbT3burUqVK7dm3vh3LtCbSvS9Rv+J1JA8fTTz/du+rWW2+Vxx9/XObNm2cCQv8P9t6M6SzYwY/OuKh10eG3GixoD6ldF7unUnstndc+aSD57LPPphqi26NHD3EGX+3atRO9vlN7Q6OR6tSpIxdccIH3UNomZ1Ir7RF2Jp1F1z9pD3Ljxo29qwPNstu8eXMfE83sfy40oPM/ngaGzqRDif3z6LBm/3TTTTeZ3mR7vfYQ+yed4ESHLdsp0Cys2uPsfzz/63J1mKJ/Hh0arUm/NPDvRTcb/vulrxMNInSiqPY1D0vS7h3OzSwnsIB+idCt22XmdiD268C/ufrayJUrl+jrOVK3C9HRHzrywj+Y9a8LzxFAAAEEEIimAAFlNLUT/FgaUGjgpr1/ixYtMh/OdbIb+8OPM3BTCv/gQj/s6zWX2nP4+++/p3tLkWCc2jOnvU56PaYGPlqmDrnVnlIdrqq9oHoM/fCnPXbOVKpUKXM9pR7fvjZKt1euXNmZTUqWLGme64e7aCStt84iGSxpoPzSSy8F2+xdr/dcTC/ptYT6k1bSoNQZmAbKq6+HUOqkAXx66e67704vi3To0MH8pJVRX5/B6qS91xs2bEi1u75u1Ve/VNAvQfT1tGR0D9nj2/mZaj9WJI6Avlfo+5r+/Tz//PPy6quvmlEX9nubtlSXU1JSRK+z1tEWkUj6HvnAA74TJkXiOJSJAAIIIIBARgQY8poRLfKmKaDXOlarVs0MH922bZvpUdP7+unEN4GSfvgKlvLkyRNsU7rrzzvvPHMLCO3t1F49rYt+s6+9ito7pT2leo2n9qD592Dph0LtVdXkrIMOMyMlroB97ZuzJ1YDSR1iqNfj6i1FdFInDSZJ7hXQL0k0sNSebB3NkDdvXp/efH3N6PB0vWabhAACCCCAgFsECCjdcqaj0M7nnnvOfEOvPYRbt26VCRMmyNChQ0WvlQyU9Bo7Z9qxY4fpOdRbfGhPYWaTXqup1xhpMKsT/Og1TxoMaLAwevRoM7TxtNNOM3n866CBg07Eo9tDueVJZuvIfrEloL2TOruv9l4TSMbWuYnF2gQLLPULKQ0mA10rHIvtoE4IIIAAAgiEQ4Ahr+FQpAwjoMNcNemsrXbSW3NMmjTJfurzqEGezsJq9wTak6NcfPHFPvmcT/bs2SM6QYYOOXVef+nMo5NiHDhwQDSv9kDqbUn0uiYNbjXQ1R5KHa6p94rTY5577rne3fUaUE1p1cGbmYWEENDeSZ3FV5MGk9ojaQ9tDUcD5/22Vub/ti7dojq0aiBnly+Tbr6MZFiwbL3MXbxGrr7kfPns61+8w8/tMvLmyS21qlaQOudWlHx5c9urY/LxwD9H5LVxX0qdahXl0hb1Y6KOdmDpHAqrw+B1xmCd3KpIkSIxUU8qgQACCCCAQCQFCCgjqeuysjVI0x6/Pn36yJ133mmug9TZQO37On777bc+1ywuXLjQzKrZsWNHc72iXtumQwy1ZzFY0uFkes2d9oLqpDiB0hVXXGFmmNWJXPR2INozqUGtBpM64YsGohpc6oyfDz30kPz111/mes6lS5ea66P0eqmBAwcGKpp1CSigvZMaSNavX9/0qod7WOvUb+fL86MmpytX/oySYQ8oHx85QeYvXSeXtW4o9z/1TtA65ErOKU/17Sb39bgsaJ7s3rD/4CEZMuJDuaZDs5gJKG0TZ2Cpk4vpl1XaSxmpaynt4/KIAAIIIIBALAgQUMbCWUiQOuikMUuWLJEFCxaI3mNSP6S3bt1axo0bJ127dpXx48ebgE7Xa9IPW3q7Dvt2IkWLFvXmsUk0GLRnZtV19jVuznV2XvvxqaeeMkNn9fYe9u1CdFvdunW9tw3R4GHy5Mmmh1RvM2InDTY/+eQTb69lsOOldXy7LB5jX0CHKOpQa/3SI9yBpH/rO13URNo1q+u/2vu8brWzvMvhWNAeve/mLpVrL2tu/Q39e3VD8SIF5c0n7vIWv3XHn7JwxQYZ//kc6ffMe7Jhyy55echt3u0sZExAA0sd9aC3q9ERGHqttj0CI2MlkRsBBBBAAIH4ESCgjJ9zFfM11WBMex116KtObKMBnE58o2ndunWydu1aqWjdokGvkdTrLTU98sgj8uuvv5oPXTrrq/ZQOpP/fQQ1WNSftJLeUmLGjBnmlh46a6dO/qPBgt56ww4QdX/tGdXZXJctWybbt283QaTejsMZLN51112iP/5JA1INRkjxLaBfbvTv3z8qjWjZuIbc1vWiDB8r5fgJSbZmmc2R498vYkIt4KvZi0T37dT2f7eJyWsNa72ibZNURVzboblcfc8z8ub4r606tpXa1hBY/6Sv9xMnT4n2ZqaV/j5wSPJbx8mTO1fQbFrWrj1/S6kSRb3BbtDMIW4ItX5a3KEjx6RAvsxP/JVelTSwZJRDekpsRwABBBBIFAHfT++J0irakW0CGhAGup2EDiPVWzb4Jw3edFbWzCa9HlIn0dGp+v1T9erVRX/SSjpLY6NGjcxPWvnYhkC0BJpd85AUL1pQ+vW8UgY8N0Z+W7XJBGcXNKgm7z7bS0oWKxRSVSZ/O88ETW0vqCt/7N2X5j6XtKhnhpJ+MOUHeeHdqfKedRw7LV+7Vfo+/a4sWL5ejhxNkfo1KsktXdrIzVe3sbOYx4+mzZFHXv5INm//wxy3TdM6cp3VO6rXb9pJg81eQ98WDXb3Hzxs2qWB9kuDb5NKjutH/9i7X3o/OVp+/HWlHDmWIk3rnSs3XNHSLsbnMZT6tbvpUfMF0CO9rpWhr3wss+Ytl4O/fZRm0OtzEJ4ggAACCCCAQFABZnkNSsOGWBfQobQ6oc6JEyekQYMGsV5d6odASAIbt+2S7+cuk0tufkz+2v+PdLR6GAsXyi9fz1ks3fsGvm7Yv+BjKcfl69mL5WJr8pq8eYL3FDr3u7FTK/N02Zot3tWzrYDugmselFnzl0uzBtXlsgsbybrNO+SOQa/LoBfGefONHPuF9Oj/kuyxAsGObRpLjSrlZep38+X6+1+wgsfFJp/2Cp7Xub98PP1HOeesM+Su6y+RxrWryIwfl0ijK/vK1h17TD4NOltcP1A+/fJnyWf1IrZqUkuWWEH1jQ+86D2evRBq/TZZQa5OTtTpzqdMMHn6acV8RivY5fGIAAIIIIAAAhkXoIcy42bsESMCOpuiXp+kk/DoveFICMSywPDRU2Xs5FkBq9ikzjmml87eqENVu1x6gYx++l4TEO60hoee2+4e+WXJGtPTZl+HbOf3f9RrJw8eOuIz3NU/j//zs87891Y9m7btNptOWsNbez8xyvRKjh3W2/Rg6gbd3uK6gTL8nSlyT7f2ppdPe/10WO60twdZgWc1s//bH38j9zz6prz32feiPaAvWPl1X23XB8N7m2usNePA4R+YSYv6WtdwTni5n4wcO102bt1lAtMPX7xfcudKFg0yL+rxiCxdvdmUrb9CrZ8Gj5rUtFqlsvJ0v27S5vza3uObjfxCAAEEEEAAgUwL0EOZaTp2zG4BnU1Rr83UyXUiPaFKdreV48e/wI4/9sr6LTsD/uz5+0CqBr4w8GZv76IGRTXPKS//HD4q23ftNXk3WEGX9ibaP6s3bPeWMeWb+eZax0tbht5zX8waZqtJr9XU6xEXrdgoOpy0bJmSJgi0Cz+rXGnpfGlTE9BNn7lAvv95qeyzZmBt07S2N5jUvN2vbCV3XHexqbc+/8TqcdR0q3WNpjMgvu+my8362fNXmEc76B7+0E0mmNSVxQoXkEF3dzHb7V+h1s/Or4+P/N810tYaius8vnM7ywgggAACCCCQcQF6KDNuxh4IIIBAhgWGP3Sz3HNj+5D2K5g/r5S2JqxxppJFC5unR61rCjV1uutpWbPxd7Osv84sU0I2zXzTBHqfz/xVWp9XS4pYQ2VDTbv3/HudpV4jqQGXDm3V9Pf+g3J+lwE+xeiEOpp2W0Nc9+47aJZrnVPBPNq/dFKeV4b0NE9PnfKY3kmd0Oe8uufYWcxjqRJF5IzSxWXH7r/MRD3bdv4ppxUvLBX+6zG1M9e27pfpTKHWz95Hezp1CDAJAQQQQAABBMIrQEAZXk9KQwABBLIskM+aJTW91KpJTalc4XRvNnuynp8WrZY9fx0IOJurN3OAhSnWNY+aGtasbB7/PvCPeSyYP58J+MyT/35pAKjp7LKlzfWNulzSCgKDpcNHj4le16nBY/68vrOram/o4cPHzK7HT540AbEOT9X1zp7EXFZA6Eyh1s/eR4fkpjdDrZ2XRwQQQAABBBAIXcD3P3To+5ETAQQQQCAbBezeP/8qTLFmd9Vhqx3bNvLfFPT50WPHZcykmWZ7w1qVzOPZ/826Wu6MkjLptQd99tXeRJ3o5txKZ5rhrrpRr+90Jg0iez8xWk4rVliefOBG0+uos7dqr2rVs8/0Zl27aYcpQ3sly1nDa7VXVWeA1eG2tRy9kuus4cLOFGr9nPuwjAACCCCAAALhF+AayvCbUiICCCCQbQKTv5lnDSutmmrIbLAK6RDT1jcOEg3szq9XVTq0bmiy1rXuRanDRBcu3yA7//jLu7sOX+3a63mzz+oNv0vT+ueabXOsGWF1Jlc76aQ87038XnRCIU2NalUxj9NnLTSP9q9p1vBcTRc1q2sedeZXTf75XvvgS7Pe/hVq/ez8PCKAAAIIIIBAZATooYyMK6UigAACPgIvvDNVPpw222ed80mfmzqayW6c6zK6vHjlRtEA8V5r9tVAae/fB6XdTY96N/1pTQakk/vo/SX1msVPRw7w3pvx9FLFpc/NHeXZtz6Ttj0eld7W5Dl5ciebnsz5S9eZazSb1q9qhqXqJD16m4+23YfIjdb9Ihcs2yATv/7ZzPx6+7UXm+M90usa+dK6/6TebuRv63YoOsmQTiiks8XqUNSH7rja5Bva+3r51pro57FXxpt82ks5fdYCcxsSb8WthVDr59yHZQQQQAABBBAIvwABZfhNKREBBBDwCuTI8e9AEA309CdY2vrfNs2fw5oUxz/lyJn+gJLPrVlXNXVq28Rndx0Cq0mvY5w1b7l3m17P2LxhdWl1Xk3pat3OQ4edOtMQa1bUU6dO/XuLEOsWIJr0ukbtxXzribu91ziOeuoeExR+NG2O6dHUfDqp0DBrplZ7Ep561c+WiSP7y20Pv2qCVM2jSWew/WjEA95hsA1qVpLx1vNbHxopL7471eTRntIxz99n3evyZfPc/hVq/ZQzZwh+drk8IoAAAggggEDoAknWxAee0LOTM54FDh48KIULF5bHH39cBg0aFM9NcU3d9c9TA4wBAwbIM88845p2x3pDl4zuIXuWfyWt7ngt1qsalvr9afVsLlm10dzLsUblcqlmYLUPoveLXL52ixQvUtBMGKQzvfonvV5T8/y+e69UPetMqVLxjIDBnt4iZcGy9eb1r9d1+k/m4yw31Po59wl1ef74RyQpf0lp2n9WqLtELN8LL7wgDzzwgOzatUtKly4dseOEs2DrC4jU346E8wCUhQACCCCQ7QL0UGb7KaACCCCAQGwL6Ayyev/G9JLeL1J7PNNKefPkkoa1KpuftPLprVN0JttQUqj1C6Us8iCAAAIIIIBAxgTSH0OVsfLIjQACCCCAAAIIIIAAAggg4BIBAkqXnGiaiQACCCCAAAIIIIAAAgiEW4CAMtyilIcAAggggAACCCCAAAIIuESAgNIlJ5pmIoAAAggggAACCCCAAALhFiCgDLco5SGAAAIIIIAAAggggAACLhEgoHTJiaaZCCCAAAIIIIAAAggggEC4BQgowy1KeQgggAACCCCAAAIIIICASwQIKF1yomkmAggggAACCCCAAAIIIBBuAQLKcItSHgIIIIAAAggggAACCCDgEgECSpecaJqJAAIIIIAAAggggAACCIRbgIAy3KKUhwACCCCAAAIIIIAAAgi4RICA0iUnmmYigAACCCCAAAIIIIAAAuEWIKAMtyjlIYAAAggggAACCCCAAAIuESCgdMmJppkIIIAAAggggAACCCCAQLgFCCjDLUp5CCCAAAIIIIAAAggggIBLBAgoXXKiaSYCCCCAAAIIIIAAAgggEG4BAspwi1IeAggggAACCCCAAAIIIOASgWSXtJNmOgQGDx4se/bscaxhMVYFPB5PrFbN9fU6eeyQrJ75nusdEh3gyP7dkj9/yURvJu1DAAEEEEAg0wIElJmmi78dk5KSJF++fJKSkiJvv/12XDXg1KlTkiOH+zrUNaBMTk6WXLlyxdX5SvTK5kjOLR7r72n78pmJ3lRv+/S1ePz4Cev1mNN1f4s5cvL3530hsIAAAggggICfAAGlH0giPy1YsKAcPnw47pp48uRJqVmzptx+++3Sp0+fuKs/FU48gdo93hb9cVNasGCBNGrUSCZMmCBdunRxU9NpaxYErC8iGGaRBT92RQABBOJBwH1dPvFwVqijj8DHH38sq1evlvvvvz8uA2KfxvAEAQQQQAABBBBAAIEEEiCgTKCTmYhN0d7Jxx57zNu0N99807vMAgIIIIAAAggggAACCGSvAAFl9vpz9HQEtHdy7dq1JpdeQ/n000/TS5mOGZsRiIRA/vz5pV69elKsWLFIFE+ZCCCAAAIIIBCnAgSUcXri3FBtu3fSnoxHJ+bR2WnppXTD2aeNsSZQvXp1WbRokbRtXVayqgAAQABJREFU2zbWqkZ9EEAAAQQQQCAbBQgosxGfQ6ctYPdOaiBpJ3opbQkeEUAAAQQQQAABBBDIfgECyuw/B9QggIB/76SdhV5KW4JHBBBAAAEEEEAAAQSyX4CAMvvPATUIIBCod9LORi+lLcEjAggggAACCCCAAALZK0BAmb3+HD2AQLDeSTsrvZS2BI8IRE9g69atcs8995jrKKN3VI6EAAIIIIAAArEuQEAZ62fIhfVz9k4mJSX5CNgT9Oh6nfH1yJEjPtt5ggACkRH4448/5LXXXpMNGzZE5gCUigACCCCAAAJxKUBAGZenLXErrb2TN9xwg7eBhQsXlqFDh0qePHnk+uuvlw4dOogGkx6Px8z4+uSTT3rzsoAAAggggAACCCCAAALRFSCgjK43R0tHQHsn7aSB5JYtW2Tw4MHyyCOPSI8ePWTq1KmyYMECufzyy002DSjppbTFeEQAAQQQQAABBBBAILoCBJTR9eZoaQho7+TIkSNNj+S+fftMIFmkSBGzx0MPPSTt2rUzy/Xr1zeB5cKFC6Vjx47clzINUzYhgAACCCCAAAIIIBBJgeRIFk7ZCGRE4NChQ/Lll1+KHUSmt68GllOmTJFt27all5XtCCCQRYEGDRrIsWPHJDmZfxtZpGR3BBBAAAEEEkqATwYJdTrjuzF6vWRmUrly5TKzG/sggEAGBPTa5dy5c2dgD7IigAACCCCAgBsEGPLqhrNMGxFAAAEEEEAAAQQQQACBCAgQUEYAlSLDL1ChQgUZMmRI+AumRAQQQAABBBBAAAEEEMi0AAFlpunYMZoCu3fvloMHD0bzkBwLAQQcAnv37pUxY8aYmZcdq1lEAAEEEEAAAZcLEFC6/AVA8xFAAIFQBDZt2mRu3TN//vxQspMHAQQQQAABBFwiQEDpkhNNMxFAAAEEEEAAAQQQQACBcAsQUIZblPIiItC+fXupXr16RMqmUAQQQAABBBBAAAEEEMicALcNyZwbe0VZ4LPPPovyETkcAggggAACCCCAAAIIpCdAQJmeENsRQAABBOTcc8+V2bNnS7Vq1dBAAAEEEEAAAQS8AgSUXgoWEEAAAQSCCRQsWFCaN28ebDPrEUAAAQQQQMClAlxD6dITT7MRQAABBBBAAAEEEEAAgawKEFBmVZD9oyLQpUsXGT16dFSOxUEQQAABBBBAAAEEEEAgNAECytCcyJXNAtOmTZPly5dncy04PALuFTh69KisWbNGDh486F4EWo4AAggggAACqQQIKFORsAIBBBBAwF9Av9DRiXm++uor/008RwABBBBAAAEXCxBQuvjk03QEEEAAAQQQQAABBBBAICsCBJRZ0WPfqAmULFlSChQoELXjcSAEEEAAAQQQQAABBBBIX4DbhqRvRI4YENi+fXsM1IIqIIAAAggggAACCCCAgFOAHkqnBssIIIAAAgEFypYtK88//7zUqVMn4HZWIoAAAggggIA7BeihdOd5p9UIIIBAhgTKlCkjffv2zdA+ZEYAAQQQQACBxBeghzLxzzEtRAABBBBAAAEEEEAAAQQiIkBAGRFWCg23wHPPPSfffvttuIulPAQQQAABBBBAAAEEEMiCAAFlFvDYNXoCQ4YMkenTp0fvgBwJAQQQQAABBBBAAAEE0hUgoEyXiAwIIIAAAosXL5ZixYrJlClTwEAAAQQQQAABBLwCBJReChYQQAABBIIJnDx5Uvbt2ycpKSnBsrAeAQQQQAABBFwoQEDpwpNOkxFAAAEEEEAAAQQQQACBcAhw25BwKFJGxAVWrVolhQsXjvhxOAACCCCAAAIIIIAAAgiELkBAGboVObNR4KyzzsrGo3NoBBDQ6yc7d+4sZcuWBQMBBBBAAAEEEPAKEFB6KVhAAAEEEAgmUKlSJfnkk0+CbWY9AggggAACCLhUgGsoXXriaTYCCCCAAAIIIIAAAgggkFUBAsqsCrJ/VARmzZol69ati8qxOAgCCCCAAAIIIIAAAgiEJkBAGZoTubJZ4JJLLpHXXnstm2vB4RFAAAEEEEAAAQQQQMApQEDp1GAZAQQQQCCgwNq1a0W/2JkzZ07A7axEAAEEEEAAAXcKEFC687zTagQQQCCggA4t37NnT6ptBw4ckK+//lp27dqVatvBgwdl6dKlqdazAgEEEEAAAQQSX4CAMvHPMS1EAAEEQhY47bTTpF69etKnT5+AgaWzIA0kH3vsMalSpYrky5fPuYllBBBAAAEEEHCJAAGlS050vDfz/fffl27dusV7M6g/AjEvULRoUenRo4eMGDFCSpUqJQMGDEgVWGog+fTTT0vhwoXl0UcflfPOO88ElTHfOCqIAAIIIIAAAmEXSPJYKeylUiACCCCAQNwK7Nu3T4oVK+atf/78+eWaa66Rr776Stq1aydTpkwRzWMnvb5SeylJkRV44YUX5IEHHjDDjkuXLh3Zg1E6AggggAACIQrQQxkiFNkQQAABtwhoL+Ujjzzibe7hw4fl3XfflZ07d4qOFti/f7/ZliNHDunevTvBpFeKBQQQQAABBNwnQEDpvnNOixFAAIF0BXr37i2FChWSpKSkVHntgS26bdCgQam2swIBBBBAAAEE3CNAQOmecx3XLT106JCkpKTEdRuoPALxJKC9lPfff7/YwaN/3bV38oYbbqB30h+G5wgggAACCLhMgIDSZSc8XptbokQJMzlIvNafeiMQjwJp9VLSOxmPZ5Q6I4AAAgggEH4BAsrwm1IiAgggkBACwXop6Z1MiNNLIxBAAAEEEAiLAAFlWBgpBAEEEEhMgUC9lPROJua5plUIIIAAAghkRoCAMjNq7IMAAgi4RMC/l5LeSZeceJqJAAIIIIBAiAIElCFCkS17Be69915p0aJF9laCoyPgUgG7l1KbT++kS18ENBsBBBBAAIEgAgSUQWBYHVsCw4YNkyuvvDK2KkVtEHCJgPZS9urVy7S2Q4cOzOzqkvNOMxFAAAEEEAhFIDmUTOTxFThx4oRs27bNd2UMPMuZM6eUL18+BmpCFRBIbIF/jhyXYyknE7uRfq275fb/k9dff10GPfKk7N1/1G9rYj9NzplDihTMndiNpHUxJbB37145cOBATNUpuytTtmxZyZUrV3ZXg+MjgEAAAQLKACjprdq+fbucffbZ6WXLlu2DBw+WoUOHZsuxOSgCbhH4bNZ6+XX1brc019vOtjc9LWN++FNEf1yUzj6jiPS5pp6LWkxTs1vg0UcflZEjR2Z3NWLq+C1btpQZM2ZI7tx8uRNTJ4bKIGAJEFBm4WVQp04dueuuu7JQQvh2Xb16tYwYMUIef/xxKVy4sPTt2zd8hVMSAgikEsidK6dcUPesVOsTekWjygndvECNW7Rqe6DVrEMgKgJvvPFGVI4T6we588475YcffpAuXbrIJ598QlAZ6yeM+rlOgIAyC6f8jjvuEP2JhfTdd9+ZgLJx48bSr18/U6VECiobNGggXbt2lQEDBsQCN3VAQHIn55RaVU5HIsEFVm92X090gp/SuGlegQIFYuYzRnajaUDZvHlzmTp1KkFldp8Mjo9AAAEm5QmAEs+r+vfvL+3btzdBpU5kkyhpxYoVsmvXrkRpDu1AAAEEEEAAgQwI6BfLOgrLDipTUlIysDdZEUAgkgIElJHUzYay9YL1MWPGJGRQmQ2cHBIBBBBAAAEEYkTgvvvuI6iMkXNBNRBwChBQOjUSZFkvWCeoTJCTSTMQQAABBBBAwCtAUOmlYAGBmBEgoIyZUxHeiiRaUKnXhlaoUCG8SJSGAAIIIIAAAnEnQFAZd6eMCie4AJPyJPAJtoPK7t27x/1EPbNnz07gM0XTEEAAAQQQQCAjAhpUatLbpTH7a0bkyItA+AXooQy/aUyVaAeViThRT0xBUxkEEEAAAQQQiKoAPZVR5eZgCAQVIKAMSpM4G/yDyuHDhydO42gJAggggAACCLhWgKDStaeehseQAAFlDJ2MSFbFGVTq/SkJKiOpTdkIIIAAAgggEC0BgspoSXMcBAILEFAGdknItXZQeemll0q8BZV6U+Px48cn5HmhUQgggAACCCCQNQGCyqz5sTcCWREgoMyKXhzuq0Hl2LFjJd6Cyvfee0/mzZsXh+JUGQEEEEAAAQSiIUBQGQ1ljoFAagECytQmCb8mXoPKhD8xNBABBBBAAAEEsiTgDCq7du0qKSkpWSqPnRFAIH0BAsr0jRIyB0FlQp5WGoUAAggggIDrBeygcsqUKUJQ6fqXAwBRECCgjAJyrB4inoLKpKSkWGWkXggggAACCCAQYwIElTF2QqhOQgskJ3TraFy6AnZQ2a1bNzNRj+7wwAMPpLtftDMcOXIk2ofkeAgggAACCCAQxwIaVGoaPHiw6amcMGGC6OceEgIIhFeAHsrwesZlaXZQGW8T9cQlNpVGAAEEEEAAgagJ0FMZNWoO5GIBAkoXn3xn0wkqnRosI4AAAggggECiCBBUJsqZpB2xKkBAGatnJhvqRVCZDegcEgEEEEAAAQQiLkBQGXFiDuBiAQJKF5/8QE2P1aDynXfekblz5waqMusQQAABBBBAAIF0BQgq0yUiAwKZEiCgzBRbYu8Ui0Hl3XffLXoxPQkBBBBAAAEEEMisAEFlZuXYD4HgAgSUwW1cvSUWg0pXnxAajwACCCCAAAJhESCoDAsjhSDgFSCg9FKw4C9AUOkvwnMEEEAAAQQQSAQBgspEOIu0IVYEuA9lrJyJMNXj4YcfllatWoWptH+LqVixouhP37595fjx4/Lggw+GtXwKQwABBBBAAAEE0hIYMWKE+QySVp7MbGvatKlMmTJFLr74Yvnmm28kOZmPxplxZB93C/BXkyDnPykpSXLlyiUrVqyQtWvXRqRVeozRo0dnS0A5Z84cKV26dETaRaEIIIAAAgggELsC+vlGv9B+6623IlLJHDlyyKxZs2TXrl1StmzZiByDQhFIZAECygQ5uxdeeKGkpKREtDWdOnWS1atXR/QYwQpv1KhRsE2sRwABBBBAAIEEFoj055tXXnlFevXqlcCCNA2ByApwDWVkfSkdAQQQQAABBBBAAAEEEEhYAQLKhD21NAwBBBBAAAEEEEAAAQQQiKwAAWVkfSk9TALLli2THTt2hKk0ikEAAQQQQAABBBBAAIFwCBBQhkORMiIuoNdQPv/88xE/DgdAAAEEEEAAAQQQQACB0AUIKEO3IicCCCCAAAIIIJAhAY/Hk6H8ZEYAAQTiTYCAMt7OWAj1ffPNN+XDDz8MISdZEEDg/vvvl6+//jpbIXb8vlXef/tl+fbLKdlaDw6OAALhFxg4cKBMnTpVIh1Y7ty5U1566SV54403Ajbi7bffNttXrVqVavuvv/5qtk2aNMls01uEBSsn1c6sQAAB1wsQUCbgS+CBBx6Q5557LgFbRpMQCL+A3sz6kksuEb3PanYFlmtWLpMnB98vH74f+INgWq0+9M9BeXboAPnwvYzvm1a50doW7/WPlhPHiV+Bjh07yhVXXCF6r8NIBpY5c+aUPn36yF133SUaXDrT9u3b5fbbb5fevXsHDBQ1ENVts2fPNrs9+OCDMmDAAG8Rn332mfTr1082bNjgXccCAgggYAsQUNoSPMa0wAsvvCBXXXVVTNeRysWngAaUdtLA8rzzzsu2wNKuR0YeDx8+JKNfGy7TJ3+ckd1iJm+81z9mIKlIzAroe0qePHlM/TSwrF+/fkQCy1KlSknNmjXNcX788UcfD+eXZc5lO9NPP/1kFtu0aWMeb7jhBrn11lvtzTJjxgwZNmyYbN261buOBQQQQMAWIKC0JeLs8Z9//pG//vorzmqd+erefffd0rx588wXwJ4IpCHw1VdfebcuWLDA9FjGWmB5/HiKnDp1ylvPjCzovqGmI1aAGigdPvRPoNWp1gXbPyN18C80I/sGO75/mTxHIJoCs2bN8h5OZy2PVGBpB4R2gGgf1A4iCxUqJGvWrJEtW7bYm+T333+XzZs3S3JysrRs2dKsHzFihOgXuRlJKSmhvUdpvvSSfsY5dCjwe5G9r74f/vnnnxEfSmwfj0cEEAgukBx8E1uiJXDbbbd5h5n4H1Pf/BcuXOhdrcNOHn74YVm3bp35cHnmmWdK//795d577zXDabwZHQt63YYOZfnyyy+lQYMG8tFHHzm2sogAAtpL2bhxY/O3dvLkSQNiB5ZNmjSRxx57TJw9mdEQ69K+qRQpWlzu6DVAnnm0n6xa8Zvkzp1HGja5QJ4f+b4UK15SvpgyQYY/NchUZ9mSBdKuaTV55qV3pH6j80Xb8dqLT8q0zz6SLZvWS8lSZeS8C1rJg488J6eVPt3bhO5XtzUfyO4b8Ji8/Nyj8stPs2Th2j+lm7W+Vt1GUqNWPfl47NuycvkSU5+OV18v/Yc8Y+qihQTaf/nWQ2Z7enWIVP3t43sbyQIC2SygX1C1a9dOvv32W/O3qdWxA8u6deua95jLL7/cDL3PSlUvvPBC0WDQGVDq36Eet0SJEtK3b1956KGHzCgMHQKryc6r74H6mUOTlnPixAnz2aRZs2ayfPlys7579+6iz/VzhLapePHiosNjtdwlS5aYnljdPnbsWClZsqTZR39pHZ544gkZN26crF+/XsqUKSOtW7c2vZ6nn/6/96P3339fHnnkERPw6mUIZ511lqmvfk6ykw7f1c80n3/+uRw7dszUWQPht956S5xl2fmz+rhp06ZUQ321jXnz5vUWrV/wL1q0yPtcF2rVqiWlS5f2rlNP5xcLuqF8+fJyzjnnePPowty5c32C6aJFi0rDhg198qxYscJnWLNa2V8m2BnVafXq1fZT86jnuHDhwt51Bw8elHnz5nmf68K5554rZcuW9Vn33Xff+QTu6lyjRg2fPPo/c9++fd51+fPnl6ZNm3qf64J+dnV+maHrWrVqZb7M0GVNu3fvNn8b/z7793e9evXM69ded/ToUfHvha9UqZJ5vdh59FGHcDu/wNDXpP69OdNvv/0me/bs8a7KlSuX94sVe6V+4aKvW2e64IILJF++fN5Vaq3mzqTnRM+NnXQoup47Z9Jzq+fYTvpFir4GnKlKlSpSoUIF56rYW7aCDVIGBaw3F52yzfPaa69lcM/A2e+55x6P9QL3+bH+EM0xrDdr7056PD1ukSJFPDfeeKPHemP3WENczLr/+7//8+YrUKCAp06dOua59Q2ex3ojNnmsYTYe69s8b76MLljfqHqqVq2a0d3Ij0BcCFi9lObvRP/GnD/WdUnmuRVYejSPpve/WOl58PWfPGt3nQjLz5tjp5hjNGt1kbc8K2D05MqV25OcK5enfMVKnksv7+wpffqZJt8FLduafGM/+86jy1rfosVKeNpeeoXnsxnzzbaWbS41688sV9HTqcuNnlp1G5rnZU4v6/lm7mrvcXS7HqdgocJmuxVsehau+dMs222vXquu55LLrjbH0GPpcey2B9p/5bYjIdUhUvW3j2/XMSuPT45d4Hlh/KKYeA0PHz7cnJddu3bFRH2oRMYErA+J5vw531902f47088BU6ZM8ej/betLYo/+L89o2r9/v8fqaTQ/Vi+f2d0+7rXXXuuxPjybOliXkHiL7tWrl1k3ePBg7zrrg7fHCjzM8zvvvNNzxhlnmDxWIOWxgkezXvPkzp3bev/I5bE+zHu6dOnisb7kNvkuuugib1m60L59e7O+YsWKnm7dunmsW4GZ51bg4rGCDJPX+qDtsa4z9VhBmOfmm2/23HHHHR4rCDb5xo8fb/KojX6WUTcrEPFYgaXHCn7NcysQMnky8+vll182ZWzbti3V7o8//rjZ5jxvVoDhk88aEpwqz8cff+yTR8+NswxdtiaF88mjT6pVq+aTzwpcUuW56aabfPLoOfdPr7/+uk8ePZ4V9PlkszosUuUJ9NlWz7Gz7j169PApR5/oa8OZJ9D5sOb48Mmj+a0g1KesCRMmpMpj9bD75LGC0lR5hg4d6pNHn1iBr0++yy67LFUe/WzrrPdpp52WKs9TTz3lk0fzW9cT++Szrl1OlccKZn3yvPfee6nyzJkzxyePNWlWqjzWcHOfPLH4hB5K61WR3WnkyJE+VdDZ1vTbNr2A33rxmW1///23DBo0yPrWP7f5hsv+hsUKbs03QK+++qq53sEKJL1l6XAQ/Vbv3XffFb2Po14D4fwWxJuRhZgU0Bn5rDdWc03Miy++6FNHvSennk876VAl7YF2pmnTpon1T9K5Sqx/MFK5cmXvOv22UIcTO9N9990n1puuc5Vceuml5ttqe6X21uk30s6kk0HY32Lrev3mVWcKdCadgfjTTz91rhLrA5ToN5l2+uGHH8w32fZzfXz22WfNdUf2Ov0G0/pSxX5qHq0PIHL99df7rLvmmmt8hobrN+rWhwOfPPpt+M8//2zW6bfz+u2g/u3YSb9Z16R/l3qNpX7rfHHX/5Pkkr7fztr5w/moQz3bX9FVnn35Heub/7yyZ/dOadPkHFm84BfzbXGTpi3l7MpV5YLaZaVK1ery2rsTzeG/nPap/PDdl2IFgvLRlB8kX/4CZv1zQx+UUa8Nk/fefEkeeeYVb1X1OJWrVpP+g5+Vpi3ayNEjh802bXu3W++VwU+OMM937/xdOrZpYGajXTDvR6u3tJlZ77+/fiMbah0iUX/nN8LeRmZhQV/XF43q7y3B+nBsJj/xrrAWrC/1fHoDzj77bNHXuzPp+/TkyZOdq0wvi319nW7QnoBnnnnGJ49eu+Z8b7cCylSvf32v19e7M1199dVy4MAB7yrtVdHXuzPpDKTz58/3rtJv8P1HsWhv05gxY7x5dEFnErc+eHnX6d+Hjp5xpiFDhvhcqqDDGK+88kpnFunatav07NnTZ53+LTu/6a9du7ZYwbRPHn1P0F43O+n/xunTp9tPzaO+t/j/f9WZS7Unw05r164V60td+6l51N6vDh06+KzT9zzn+4K+F+gEeM6k750rV670rrKCJ9H3cTvp+4/2RmlPh7Ms+z3G7rEsV66caJszk7T3SXs8fvnlF9PzpD2N9nBXbYO+f2nvkr7OtMdM/3fYPT3+PVz28fX/hvUB1ryerQ/tpmfR3qa9P/q6088q2mOnPTDqqz0suo/+LX7yySfyxRdfiPYyWR+exQqUze46ukr/l+n/N/3bePrpp42LnrPOnTubPPp3pdeF6mtSj6PnS3sCtXds5syZdjXM60iPo72k9ucj78YsLuj1pHrunMnZ86jrdfTXN99848xirJ0r9P+cfx79P+mf9P+mc7iv1Yngn8X8/9V62SnQe57+H3f+v9e82tPlTPrcv07aQ+mf9POFnk87BeoJ1vPo30Np57cftVdc/3acyX492OtatGiRqk762nEmvV7Yv97Ov2s7r/VFRKoeSnub/agjkHSUn520h9I/XXfddeZztHO9v4H1xUyquT7078uZrC9aUtXbvu7Zzqd///5t8z9vdt5YevRtaSzVzKV12bFjh3Tq1EmOHDliPlToEBhN+uLSIRX6gcD5ZqnDQfQftL7ha9e+/aFD/0FZ32CZYSf6z0X/8TqHOcQbb7FixcyHDjfNXqvBnp63QP9w/K+h9X/T0vOrQ0L8r7PVDxDOpM/98+h+/mnv3r3eYVq6TY/vn6xvX33KCvRP8PDhwz55tAznPyl9rh9Q/Ot0/Phx3eRN+mHMP4/+zfgn/SLGmU+H9/gnXWfncX7I889nP9e8hw7ul8Il/hd02tsi8TjoiRdNMKll61DVc6rVlKWLf5WdO7bJGWem/jCi+SZ+9J4+yA033eUNJvV5z3v7yujXh8uMLyf7BJS6rVe/R8Xq7dRFb9IvtfoOfNL73OohtQLMe+Tl5x+TX+fO9gaUmsF//8zUwT5QZvb1P75dVjge/f9OnB/27PI1cLNfR7pOhxf6p0Cvf/88gV7//n+3GXn969+lndJ7/Ws+nSnUP+nflrNtut3/b0X/Rv3zaFucKVC91cQ/6YdSZ1nOoNjOq+fAmUcDSv+kwyGdeXS7HbzZef3Pra7X/fyTluNscyivgUBf4OoHf//3PPtY9np93wr0PmznS+9RA0MNKHUoq39AqcfXobc6tFSHOupnBh3yp8HO+eefn17RAbfrDLH28E/9kK1Bq35JYfX2mf9f+qW2Jv3y0hk8aECpX5borUo0oLRf5/p5RgNqDb41cNThhvbr0jbSW5/olxwaZOoXMqNGjTKfmfwDvYAVzuBK/ZylP2klHfrbtq3v+6d/fv0/nV4e3SeU86Au/kNO/Y+nw1b9h67659EvUUOpU7AvG5zl+Q/LdW6zl/Wc+g/xtbfZj3oO0zuP+noLpd4anKaX7M/NaeXTL4f0J62kgXigYNy5j9XTL/qTVtK/kVDallYZ2bLN+uMkZVDA6hXUr2nCNuTVPrz1T9s7DESHtDrTk08+aY5pfZvsXG2WrW9AzTYdIqPJejGa51pH/bH+WDzWP3uzLSu/snPIq/UPwwxtyUr9421fa4p2j/XPP96qHbf1tXpGff5u7L8fHYKlyzrc2+qV8VgfeqI25DV/gYLeoaX2sE17KOuMn1aabT8t3W7q1+i85t68OkRW61yx0jke6xpInx9dr0Ps7PLsIavOYaK/bfx3aJZus/PZj6++86kpu/N1N5ttgfbXvKHWIRL1t+sajkeGvMbtn3TMVXzx4sXmPd1+b7Ef7fcY6wOr55133jH/rzM75FUb/f3335u/UStw9FiBsPl7188BdtL3MT22DnG1vrQ0y1bvpb3ZPDqHvOoKHX6q+2jZdtI8BQsWtJ96H+3hrdbkP2adDofVfa1AwgxX1SGr9o+u1/cjTTo0V8vTdfpj9fJ7rCDUo8NJrWDe5NFfVu+lN491DZvH+vDtsa4b9Vi9o948GV1Ia8hrRssiPwKREJg4caLH6umPRNFhKZMeSutdK1bSLbfcYobV6dAK/bbNmexvWQN9s2H3FjmHTem++g3HH3/8Yb591J49/+FIzvJZRsDtAjoUUL8Ft3swtHdOeyR0qIlu06F59rfk0bLKm/d/F/xn5Jj79/1tsp9xZjmr58C3DO1lzGG184TVo2Rdn2ny6Tfn9rLzOCVK/m9Io70+z3+TENhOuj7Q/qHWwS7X+RjqvnadAx3fWR7LCMSCgA4XdfZQ2u8xOgpFhwdb1xb6TE6S2TrrRCg6WYj2UuqlEfq3qsNd7aTD7vTYOru1/Z4WSg+Uvb/z0TkpiXO9c1l7XDVpO/3z68SCWgft4dbPPjoDrRVUm7ppL6d1PZ/50SHd9vBhvRREJ+TRIa5WgGtG8uhoHn2f1l7Z9HrunHVjGYF4EdD3D53MSi9BisVEQBkjZ8W64NdcI6DDE3T4h39wqNfjaNJhrf7XvOk/DU12Hl3W4Rl6PYkOZdE3aX0h6vU0Vi+LbibFgYBe26TX5JAiL6B/V7NmzTIHsj/kZWcgmdUWl694tixb8pfcfEdvsXo0fYrT6y9zW0PE7GDMZ6Pfk80b1/mtEdm8Ya1ZV/Hsyqm2OVdkpQ5Z2ddZB5YRiBUBvbZP/7drst9jwh1I2m3Vzw86A6UGWTqkVJPzujW9Tlav+dMZ5O0vhjIbUNrHTOtRr23TL8X1Onu9/tiZ9FpLra9et6bXsuvQW50vQn90qLMGjXrdnV5XqG3RYdubrSGw2j77kiCr59dcU6jBpebL6O1OnPVhGQEEMieQI3O7sVdWBPSifb343r4eQydp0DdPfSPVSQT0Gwj/pJPqaNI3TOc1J/qGq5OY6D8o55hrvV5SrynR/ayZp8w1IfoNn9Wv7V90XDy3Zqcz/wDjorJhqqReg6jf3pIiL2Dfe02PpIGkTjiiU3vrhfj2N/iRr0XWjnDy5P+uj61Tv4kp7NuvpvoUqhP1XHNZM3lu6ACf9cGeHNi/T777epp3c0rKMfnwvX8nmjmv2YXe9YEWMlqHSNQ/UL1Yh0B2CDh7CDWQ1F44vU5eJyDSHvZwJztA1Fs5WMNITQDmPIbWRz+D6AQ3er2vc24GZz7/Zfs6R//1aT3XWy9p0s83zqQT9Whvql5LqUm/9NZA0f6Mo59jbrLmgtAv2vWzi67XL8r1ntSvvPKKtyidsEXfqzUFurbVm5EFBBCImED438UiVtXEKFgvtLeHY+gwEH1z1mEu+mapF0frzHX+SWfq1MBQb4Ssb8itWrUS63oG882ifhtnz/gX7EJn6/pL0ftX6kxuOnzEf0Y7/+PF4nOdQY6EQCQEtHfSThpIZsfQVvv4mXksVqyEmXjnt0Xz5cVnhkjXG2+Ve+4fKFM+/UAmfDDK+rCay9y7cuP6NTLq1WHmy6e7+wwM+VD97u1hJvcpc2ZZmTxhrGxcv1rOb/7/7J0FfFTHE8cHTQgSNAQPXqxIkeJOcXeKBYoXd3d354+7FafF3doipcWDBg+BBnf572x417vLJblL7nJ7d7/J5+WerMx+9+TNm93ZMpQ7X8EwyzBXB1vrH6aSuAgCUUCAvZM8/YSFDUlrDW0NS3UOxqMJr/doHLSIDUpeF5KFr/ND6bCEjWAWHu1kKsp2WHnFXE0ZIJCHrLInkoML8pp9HOGV6+UH6ix8j8ORkdmLyfcpfI29urdv35YRYjngD+vNAVl4Gg+XJeZiEgfo0aIAG0fnDUsvXAMBELAeARiU1mNpVkk8f0IT9nzwMBBtDiR/SfPcAGPRjEw2qji8Oi+7wCHaNWHPo35odK5D36vCni4O58xePl7QmMNxhxdBSysbryDg7ATEWmHSI2lPQ1K7mYse/b8Im3xOO6/fB/qfbT7PQ1cb/Nials6fTnOmjqa8+b+nUuUq09Jf9lCP9k1p5eLZcuO0yby8aei4mcTLjWjC3xc8p9KUpM+YlbxTpqJ5M/570CWC/9DkOSt0uoWWP0lSL7N0sKX+ptqEcyAQ1QRWrlwZZYak1jYe0sq//RzlV3+4q3adp8Jo1zVvpnaNX/m7R/+7RqxbSdwOfjDND8Z52SZzv6N4iQdepoSXueBorryx8GgsfshdSjwkZ+GpPzdu3JBR7XnklSbsPdWWshGBi2R0V55zytNCNOFhs7z8Q/Xq1bVTeAUBpyKwYsUK+RBF1UbJEJKqKqeqXjx+n+co8hchDyeNauFQ3Dw3koexcGhtDlcdFcLLmfBTRd4gtifAwQl4nVFTNwO2r901auCRATzsS//GyZyWL9txiS75B5FvreChXObksXUaXqPyvVhPMkXKNDpjj+dHXfe7RP43r1HiJMno23wFxA9SyOUVjHV78/oV5c7gSd/mLUC/7Dgh17+8euWiXLaE17u0RMzVwZr6W6JfeGnX7zlLcWJFp24NDNdBCy+fLa7z3DBe+5BHpeChoC0I26ZM/gxY+h3D6y/ychvaA2fbaGZ5qWJBebmeNRujlgpz4Ck/vA4nr2FasGDBEJ5TLpPTiEXj5RJSHBuCl3UwfrjG3908uoTXK2XDlNfyi8xngofQ8jqCfH8V3lIblrYb6UHAFQjAQ+mAvcyLnvIGcW4CWhACba6tc7fWPq0z9ubbRwvr1MprVBoL38TyupW8RUa4bFPlm1OmuTqYKt/cvObogTQgYC8ClhqT9tLTnHrTpUtnTjKTaZgDr1HJW1iSPXt24i0s4e9u/bnvYaXFNRAAAdsTCHvQvO3rRw0gYBYBXohZGyZjVgYkAgEQAAEQAAEQAAEQAAEQsDkBGJQ2R4wKrEGAh7bwMBkICICA7QlEE/OnMmT6hnwyZLZ9ZagBBEAABEAABEAgTAJ+fn5yGlSYiex4EUNe7QgfVYMACICAigTc3ePQzqPnVVQNOoEACIAACICAyxHgwIE8X3jnzp1Kth0GpZLdAqVAgGRoeY7EBwEBEAABEAABEAABEAABVQnAoFS1Z6CXAQGO9JY0aVKDc85+YE7wAmdngPaBAAiAAAiAAAiAAAioTQAGpdr9A+2+EuAw4hAQAAEQAAEQAAEQAAEQAAG1CMCgVKs/oA0IgAAIgAAIgAAIgAAIgAAI6Aj06dOHPDw8dMeq7cCgVK1HoA8IfCXw5s0bevv2LSVKlAhMQAAEQAAEQAAEQAAEXJRAo0aNlG45lg1RunugnCsTGDJkCCVJksSVEaDtIAACIAACIAACIAACihOAQal4B0G9YAIDBw6k7du3AwcIgAAIgAAIgAAIgAAIgIBCBGBQKtQZUCV0AhMnTqR9+/aFngBXQAAEQAAEQAAEQAAEQAAEopwADMooR44KQQAEQAAEQAAEQAAEQAAEQMA8ArwuefXq1c1LbIdUCMpjB+ioEgTMIVCqVCmKFi2aOUmRBgRAAARAAARAAARAwEkJcJDG9+/fK9s6GJTKdg0Uc3UClStXJt4gIAACIAACIAACIAACIKAqARiUqvYM9DIgcO/ePXJ3dzc4hwMQAAEQAAEQAAEQAAEQAAH7EoBBaV/+qN1MAlg+w0xQSAYCIAACIAACIAACIOBUBKpUqUKenp7KtgkGpbJdA8VAAARAAARAAARAAARAAARcncCoUaOURoAor0p3D5RzZQITJkygb775xpURoO0gAAIgAAIgAAIgAAKKE4BBqXgHQb1gAlu2bKFz5865FI7AwEDy8/NzqTajsSAAAiAAAiAAAiAAAo5FAAalY/WXy2rboEEDWrRokcu2Hw0HARAAARAAARAAARAAARUJwKBUsVegEwiAAAiAAAiAAAiAAAiAAAgIAq1bt6bevXsrywJBeZTtGijm6gQyZMhAJUqUcHUMaD8IgAAIgAAIgAAIuDSBU6dOkbe3t7IM4KFUtmugmKsTaNeuHR08eNDVMaD9IAACIAACIAACIAACChOAh1LhzoFq/xHYvHkzpU2b9r8T2AMBEAABEAABEAABEAABELA7ARiUdu8CKGAOgYoVK5qTDGlAAARAAARAAARAAARAwKkIsFMladKkyrYJBqWyXQPFQAAEQAAEQAAEQAAEQAAEXJ3A1q1blUaAOZRKdw+Uc2UCa9asoWbNmrkyArQdBEAABEAABEAABEBAcQIwKBXvIKgXTODBgwf0/Plzl8Jx5swZWrFihUu1GY0FARAAARAAARAAARBwLAIY8hqJ/lq/fr3S45kj0TSTWbdt20aZM2c2ec3WJ9OnT0/t27enKVOm2LoqlA8CZhH48OkzXb392Ky0SOS4BN68/UhxYsV23AZAc4cl8OrVK+L7DIjtCYCz7RmjBucmAIMyEv174MAB4g0CAiDgegTevf9IO45ecr2Gu2CLE8eHQemC3a5Ek+vXr6+EHlACBEDAvgSmTZtG8ePHJ19fX/sqEkrtMChDARPW6ZQpU9LJkyfDSmKzaxs2bKCxY8fSli1biPWIanF3d4/qKl22vpgxY5Kbm5vLtl/lhlcpkp5K5UutsopW1+3169dUt25dWrRokdKLK1u94aJAt1gxbFEsygSBUAn06tWLmjdvHup1XLANAS8vL9sUjFJBIJIEFi9eLH97YVBGEqRK2WPHjk358+e3i0qnTp2S9ebKlYt4GCjEeQmMHj2aeIOoRyCJpzvx5koyatR0unDmKE0eM4g4YBQEBEDAdgR4iQCsvWw7vigZBEDAugQQlMe6PFGajQj079+fKlSoYKPSUSwIgEBYBF6+fEmTJk2SSTZu3Ei3b98OKzmugQAIgAAIgAAIuBABGJQu1NmO3NTBgwdTpUqVHLkJ0B0EHJbArFmzKCgoSOr/8eNHeM4dtiehOAiAAAiAAAhYn0C0L0KsXyxKtBWBDx8+0Pv378nDw4OiRYtmq2pQLgiAAAhIAuyd5KF3T58+Je3nIlasWHTt2jUMyYvi98jkyZOpR48e9PDhQ0qePHkU147qQAAEQAAE7EXg2bNn8r4/QYIE9lIhzHrhoQwTj3oX+UYubty4MCbV6xqra3T8+HFizxAEBOxJQPNOasYk6wIvpT17BHWDAAiAAAi4GgFPT09S1ZjkvoBB6WrvSLTXYQhs3ryZfv75Z4fRF4o6HwH2To4bNy7EAyw2LjnaK+ZSOl+fo0UgAAIgAAIgYCkBGJSWEkN6uxDIlCkTDRs2zC51o1IQcFUCpryTGgt4KTUSeAUBEAABEAAB1yYAg9LB+p/nLa1evZpevXrlYJpHTt27d+/KOVyRKwW5QQAEzCUQmndSyw8vpUYCryAAAiAAAiBgWwL79++nY8eO2baSSJQOgzIS8OyRde/evdS4cWN69OiRPapHnSAAAi5CwNg7aSoIGLyULvJmQDNBAARAAATsSqB79+40YsQIu+oQVuUwKMOig2sgYEcCXbt2pTNnzthRA1TtqgTYO9m3b1/ZfDYkY8aMSdWrV5fH1apVozhx4sh5leylnDdvHuZSuuobBe0GARAAARAAAUEABiXeBg5BoFy5cpQ1a1aH0NVaSqZMmZLy5MljreJQDgiYTWDq1Km6tL6+vuTn50cDBw6U55o2bUq3bt2Sy1doifr06aPt4hUEQAAEQAAEQMDFCMCgdLEOd9Tmbt++ndq1a+eo6kNvEHAYAuydnD17NjVo0IBu3LhBCxYsoPTp0xvo7+XlRRMmTKCAgAD5udy1axe8lAaEcAACIAACIAACrkMgpus01TlaysPNsmTJQilSpHCOBqEVIAACShHgpUB44r+xEWlKSTYs58yZIyMwc760adOaSoZzIAACIAACIAACkSAwc+ZMcnNzi0QJts0Kg9K2fK1eeqpUqYg3iPMT4Mi2Dx8+pPz58zt/Y9FCZQhkz57dYl3YsOQNAgIgAAIgAAIgYH0CxYoVs36hViwRQ16tCBNFgYA1CUyfPp0KFixozSJRFgiAAAiAAAiAAAiAAAhYlQAMSqviRGG2IsBLpSxZssRWxaNcEAABEAABEAABEAABEACBCBDAkNcIQLNnlufPn9Pjx4/lXCUO5e8qsnHjRkqePLmrNBftBAEQAAEQAAEQAAEQAAFJIDAwkKJHj05JkiRRkgg8lEp2S+hKrVq1ijJmzEh37twJPRGugAAIgAAIgAAIgAAIgAAIOAWB8uXLU5MmTZRti+u4uJTtAigGAqYJ1KlThzJlymT6Is6CAAiAAAiAAAiAAAiAgAIEYFAq0AlQIXwCnp6e5O7uHn5CJ0pRqFAh4g0CAiAAAiAAAiAAAiAAAqoSgEGpas9ALwMCvIA6BARAAARAAARAAARAAARAQC0CMCjV6o9wtWGP1ejRoylRokThpkUCEAABEAABEAABEAABEAABxybQtm1bihcvnrKNgEGpbNeYVixv3rzEGwQEQAAEQAAEQAAEQAAEQMD5CbRv317pRiLKq9LdA+VcmUDfvn0pVqxYrowAbQcBEAABEAABEAABEFCcAAxKxTsI6gUTmDJlCh04cMClcHz+/Jk+ffrkUm1GY0EABEAABEAABEAABByLAAxKx+ovl9W2X79+tHXrVpdtPxoOAiAAAiAAAiAAAiAAAioSgEGpYq+EodPSpUvJy8uLbt++HUYqXAIBEAABEAABEAABEAABEHAGAhUrVqSmTZsq2xQE5VG2a0wr9ubNGwoMDMRQSNN4nOpsgQIFqGXLlk7VJjQGBEAABEAABEAABEDAMgIPHz60LEMUp4ZBGcXAUR0ImEugXr16xBsEBEAABEAABEAABEAABFQlAINS1Z6BXgYE/vnnH0qYMKHBORyAAAiAAAiAAAiAAAiAAAjYlwAMSvvyt7h2Hx8fqlGjBnl4eFic15EzZMmSxZHVh+4gAAIgAAIgAAIgAAIgECECRYoUoUSJEkUob1RkgkEZFZStWAdPyuUNAgIgAAIgAAIgAAIgAAIg4PwEZs+erXQjEeVV6e6Bcq5MgL88ihUr5soI0HYQAAEQAAEQAAEQAAHFCcCgVLyDoF4wgWPHjtGNGzdcCsetW7fo+PHjLtVmNBYEQAAEQAAEQAAEQMCxCMCgdKz+cllty5YtSzNmzHDZ9qPhIAACIAACIAACIAACIKAiARiUKvZKGDrt2LGDqlWrRgEBAWGkwiUQAAEQAAEQAAEQAAEQAAFnINCrVy8aOXKksk1BUB5lu8a0Yv7+/rR9+3Z6/fq16QQ46zQEkidPTtmzZ3ea9qAhIAACIAACIAACIAAClhPYs2cPeXt7W54xinLAQxlFoFENCFhKoEePHnT+/HlLsyE9CIAACIAACIAACIAACEQZAXgooww1KooMgQULFlDWrFkjUwTyggAIgAAIgAAIgAAIgAAIWJkADEorA7V1cR4eHtLlHSNGDFtXpVT5P/74o1L6QBkQAAEQAAEQAAEQAAEQiAoCCRIkoLhx40ZFVRGqAwZlhLDZL1OzZs2INwgIgAAIgAAIgAAIgAAIgIDzEzh8+LDSjcQcSqW7B8q5MoEBAwYo/TTKlfsGbQcBEAABEAABEAABEAgmAIMS7wSHIDBr1ixS/emMtUF++PCB3rx5Y+1iUR4IgAAIgAAIgAAIgAAIWI0ADEqroURBtiTAEU83bdpkyypQNgiAAAiAAAiAAAiAAAiAgIUEYFBaCMzeyZcvX06pU6emO3fu2FsV1A8CIAACIAACIAACIAACIGBjAtWqVaOWLVvauJaIF4+gPBFnZ5ecr169onv37tHHjx/tUj8qjToC+fLloyZNmkRdhagJBEAABEAABEAABEBAOQLsSOKpUKoKDEpVewZ6uTyBhg0bEm8QEAABEAABEAABEAABEFCVAAxKVXsGehkQOHXqFCVOnNjgHA5AAARAAARAAARAAARAAATsSwAGpX35W1x72rRpqVKlSuTh4WFxXkfOkDNnTkdWH7qDAAiAAAiAAAiAAAiAQIQIFChQQGnHCgzKCHWr/TJVrlyZeIOAAAiAAAiAAAiAAAiAAAg4P4H58+cr3UhEeVW6e6CcKxOYN28elSlTxpURoO0gAAIgAAIgAAIgAAKKE4BBqWgHnTx5kl6+fGmRdrdu3SLenFGYh7+/vzM2LdQ2Xb9+nQ4ePBjqdVwAARAAARAAARAAARAAAXsTgEFp7x4Ipf4YMWJQxowZafjw4eEalmxENm/enMqWLUspUqQIpUTHPl28eHGaOnWqYzcC2oMACIAACIAACIAACICAkxGAQaloh/IahD4+PjRkyBDy9PSk8ePHS8Ny9+7dVKdOHXr06JH0RrZp04bSp09Py5Yto+7du5Obm5uiLYJaIAACIAACIAACIAACIAAClhLo378/jRs3ztJsUZYeBmWUoba8ojlz5shMnz9/pj59+lC6dOlo7ty5tHHjRurSpQtlyZKFFixYoCu4devWun3sOD6BpEmTUqZMmRy/IWgBCIAACIAACIAACIBAhAn89ttvdODAgQjnt3VGGJS2JhyJ8tlLWa1aNYoePbibgoKCaNOmTbLEtWvX0ocPH+jLly/yePbs2fBORoK1ill79+5Nfn5+KqoGnUAABEAABEAABEAABEBAEoBBqfgbYejQoTqjUTMeWWVtn43NlClTkq+vr+ItiZx6bDDXr18/coUgNwiAAAiAAAiAAAiAAAiAgFUJwKC0Kk7rF8ZeyqpVq+q8lMY18HDYgQMHOr13kg3mwoULGzcfxyAAAiAAAiAAAiAAAiDg1ATixImj9L1+TKem7ySNYy/l9u3bQ7SGvZPe3t5O750M0XCcAAEQAAEQAAEQAAEQAAEXIXDixAmlWwoPpdLdE6xcaF5KV/FOOkAX2UTFHTt2UN++fW1SNgoFARAAARAAARAAARAAAWsQgEFpDYpRUIb+XEquzlXmTkYBWmWr4GhevFwMBARAAARAAARAAARAAARUJQCDUtWeMdLL2EvJ3skBAwYoPZ7aqAmROnR3d6du3bpFqgxkBgEQAAEQAAEQAAEQAAEQsC4BGJTW5WnT0thLyYYkC0d2bdWqlU3rQ+EgAAIgAAIgAAIgAAIgAAL2JbB69WrasmWLfZUIo3YYlGHAUe0Seynz588v1XIl76Rq/QB9QAAEQAAEQAAEQAAEQCCqCIwbN47mzJkTVdVZXI9DR3kNeh1Inz5/srjRjpxh0qxx1KlTJ6rZsCo9fvnQkZtike5JUnlSdI/PEW5z9GjRKXFcL4vqtHdi9kj36dPH3mpEuP7XD+7Tl68e9QgXgozKEPj05DGliR+Poj9/Rq/u3VVGL1dSxO3Na9kH7wIe0quPH6zW9LgpUvLEfKuVh4KCCVx78i99/vIFOFyEQNK4HpRYLO3gKnL//n16/vy5cs3l1Q8SJkyonF7OrlC0L0IctZGzDw6hJy5kVDlqP6mgd5zY8ahnhUkqqOIyOuxv2ZQ+vHzpMu1FQ0HAUQmUXbqSYnp4OKr6yuqddtxUevb2nbL6QTHrEhhariR1K/q9dQtVuLRmzZrR8uXLldMwRYoU9Oeff1Lq1KmV0y0yCuXJk0cuFbhz587IFGOzvA7toWQqnh5JKXPyPDYDhIIdn8CtwIv06r16T9Ecn2w4LRDPqjzTpKUU3+YOJyEugwAI2IPAk2tXKfDKZXtU7RJ18tP6rN7JqUSWjC7RXldt5NuPH2n58T9dtfm0ePFiZdrOI7vu3r1LpUuXJo6U72xGpTKgTSji8AalR+z4lC5pdhNNwykQCCbw+MU9GJR2ejN4JElM3rlhUNoJP6oFgTAJvHv5AgZlmIQifzFFwgRUPHOmyBeEEpQl8PL9e5c1KNkb2KJFC2X6Zv78+RQ/fny6efOm0xmV69evp5gx1TXbMGlCmY8BFAEBQwLnz5+nTZs2GZ7EEQiAAAiAAAiAAAiAgEkCCRIkIDa+Hjx4II1K9lg6g2TOnJnSp0+vbFNgUCrbNVDM1QksW7aM6tSp4+oY0H4QAAEQAAEQAAEQMJtAsWLFnNKoNBuAHRLCoLQDdFQJAiAAAiAAAiAAAiAAAiBgGwIwKm3DNbRSYVCGRgbnQQAEQAAEQAAEQAAEQAAEHJKAMxmV586do8uX1Q2iBoPSIT8iUBoEQAAEQAAEQAAEQAAEQCAsAs5iVDZt2pS6du0aVlPteg0GpV3xo3IQCJ2Ar68vbd++PfQEuAICIAACIAACIAACIBAmAWcxKsNspJ0vwqC0cwegehAIjcA333xDlStXDu0yzoMACIAACIAACIAACJhBAEalGZAikQQGZSTgISsIgAAIgAAIgAAIgAAIgID6BGBU2q6PYFDaji1KBgEQAAEQAAEQAAEQAAEQUISAoxqVQ4YMwRxKRd5DUAMEHIrA8+fP6f79+w6lM5QFARAAARAAARAAAZUJOKJRWatWLapYsaKyWOGhVLZroJirExg5ciSlTp3a1TGg/SAAAiAAAiAAAiBgVQKOaFRaFYCVC4NBaWWgKA4EQAAEQAAEQAAEQAAEQEBtAjAqrdc/MCitxxIlgQAIgAAIgAAIgAAIgAAIOAgBGJXW6SgYlNbhiFJAAARAAARAAARAAARAAAQcjIAjGJV58+bFHEoHe19BXRBQgkC5cuVo8ODBSugCJUAABEAABEAABEDAWQmoblR++fJFafTwUCrdPVDOlQlUqFCBhg4d6soI0HYQAAEQAAEQAAEQiBICqhuVUQIhgpXAoIwgOGQDARAAARAAARAAARAAARBwHgIwKiPWlzAoI8YNuUAABEAABEAABEAABEAABJyMgIpGZe3atTGH0sneZ2gOCIAACIAACIAACIAACICAkxJQzajkmBpdu3ZVlnZMZTWDYiDg4gRGjx5N8+bNI39/fxcngeaDAAiAAAiYSyDgtj+d3LuXbpw/RwG3b1MiLy9KnSkzVWjyIyVOntzcYpAOBFyegGZU1qtXj0qXLk0HDhyg1KlTuzwXUwBgUJqignMgoACBp0+f0p07dxTQBCqAAAiAAAg4AoFj27bSzN496c3LlyHU3fy/udRmxEgqU69BiGvWOnFix2905fRpqti0KXmn87FWsWaVY8+6zVIQiRySAIxK87oNBqV5nJAKBEAABEAABEAABJQlcOCX9TStWxepX5UWLalcw8bklSYNnf/9BP2xcyftX7+WZvXuRSl80s3lT+IAAEAASURBVFO2AgVt0o6zhw/RrhXL6bsyZaLcoLRn3TaBiUIjROD48ePUs2fPCOUNKxN7KHft2kUFChSg0+KhScqUKcNK7nLXYFC6XJejwSAAAiAAAiAAAs5E4N2bN7R87GjZpLajRlOlZi10zStU4Qfi7c2rl3Tit19p/fRpNHj5St113uE17oIePaKESZNS9BgxDK6ZOvj44QPFEOmiRbc8tuOnjx9EfUQxY8UyKPrtq1fkHjeuwTnjg8+fPtGLoCDyFHpCQMCYQJw4ccjNzY1WrVplfMkqx/yef/jwIR09epTq169vlTLNLaSp8PonSZKEpk6dam6WKE0HgzJKcaMyEDCfQNasWemHH34wPwNSggAIgAAIuCSBQxs30L8BAZQ6c2aq+GMzkwx8Bw2hl2IqBQsbkNGiRaOXz57RvAH96PT+/fT6xXOKFTs25SxchNqMHC08mT4yLf/rXb0qxUuYkOp07ERLRgynGxcuUCy32JRdeDq7TptBCRInpn61a5D/5Ssyz9SuneW1HrPm0O87d9Cy0SOpUY9edPPiBdq7ZjWVb9SYmvbtT/dv3qRtC+bT30cOyf3kadJStoIFqVyDhlIPTYHnT57Q7L696a9DB4mNZ25ngXLlqVqrn+S80NDq1vLj1TUI7BVzh20p7JnMnz+/LasItexz586Rt7d3qNftfQEGpb17APWDQCgEWrVqRbxBQAAEQAAEQCAsAv5XLsvLxavXCNVrmEwEExmxdr2umLevX1OPyhVF4B5/ypwnL2XOnUcYhJek0datYnmasfcAcR6Wh/636PX5F8LwO0LJUqWi7ytWpMunTtKZgwdocqcONHTVGkr3TTYZBIgNU6/UaShJiuAhga9fvJDG4vwhg4gNQ/ZMJhCelvdv39LYn1rRbaE7l8lBg+5du0ZsHPNc0FmHjshyeD5ojyoVKfDePUqbJSulFQ9b2bDcNGc2XfzjDxq7eWuodesaix0QAAGbEoBBaVO8KBwEQAAEQAAEQAAEbEvg/o0bsoJkqcyPQLl53hxpTBarVp3Yk8geS5ZlY0bRxtmzaNHwodTnfwvkOf7Hw1w5becp0yi2GFYY9CiA2hYtTJfPnJYez3ajx8pXnkPZuGcvylWkqC4v77Ax2bB7D6rUtLkcsnp6/z5pTMr6Z87WGcJsZLJX8/KpU9Kg3DR3jjQm85UuQ4OWLJPpPrx/Tx1LFqcrou47V/0ovLoNFMEBCICA1QlYPvjd6iqgQBAAARAAARAAARAAgYgSYG8fi6fw/JkrR4UXkKVC4x91xiQf1/ipLb/QuRPH5av+v9bDR0hjks8l8kouPYM89/Hx/fv6yUzuZ8iZkxp266Gb/5jx229pwKKl1Lz/QJ0xyV5TbQ4nD21lOf7bdvnasFt3XToemus7ZKj0an58/0Fexz8QcGYCmcUwbx+9YeiqtRUeStV6BPqAAAiAAAiAAAiAgAUEUmXMSBf++F3OowwrGw9H/fzpM3nEi0cBYo3jGDFjUdbvvjPIwgFvkoi5Wk9E8BEOgBM/USJ5nQPmJEyazCAtz51k+fDuncF5UwcFRWAgfeGy0mbNQuwpvS7WzHwklsniwEA8v5OFPaa8z3ryftqs3+hnF8NuK8nN4CQOQMBJCaxf/99wdRWbCINSxV6BTsoQ0AIX2EOhFStW0NatW2ndunX2qB51ggAIgAAICAL2/B0wtwPYoGS5JYLehCYckKfld3nok4iUuuCPk8TDRtl4dBORMfWF28ueQhb2BGoS291d243Qq3E9ty5epJ5VK8mhtEnFEgy8lEmqjJnkfM3DmzfJOt4JPVhPNmaN80dICWQKQYD7m0Ub8hwiAU6AgBkEMOTVDEjmJOEP5N7f9tGUUVOpXeP29FODn2hk35G0e/tuc7LbNc21K9do+fwVdOncJanHreu35PGFfy7aVS97Vn7+/Hlq2bIlPX782G5q/PPPP/TLL7/YrX5VKubP1pYDB2jQjJlU4+fOVKVDR+oydhxt3LtPFRWV1eM3EUBj3MJF9OJV8M1haIruOHKUZq5aTbfuhT1s7eL1GzLd2a+RHEMrz9rn7whPCeu39cBBaxcdqfIO/Pkn9Zs6jXpOnBSpcpBZbQKPhNfM19eXLgoDSFXJkDOXVG3furXSq2hKz0ObNkrjLGOub0VkVG8ZGOeZ+I27KwLh6Mu969fp1fPn8np4y3jo57N0f+OcWdKYrNaqtTBwT1GvOfPk3EsO0KMJ189eUB5Wy8F79IWH7E7v3k3Oo9Q/j33LCLAh2a1bN/kAWzMuLStB7dTLli2j2bNnq62kE2gHg9IKnfjs6TNq36QDdfHtQgtmLKAj+4/Q8UMnaPWSNdStdXdqUasFPQ0KDtVtheqsXsTJ4ydp7KCxxK8sf5/+Wx7/cfQPq9eleoFsSOYU8zxy5col1/tJlsxweI/q+jubfkHPnlPNzl2ogQg3P2HxEtp17Djt+/0PmrduPTXu3YfK/9SG/hVh7yGmCWzed4CGzJpND8N5MPI/8eCCjaIL1w1vLI1LPXz6lEx3WIROj0o5d/WqrJf1tFTYmGaj73/rLc8bVl0nxXdF5fYdacqy5bT6tx1hJcU1ByeQPHlySpAgAeXIkYPy5MmjpGHJAXB4rUn2LI5v1yaEUckBblZPnih7orr43mTJIiK7spzat0e+av9O7gl+EJ6vZCntlMWv7AUNT26IYa4sRapU1SXlZUw4II++sOeS5dS+/x4ivhdDbBcMHkT716+lhEa/0+bUrV8+9omqVatGNWrUoOhiXVEeGeVMhuWQIUOoV69e6GYbE4BBGUnAH0TUsyZVmkgjMlWaVDRt0TQ6fO4QbTuylboP6k7pMqSjkydOUd+O/ZT9gGbInIFqN6pF2b7NHkkajpudDckGDRrQtyJIwAWxvhYLvoDs25/vxWerpPASsxGZTgyHWjtpAt0WNzpnN6ynUV06U6a0aenI6TPUcuAgZT9b9iVo/dq/SZ+emteoTnm/MZzLZP2arFfi67dvpNG3bpd1R4vwe49vuppWr0Yn16yynsIoSUkCffr0kXr9/fff8qFjo0aNlDMs240ZS/E8Penc8WPUuWxpmiSW81gs1owc5ducBjesJ9egLFW7DvHSIiy8LiR7p5aPHUMrxo2hI1s2i/3RtFzs89zKuj93keks+ZcsZbB3ce2UyXL5j7Dy8lIlLAuHDpFrU66dOpl6iSGw7CFl+fvIYRnBlSPGcqCeVRPH09JRI2UE2p5iuZOnjwPpuzJlideuZLGkbpkB/3QEypYtq9tnwzJfvnxOZ1jqGuigO+PHj6c5c+Yoqz0Mykh2zZola+mmGCLKhuOGvb9QucplKUmyJMRGWquOvjRl/mSKESO6NDjP/RX8NE6/Sr4hefTwkZwkr3/e1D6nZQPWWN6+DX8yPOd5Hcqwt0LFCtGIKSOoQGHzFms1pYOxTnz88cNHk/qaSmuvc/qGJA8v1Z7K9ejRg/iptD0ljpjXklAsJO2qwh4lv1v+0nD8Y/VKqlG6NHklSUxs1PRo3oxWjR9LMcTTVDY4T319CKDPivvyQWAgffr8Wf+0yX1OywassbwxI9AE53kn5vgYy2dRr6kyjdO9/DpXyfi8qWNz9TGV1xrnShUoQPOGDKbi3+ULtThzdJTfZR8/hlpGRC+YU7epss3pJy3fq6+RJ1+IIXgs5QsXppReXtpl3SuX+cGMNvL7M/Dff3X5QtuxRMfQysD5iBNIkSIFdekSbGDx+5fntvNoFpUMS466Onnnbir0Q0UKCnwkDcQt/5tLJ/fsoVhimY8O4yZQ12kzdBAyipE4/RYupjgiQM8vM2dIA3TDrJkiUmxSGrnuF0qdKZMubTTxXRsjegzdsbYTXdzf6Mv3lSpTmsxZ6NLJP2nbwuAlR7S5eVr0Vi19s379ySdbNrr2z980s1cPWjN5kliPMjVN2ParXP/yyNYtdEosVM/rWw5Zvoriid/DTXNny2VNbvtdke3sOnW6VhyZqlt3ETvhEtgrWGty7tw56bG0t2H5UqxB+urrd62mm6lXTvevGd+jpvI6yrlVq1bRli1blFUXQXki2TULZy6UJXTq1ZHie8YPUVrWHFmpfff29MexP+nu7Xv0bb5vZZrnYijfCDHH8si+w/Ti+UuKLSa+FyhagAaOHkBp0wc/bdu+YTvNnjSHfurcmi6cvUB7d+wTaV9QkZJFpPeT5zzOnTyXbly9IY3Ymg1qUrcBXWX5bGT+WO1HypknJ2XPlY3WL/+FLp2/RJ4JPalqnSrUY3APWScn3rl1lxyq26Jdc3Htv6EnsqCv/zgq3Nwpc2n7xl/p9s3blNQrKRUsWpB6DelJyZIHDwvlOaSTR04mZnH5whXauGoj1WlSR6eTfnn23mdDcsSIEcRRs/jHjm8QeGNxF4EHVPBODhs2jHhzVZm4ZKls+qB2bSlh/JCfrW+zZKH+bX6iQ2Io100x96+AuLljCRJzf7qKOZY7jx6jZ+JHxk18tkqIKIZT+/amjGnSyDQ8RHHU/+ZTb98WdPriJdqy/wA9F2nLfl+IRnXuTGevXKEx8xfQ5Zs3yUvM32kmvFAjfu4k8/K/4s1aUKyYMUX+ljRp6VI6/tdZafiy9863di3qMGKkHJr7WoTyz501C80fNpSyZcigy3/t9m2aIeYE8vBd3vdJlZKKiKF0LcST4RL5gyMuajqOFt7YfWLxbtaRh65yG9ig5nr0ZfnWbTRXDAU+L+ZDpRdzkKqWLGGWQaNfRnj7v4gb04mLl1CXH3+kRpUryaGezNFcHVm3XhMn02nxAICNv7ziZtK3Vk1qUTPYYxJe/frXzeGzfvduGjxjlszGdeasWZsWiL74Pve38kED9/GaHTvpuogumVwst1CqQH4a260reYtAJZr80Lad/G4Y0r4dDZ87jw6dPEVVShSnk18fYvSdMpWY/bZZwTfqCzZslH117K+/ZL78OXPI918v8V5xF+9FTR6L6JkdR46mPSdOEL9P+EEJl9upcSNK8XUIHxub5uiolYlX2xJgL+XcuXPpnXjv8gMjFjYs165dK0e4DBo0iLJnt+9IH6/UaajfgkXSG8nrM74UU3LSZMlMydOmMxl0pWD5CrTo1F/kf/kSPXnwQBqRKdNn0C3doRFd+tc/2q7BKy/7oS9shM7Yf5AC796luJ4J5KXSdesRb8bCBvCk33YRD33lobrpc+SUHlZON/fIMbon1tbk9rDkLl6clpw+S3fFsHyOPJtCfF4SJTN8kGOqbpkZ/8wiwF7KokWL0u+//y4DN3EmzbDkod58P8JDY7UHBGYVGsFES8XvKg9V9f8a4Te96O9+/fpR69atDUrcuHEj9e/fn66KaRH8mUwlfvt69+5NnTp1ksN3DRLjwKYEYFBGAi/PnQwMCBRDQ2JQxeoVQy2pfY/2xJsmb16/oXoV6tNd/7uUK28uafRdvXSVjh04RnXK1aUthzZTytQppfHof8OfhvYaJr19nPbli5e0f+d+OnvqLAU9CaK48eJS/u+/E/Me/5FGYYbM6alG/Rr0RXyw2OD0u3iF1gtjMJswKstXKU9/CsN2xYKV9ODeQ5q+eJpUKejJvzLtv49Df0resVknOiyMXx7WW61uVWHE3qRfhXF5SgznXbJxsTSCX4kbctZ3zMAx9K/QLVasWJQ4SSKt2Uq88nDW4cOHmzQkWUH+ouzYsaPdvZNKwLKjEjx3ko2nmGKYU90K5UPVZIAwKHnThL1HRZo0FQbmPWFg5qDvsueQBhbftBdq1ITOiPk2aYWn4dnLF9KQ4xt69iJx2ovXX9G2g4fo93/OEd/sx/fwoGL58tKf587L+ZtZfXzEQ5rgBy43xM3SExExsZ5YpDu+CBqRQ9xE/ePnR/2nTaepIjrvI/GZyieMJTZuT124KOaBdqUr27dKNdmQaiCGcF24dp3SiND8rWrXpiu3bknjbMOevfTPxl/kEF9NR99Bg6XBUVH80L99/472//EndRw1WhqohfPklmXOWr2GekyYKI3cksIoYo+pZpBrbKzxylw4IE+geGWxREceIlq908/0TnjufihaRBpX/DCgnVjXjg06fYPdHF3NqTt5YjFaJE1q+X6IIx4UZc+YQTxIiyWLr9O1m3zowMOp2Tj2E33AxuWRM2do9//m6R4+cKAi9nTXEn34XDwpZ2PTR9y0XPg6LC+1GMnAnnOW1b/9Rp1E3/D7tnyRwuQpPD8HhQHKbQ8Qi7rPHNBfpuN5nYXF+5SDDbFOOURkS36PTlq6TNT/Fx1askh+F5mroywU/2xOgL2U7dq1o+nTp+seQKpqWLI3T5t7GB6Y2MJ7mTl3HrmFl9bc68lSpzYraQzxYE4b+qqfgYfcps2SVf+UXIOSvZ/hibl1h1eOK15no7FcuXK6pmvzUU0ZlrpEVt7h4FccBItjWHBwRHa48Aiyn376ieKLh8s8PYmFh3926NCBPMUw78aNG0sDcufOnXIkwTXx8JI/p5CoIwCDMhKsORoqi3cKb/E0z3DYh7wQyr/FsxdLY7JSjYo0Ye4E3dOeySOnEHs8xw8ZT1MXTtXlZsNszW+rpVEY9G8QlfuuPLHxx0bsqGkjyT2OO61cuJJGDxhDf508Kw1KLfMnYUw2adWE+o/qJ08FPHhEdcrWoX3C23n6j9P0XaFgb4iW3tTrrm27pDHJRunyLcsojkdwiPFJwyfRItGWZfOW0cCxA3VZ2Zjs2LMDNWzRkBInDb7R0l200w5/KfKXkP4SHJpH0lilY8eOUcmSJY1P49hCAr28//PyWJiVrt72l1lSiZt1HtZqrnCAFDYm61WoIIdFaU9SB06fIQ2s3pOm0BoxD0eT2OKzdWTZUsrzTVZpIGauXFUOP6xbvjz9b9gQ8hBGyOw1a6n7+Al04u9/dAallr9xlco0rV9faRwNEMYkGwRsDLNBUEjMx/0o3nfpf6hE/mLRbzaQ2RhhDxcbk6zj0tEjdU9ROfAQR7PletjI0YTfu/vF0DH2qrGwh2+GGPryu4gCzAYlGznD58yVxiQbQpqRuUwEVmgzdLhWjE1fw9ORPW3dxo2XXsmlo0dRg4rB69FxX5Vs0ZImC24dGzU08Ayaq3BYdXdr1pSypvehdOV/EIZbRlo3aaIslg139mBzv+8TbON+XTaBHwiwLtNXrqJpfYPnzHEGHm6aLUN64YntQmUKFZTf2QnEg4QxCxZSn1YthWexhCyXDXuWk2vF9/VXjzQHFCrQoJE0LOVF8W+KiDrIxiQb1pumTZXvAX4I8G3tuuIBxjm6dOOm2G5YpKNWdkReK1euTO++jtCISH5XyvNe9JOp3w7NsFyzZg3x1rBhQ/r8bQFXQuPybZ03bx5t7v/f98bo0aOlx08DEyQexNWsWVM7lK8/itEebCjpC793HghvsSY87HTKlCnaoXxlw2///v26czxFho0pfeERWDNnztQ/Rez58xEPRzXh0Vr8EF1fMmfOTDfE9w9/t2qi7XP0eZ5jyWlSm/nQQCvD3NcxY8ZIbyPrXrduXZnt559/lkPMV69eLe/lmOXAgQOlsXnw4EEZLIsT3hSjiooUKUKzZs2iVq1aUe7cwQ9dza0b6SJOwPw7tYjX4bQ5332du5jIQi/cji3BH/q6P9bVGZMMiYecsvx5LDjaqjwQ/6rUriKNST5OlDgR+WT04V1q3q6ZNCZ5v2ipovxCmpErD8Q/jtilDYPlc8lTeAkDs7G8fOqEeZEaN63eLNOzgagZk3zCt5Ov1J+H4uoLG54dhEGpijHJuokBrWbP5/woPFY8TxRb5Bjovycs3X/z9bOVLFFCi7L+snuPTO9bu6bBZ6vLj03keY5Sqi8NKlWURgWfSyKe6GdOFzzcvEvTJtKY5PM8R45FM3Llwdd/Qzu01w1j/P7rD1fpggWlMclJ2FNVpmDwTSXPB2Vhz+UGEXxiVJefdcYke1Z5rjXLGzH8UV/YK6oZk3y+XOHv5WU2Oli2iaU0eGhvQ+Fl04xJPt+senXKqTcHiudqsnGjv7Hxaw0JT8czYlgxD3dlb149PY8zD81l450Nzl8PH46QKuHVbapQNrZZ2tarpzMm+ZiHEvNDCB5ebCyDhGeKh0RrDymMr/MxD5fdLuagacYkn3slRqTwQxEe1qqJtuTNwLZtdO8BHpo9vkc36bFmAzYiOmrlW/qK7zrzv+v498EckbEGYKSbg8pp0rDRpf9Z0h4y6DdQ/zrva4aafhrjexBTaYzrku83/ULEPtdvXJ/xwxA+Nk4T1necVgXnMdU+7XpkXrXPGHsg/cTIHxaOsHxLjCLRDOQ9YvoFz5ksKH5veTiuJjw0tlatWlK3wxH8TdHKUu2VhyJjDqVqvWIlfTTDLjDgUZgl8gePA+Kwp5G9iTzUNWasmJQn/38fAi6ADTA2+NiLqL/MiDanUqtEM+q8U3prpyimGDbCYvzFkyJVCgMjkNNkzhY8ZOSu/x0+DFdu3bgl07Bnda0IQqQv/GX07+Mn+qeozA+lDY5VOIgZIybxWHuO0MdP9jZv3ixvDI2/ELk9pUXwF46mZW85dOgQnTx5knr27GlvVSJU//4WP0YoH2fK4pNO5r0f+DjMMvjGm2/YY4nPE3sT2ePFcxvZO6gvycQ8SA6ccl+sJ6e/zIg2p1JL6/HVU8WGjyYxxZB2lo8f/3tay8dcnzbXjY81L1dq7//y8vkYwqhk+fQ5OD8Pj2RvGXtT/7p8WXgvH0jvpfZDb/xjbqwjG74s78TwVxYeLsqS38TcrVxinikbciw7jh6lpn37y33t31wRdj8i8xe1/NpreDpe++px5iHARX9spmWTrw+E55YlQAwTjoiEV7epMq/635anJwtPofFyItwPxkFy2JPN3sTwhOfBrtz+K9Xt1l30y13pmdYMSWGnSuHy+X3K/czvA33hwFO8sViqo345lu7zzVlMMcQbEj6B7t2702mxbI72edVy8MNbPldbDGEfPHiwjBieZtxU7TJeXYAAD7/sVjT4gZ+p5iZKlIiOHz9u6pLBOXPWn+apO7yFJTwqSxseGlo6XiJNX6cDYpRMmTJlQiTn3zG+v+Q5wkOHDpXv8+bNm+sMvhAZInGCg19t375demCzZs1KGcRoj4oVK0rvrjYcl4e0spgaTcYeXRbNGJUHTvCP43uoLBjyGone8fL2knMYHz0MlHMGQ5svOH3MdDk0tGWHFtShRwfiITNsPLJxqS/8Y/Ra3Byz8JhxTTzimv6h125UtXSmXk15Cd3juMmkPBzWHHn+NNiLwcapm3twXi2flzCAWQ+O6KqJ+9chsdqxSq88/IENy7Nnz8ovY1OGJT8B46A89l6D8tdff6WJEyc6rEEZmX5nQy2+eN/z3DWet5dU/BCbkqGz58ghijy0kedS8rBBNh7Z2NMX+dkSXkAWNg40iffVgNSOtVdT0Qy1a9qrZnxqx9preEN0ea5lsabN5TBKNlyLiGGrPD+T52XyHD5jieNm+Jkzvv70xQt56q1ou7Gwca1JSsFUG5qpneM5nNaQ8HQMEsHEWOKK7wbjiKjaMXsrIyLh1W2qzKcvgr/TuP1x3AzfK6wPe4t5bq3Gjz3N2r6p8rRzzfoNIA5cpD3UKJo3D+UXT9Y7jhylJSH2RvP7NJ4w4Izfp7pEYsdSHfXzYt82BB6KYcrsNdE3JjVDkr0imiFpm9pRKgjYngAbi5rxyLVp+9nEyBrNkDR+6Gltrb7//nu6IgLjLVq0SA7j/fPPP2n27Nly46A88+fP10V0Tak3PUTTgyO+sriF89uppcerdQj8d7dhnfJcrpRsObPRqd9P0dK5Sw2Glmog2NDasj54eBUvz8HGIRuePAfy5rWblD5Tei2pHK764tkLeT00I1KX2Mwdzbuon/zWdX95yEudmCNpfNLQs7PPqFnbplSibAmDLGdP/U2x3WJJj6vBBcUPeIhEaIblG3HDN2HCBCW8lIpjtKl6ubN+Q0dFgJRpK1aaDNjCN/wrxFNMFl7Ogm/Q2fBk7xIHuWEjTRM/f39xg/5CXud09hSeo8eeVY7mObFnD50qg2bM1O1bspM+dbAhxpFmtaG9Wn6OIKtJ0bx5iTd7SIavc23SCgOOh/vqC3uNb4k5phzlNKqE9fn32UXq3KQJVSxW1KDaP8QcIX6gZ44BqZ+RhzRvEGH32VP9z8YNlCp5cARKHmrMgXo04fcfe5k5qBMH9tEflsxRaXcfP0E/1alNttBR0wGvESPAI1fefh26DEMyYgyRS10C7J3Uhonaw5DUyLDH1EN8T/IcSd6ei5EtPB+0TZs2tHDhQvmgnb2WLKwve4b1hYeGsmhp9K9h33YEotuuaNcoufewXvJp9vL/LZdRT/VbzcbkwG4D6UngE8qSLTMVLh48F4ujtbIc3H1IPznt3xU8b6doacMbHINEFh6wgXrga7mclb2ja5askaWwgWuOaEud7N9pOK+Io742qdqEJg03vEE0p0xV0miG5RlhuPBEc+3JGxuUgcI7BrEfgXHdu8q5ZzNEgBRjzx0bkxxwhqOp8g05B0ph4WitLL8dPiJftX/bDx2Wu9p8SO28PV7/unRZVlu7XFld9TwUlAPyREQKfl0u5ciZ08TRQzXhaKwnxBBvFYSXTmHPMC/Rwl5nTXjIeYOevamMb2u5RIt23havHz/9N4pCW2KGo/rqCwfqKdnCl/pPna5/2qz9v8W6eOy54rI1Y5Iz8hBYDs6kL+y5ZNlx5KjuNHuYOVIvL0HiJaLT2kJHXWXYsZgAeye1wCj8O8EeSR7pwsMTvzUaYm9x4VbIwJHdf128SK79yOs/hrYd2rTRCrWhCGckoD/UlT2S/N7mIDx16tTR3RvZot0c1ZWjyGpTkLg+Xr7k9dc1mhMkSEAtWrSQQYCCR/K9pgLiITILBybS0vExG588XYgf+GjDY/m8M8iOHTuIjX5VBR7KSPZMjtw5qGUHX7lkR+8OfWjdsvVijmJm8cH4JIPrsBcyfoJ4NHLaKJ0Xr1MfXoLjCE0ZPYV46RE2Nq9c9KPFsxfJNG27to2kVobZ+3bqJyOueqfypq3rtkrP6PfFvxdrYgYbtoapQx61796Otv2ylX5Z8Yucq5mvUD5ZxqJZi+SHtl036+obUgPbn9EMS75BqCcCdfD4fHgpbc89rBq+E3M1uosgKRMWL6EWAwYSr+/HxiPPRTx86rT0QvKyDByNVfMmDRZrBbJRwN4+NtJ4OY/zIhANewU5Td/WvmFVGSXXeF1C9qBytNaf6tahe8JDt+rX33RzIfeLNScLfWveZ5MV5vmiPJSVg9qUE8OBWosfY15eZJxYsFx/aJ45jeszeSqNFZFLTQlHw42o8BDmrk1/pPGLFlOFNm3lOpZuwsBctm0bnRRRBtnDXNhG0fgSi5Dy7DU8KZZ/GTprtly/s/9PrSXzRZs2yfdFEWHg8bIh/D7hG5F+rVtZ3FQOtsR5D4v5dYNnzpLLjvCSIWvETQDLv+K7nh+MNBSBoPh9+qt4yDFMDNnm9ynruEoMcecHJOwx5XVJbaGjxY1CBh0BbV4932hzFFcVjEidcmKHYzXMHzxQ/5TJfR+hf8latU1es+fJN2KY4tqpU8hbBEarKKYEQKKWgL6hwoYkzwXWHrDbUhP2+HPAHRaO3JpQjN7gh/scMZejT3MEWv5e3SS+q2+LETd5xSgbXr6HN07HQWpKlSpFbdu2lXM82YPJD384em4WEUPAmYTX4fQWo3w4zoeKAoPSCr3StX8XuQ7j1FFT5PBXHgLLwh/GIqWK0IjJw0k/gE72XNlpxpLpNKDLQJo/fb5Og2TJk9GU+ZN1w2CjRQt2IBvPydLmd5mzVEn6jD6UXATvWTBjga6e/N/npwlzxssPabCewfVEF/OEgiWafNHq5XmYC39ZRH3a96bVi1fLjRMk9UpK3cd1owJFtNDohvmCy3Ks/2xY8gK5bFhOmjSJHouAIUnFUg/2EJ7HyWGvXVmGd+oob8wHCgORh7/yxsKfLY52ykFl9APo5P3mG1o/eZLwXg6VxovGjpfrWD1+nG4YbHTts6V7zwen1D5bPIcuLOEfuOhCB33RPi9aGfrX9PdHdf6Z/rniJ7x1F+n08IuyLSXz56clo0ZSkz59ad2u3ZRbtIPXwWThoUf6Ykq3hSOGSaObjemfR4+RyYuJwAS5RETVOWvX6Wc3ua/x0B8iq59Qa5uWLsSxGToOatdWPoGeLIIRaUNAuR/ZGJ43ZFCYNy/G9bJuunPh1M0PEnyFN2mmCDc/dmHwci6VihejHfPmSGZzxcL0vLEkT5KEpvfrSyXy/7ecEnezKeZav2j9zcGB2KvO3k02nFkSijXTZom1J+8Lr+zo+QuovVhzkw1KfjCyTUSDbS4elLARq0n10qXke5qPeS6wuTpq+fFqGwKPxEMf/i3goG6qGZLGLeb1G9vqzdk1vh4/lPnoxumi+vjtm9e0WXwmcxT6HgZlVMMX9bHBFpWGpNZEfaNV+07l5VZ42RIOFsbeRk34/oyXDdFkyZIlcskV1psDGGrC8yy1aLB8juvQytbS4NX6BKKJJ9hfrF9s1JQ4++AQih0zDhXJXC1qKgynlk8iCuRtETn1lvBK8vIe7KmMGy9uqLnevXtHVy9dpYf3AyhD5vTkk8HHovUsQy1YXHgjgvvkz1CAeHjtmh2rKTAgkK5duUZstGbKmimsrKFe+yyC+Fzzu063b96W8zxzCQ8nR65VXU7f3EMBz+9QzwqTLFaVh2Cw8QCxnABHeU0q1qrKKtZ2jKzwkMEbd+4Sz4VMKp5gsueRg/aEJjx88PzVa8L7FyCNyMzp0lm0nmVo5VrrPLeHh76+FvN1vxXDQROJIT0sPJSXo3umS5lCFzXWkjrZILx885bgk5EiGuTGkvoikpbnDvJwXJ5Hmj1jBoM1NyNSnrl5eB1QrpMfQGifaV6uhNd75Ei5ycSNNgfQ0Q/aZG7Z+ul4SO9lsRYaz+fNIaK4anUFPHkiA/Jo80k5D3+/sLeaIw9nSptWGrT6ZfG+LXTU6vA/dpRuHjpIZZeuRJRXDYqJ14j+DnCU13w+acm3aPB0FxNFW+3Ue3E/UV/EZIgnvh9XnLtotXKNC3or1r11F2uwhiWc5qP4rLEu4cmnjx/ESAqiF0+DqGW+PNKgHPWL6WG5XGZMM+853orhku5RNF/+pfi96bB8DQ0tVzLMKK/hsbDXdc0M0DfuzNGlWbNmtFfMG78v5sDbQngo7HUxz5ynavF8SA6qqH2f6td3R3x/88OeeGLEEj/wSSwextlKOMJzfvEAeO3atVS/fn1bVWOyXDao2UNpvN6oycR2OAkPpRWhx4gZg9gjyJs5whGocubJKTdz0kcmDRuSvEVG2CPKw3N5cxUx9eXlKm1XqZ0cZZOXEtGWEwlPN3cRVCV/juxyCy+tPa5ze7T5nvr1szeNjayIChslvKksHJCG13OMamEvtbGwp5W9hbxZS3h4r/5yMlq57P00Fv5+0V+z0vg6H9tCR1P14FzoBJztd+CeuEkf3aoF8bzLrtNmUJa8+WTjnz4OpKFNGtFn8XC8y9RplCZzFupbqzplyp2HMubMRbtXraAbYog6G4o8bLb5gEEUS3zXanJix2+0YtwYui8eqHDZScTNb632HalKi5YUTbzXWX7fuYOWjR5JjXr0opsXL9DeNaspW/4CdEssocRy9e+z1KFEUeo8eRp9I27cP4uHb+umT6XDYu7nA/HwJWEyL8olFq5vOWgwJfJKLvPwv0EN6skh/o179qLVkybSuePHaP31Wwb66RJjx4CApYakQWYbHvASJbyFJ2nE6BDeIPYlAIPSvvxROwiAAAiAAAiAAAhEGYFUwnP+XZmytHX+/2imiDQ9eedu6fmb178f3RJeoVJ16lLGXN8Se/nYgLx16RLt/rSCMoiAU4UrV5HG2vZFCylQrKfab8EiqffO5UtprsjvET8BlaxZSxqQZw4eoAViOPuDWzfpp+EjZbrXIto2G5zzxfnnwmvPHsfEwvB8J0ZrBIj1at3EfOc0WbJSLLdgQ3WUbws6vX8feaVOQyVriznnIr7B4c2b6MIfv9PIdRsohY+PLDdAjM74N+AhjRTz7l+/fCGNzejRxXh1CAg4CQFeLkV/SUHVmgWDUrUesZI+/DSQlyQxd2kQK1WLYqxI4Kb40b0r1iYsXry4FUtFUSAAAiAAAs5KgA22HpUrhtq8nydNIQ7M82OffsQG320RnXjdtKmUTiwgzx7GZGJJnTZGczDZS1ilpa/OKHwigp50+6Ec/bFrJ1388w9KK5Z4WiHmqLNxOGr9Bkr/NchKwJ3b1LdGdfpt6RIq37Ax+eh5m9iYbNi9B1USAXg8xeiBoMBHcshrWmFMakbqse3bpDHJhuzoDZt1Q1iXivnmm+bOlgZxW70leXhIbBoRiIU9p7mLFQ9zXnaogHABBBQloEW2VVQ9Ch6DoKp20CvCBNzd3Wj70W00btbYCJeBjPYlwAtolyxZ0r5KoHYQAAEQAAGHIcDG3wPxMDK0jYeissQWU266ieGuMcQw+w0iQNSs3r2kV7HrlGnkES++QXv5AXXTvv1153goKxuYLOwp/PvwIXop5kZnzpNXZ0zyteRp0lKhipXk8FdOpy9sJDbs1kMak/rn9ff3rVsrDys1a6EzJvlErfYdpLHIw2eNhYfS5ileAsakMRgcg4CNCcBDaWPAKB4EQAAEQAAEQAAEooKAJUF5eFhr3U6dxXIdk8Uw0Q9Uo007yvF9yABCyVKmMjDouB3pvskmmxMgAqVFE38sOU3kzZgreAmk+zeuyzTav4IVftB2Q329LwJmsbA3kofU6gsHknn25LH+Kekh/U7RJRUMFMUBCDghARiUTtipaBIIgAAIgAAIgAAIhEfg1fNnuiRvxNxDU8JDUo0ltru7PMURcF8I7yRLYu//guTIE+IfR3xliRnbTb5q/3iuZHjy8llwuclSpSKtPi0Pz7uMHj0GcZRYXiqFhb2t2r6WDq8g4CwEeAoUL3/Ca3CqKDAoVewV6AQCIAACIAACIAACNiTwj1g25tfFiyiuWLaIDcPdq1bS92KIar7SZQxqNfYu8kXNe5givViqxNNTpr/w++/Ew1P15cqZ0/LQO53l0adTpPOhq0/PUvXWbWQQIYNyxfINMUWEWRiQ+lSw78wEqlatqvSyIZhD6czvPrTNoQk0aNCAlixZ4tBtgPIgAAIgAALqEeBIqDN6dJNLbbQZMUoswzFEKjlDRH3l+ZD68ur5c/pzz27dqQ9iXUBtCOq3RYrJZUX44j9iqQ6O1qoJ18FGJs/BzF2shHY6zNdPnz7qrmfJm1fu/7F7l+4c73DU1z41q9HS0SMMzuMABEDAfgTgobQfe9QMAmES+O6774g3CAiAAAiAAAiYQ4CjvPaqViXUpB7x49GwVWtpweDBctmPvCVLyeU4OMNxEVX17JHDYvmPvtRz9lyDMqZ2/pkqNW9OSVOmpAO//EJ3xfId3xYrJtawzCsNxkJiTiQbfgPr1aEffmwq14/cI9aY5OitpcRyHynFwvRhSYJEieQ8Tb+//qKVImJshcZNqH6XbnRgwwbaIzynMcWw1mwFC8plQ3hOJRup9Tt3DatIXAMBEIhCAjAooxA2qgIBEAABEAABEAABaxPQFqfnKK9Xz/4VavHuHh505sB+2r9+rTTgOowdr0vbcfxE6ly+DB3dtpWKVa9BeUoERxnndSuTiHlbHA1WkxyFvqceM4INOz7XWUSHndW7Jx3/dTtd/fuslozKN2osliEZrTvW9Iwu5oLpCw9dLS+MyO0LF9D6GdMoq3iYmr9sORqxdh1N/rmjWHpksdw4T6JkXtR21BjKWbiIrggu17hM3UXsgAAI2JwADEqbI0YFIAACIAACIAACIGA7ArHEfMLNd+6bXYGptLwG5epLfroy3r5+Lfc94ieg4avXUdCjALp9xY8SJfciXi9SX3geZu+5/6PH9+/TrYsXyD1uXLHeZXbiqLP6UrpuPeLNlLQaMoxqiyVBPr7/ID2hnIYj0c7Yd5DuXPWjB7dukWeSJHJ5El7zUl/mHTdclkT/GvZBwBkIdO7cmeKKz5WqAoNS1Z6BXi5P4JN40sxbbHGjAAEBEAABEAABexJI5JWceAtLeEgsbxEVU+Wz55GXKdGWKolo2cgHAo5MwNc3eO1XVduAoDyq9gz0cnkC/fr1I/evodldHgYAgAAIgAAIgAAIgAAIKEkABqWS3QKlQAAEQAAEQAAEQMB+BKKLwDepM2WilGJpEAgIgAAIhEUAQ17DooNrIAACIAACIAACIOCCBGKLETIzDxx2wZajySAAApYSgIfSUmJIDwIgAAIgAAIgAAIgAAIgAAJRRKB06dLE65OrKvBQqtoz0MvlCRQpUoTat2/v8hwAAARAAARAAARAAARcmUBQUBC5ubkpiwAGpbJdA8VcnUDNmjWJNwgIgAAIgAAIgAAIgAAIqEoAQ15V7RnoBQIgAAIgAAIgAAIgAAIgAAKKE4CHUvEOgnogAAIgAAIgAAIgAAIgAAKuS4DnUCZMmFBZADAole0aKAYCIAACIAACIAACIAACIODqBKZMmaI0Agx5Vbp7oJwrE5g2bRp99913rowAbQcBEAABEAABEAABEFCcAAxKxTsI6rkugXv37tFff/3lugDQchAAARAAARAAARAAAeUJwKBUvougIAiAAAiAAAiAAAiAAAiAAAioSQAGpZr9Aq1AAARAAARAAARAAARAAARAgDp37kyDBw9WlgSC8ijbNVDM1QmkTp0acyhd/U2A9oMACIAACIAACLg8gcOHD5O3t7eyHOChVLZroJirE+CnUSdPnnR1DGg/CIAACIAACIAACICAwgRgUCrcOVANBEAABEAABEAABEAABEAABFQmAINS5d6BbiAAAiAAAiAAAiAAAiAAAi5NIFmyZJQ4cWJlGTj8HMo371/R7SdXlAUMxexP4NXbZ/ZXwkU1eBMURAHnz7lo69FsEFCbwMtHAWor6ATaBTx7Qcev3XCClqAJoRF4+/FjaJec/vyDBw9oxYoVTt9OrYGnT5/WdqP8dc+ePVFepyUVOrxB+fT1Izp5Y5clbUZaFyQQJ3Y8h2v1pk2biL9AZs+e7XC6S4WjRaOn/v5yc8wGQGsQAAEQiDiBaCLrpQcP5RbxUpATBNQm0LRpU7UVhHZRQiDaFyFRUpMNKnnyKoA+fXatJ0Pr1q2jkSNH0o4dOyhVqlQ2oOqcRUaPFp2SxkvhUI3r3bs3TZw4kT5//uxQemvKvrx7h4Ty2iFebURg//791LVrV1q+fDnlzp3bRrWgWGcmEDd1GooWHTNgrN3HlwMf0yfHvcWyCEfQv//S6RMnqFyVKhblc6bEyePFpaQeHs7UpDDbcufOHXr69GmYaZz1Ytq0acnT09NZmxehdjm0hzJJ3OQRarQjZ4r5IQ4F3PqXErolI6/4MCgduS+dXfd44iYVYnsCnxMmopvPnlP0pMkoXtp0tq8QNYAACJhF4JtkSc1K5wyJ+kyaSJs3b6ZOzZpSjBgxnKFJaEM4BNKkSUO8QUCACeCRJN4HIAACIAACIAACIAACESIQEBBA48ePJz8/P1q7dm2EykAmEACBsAnMnz+fVq1aFXYiO16FQWlH+KgaBEAABEAABEAABByZwLhx43TqjxgxwmGnaegagR0QUJDArFmzaNmyZQpqFqwSDEplu8a0Ym3atKEPHz6Qj4+P6QQ46zQExo4dS+/fv3ea9qAhIAACIAACzkXg/v37BoHjLl++TBs2bHCuRqI1IAAC4RKAQRkuIrUSRBeBE2LGjEnRRARNiHMT0PrauVuJ1oEACIAACDgqAeMHnzx/cvjw4eTA8R4dtSugNwjYlQAMSrviR+UgAAIgAAIgAAIg4HgEOMrn3LlzDYzHT58+0fnz52WAHsdrETQGARCIKAGHjvIa0UYjHwiAAAiAAAiAAAiAQMQJjB49mj5+DLl0m+alrFmzJkZTRRwvcoKAAQFeLlDlCMrwUBp0l/oHV65coSVLltDLly/VVxYaRorAqVOnaOnSpZEqA5lBAARAAARAwNoEbt26RQsXLjTwTmp1sJfy7Nmz9Ouvv2qn8AoCIBBJAilSpCAvL69IlmK77DAobcfWJiUfOHCAWrZsSYGBgTYpH4WqQ2DdunWyr9XRCJqAAAiAAAiAANHIkSNNeic1NuxJGTZsmHaIVxAAAScnAIPSyTsYzQMBEAABEAABEAABaxG4fv26HCnFgXe0AIH8qg3H4332UvIom507d1qrWpQDAiCgMAHMoVS4c6AaCIAACIAACIAACKhEoE6dOtJgZJ3ixo1LnTt3pidPnlCiRIkoSZIkNGbMGPr333+lypUqVTI5LFal9kAXEHAEAidOnCA3NzfKly+fkurCoFSyW6AUCIAACIAACIAACKhFgOM4/P3331KpIUOGUJcuXaQhqa9lu3btaObMmdSvXz95eu/evVSuXDn9JNgHARCwkED79u3J29tbWa8/hrxa2KH2Ts5R044ePUo8ORfi3AQ6dOhAR44cce5GonUgAAIgAAIOQ2DWrFly/uTTp09p6NChIYxJbki8ePGob9++9Pz5c5mWjUsICICAcxOAh9LB+pefTvAGcX4CPj4+xBsEBEAABEAABFQgMHbsWPLw8DBLlfjx49OAAQPo2bNn9OHDB4oVK5ZZ+ZAIBEDA8QjAoHS8PoPGIAACIAACIAACIBDlBMw1JvUV8/T01D/EPgiAgBMSgEHphJ2KJoEACIAACIAACIBAVBHo1q0bsUdy+PDhUVUl6gEBlyIwYcIEGZRH1UbDoFS1Z0LRKygoiB4+fEiZMmXC8JFQGDnL6UePHsnIedmyZXOWJqEdIAACIAACTkjg0KFDlDRpUidsGZoEAmoQKF++vBqKhKIFgvKEAkbV02vXrqXs2bPT3bt3VVURelmJwMSJEylHjhxWKg3FgAAIgAAIgAAIgAAIgID1CcCgtD5TlAgCIAACIAACIAACIAACIAACLkEABqVLdDMaCQIgAAIgAAIgAAK2IZAkSRJKmDChbQpHqSAAAvTy5Ut69eqVsiQwh1LZroFiIAACIAACIAACIKA+gT179qivJDQEAQcmUKxYMbls4M6dO5VsBQxKJbsldKUKFy5MkyZNosSJE4eeCFecgkDVqlWx5qhT9CQaAQIgAAIgAAIgAALOSwAGpYP1be7cuYk3iPMTKFGiBPEGAQEQAAEQAAEQAAEQAAFVCWAOpao9A71AAARAAARAAARAAARAAARAQHEC8FAq3kFQDwRAAARAAARAAARUJrBw4ULy8PCgRo0aqawmdAMBhyXQrFkzih8/vrL6w6BUtmugGAiAAAiAAAiAAAioT2DWrFmUNGlSGJTqdxU0dFAC3bt3V1pzDHlVuntCKrdo0SLy9PQkf3//kBdxxqkIDB48GGHYnapH0RgQAAEQAAEQAAEQcD4CMCgdrE/fv39Pz58/p8+fPzuY5lDXUgJv376VfW1pPqQHARAAARAAARAAARAAgagiAIMyqkijHhAAARAAARAAARAAARAAARBwMgKYQ+lkHYrmgAAIgAAIgAAIgEBUEti+fTtFjw4fRVQyR12uRaBWrVpynvL8+fOVbDgMSiW7JXSlMmbMSPXr16e4ceOGnghXnIIArzdar149p2gLGgECIAACIOC8BFKmTOm8jUPLQEABAjdv3qQ3b94ooIlpFWBQmuai7Nny5csTbxDnJ9CkSRPiDQICIAACIAACIAACIAACqhLA+ARVewZ6gQAIgAAIgAAIgAAIgAAIgIDiBOChVLyDoB4IgAAIgAAIgAAIqEzgzz//pFixYlHevHlVVhO6gYDDEuDPVuLEiZXVHwalsl0DxUAABEAABEAABEBAfQLt2rWTAUN2796tvrLQEAQckMDixYuV1hpDXpXunpDKcSS1ChUq0MOHD0NexBmnIrBgwQL64YcfnKpNaAwIgAAIgAAIgAAIgIBzEYBB6WD9effuXdqzZ4/SkZ4cDKmy6vr5+cm+VlZBKAYCIAACIAACIAACIODyBDDk1eXfAgAAAiAAAiAAAiBgLoGFCxfioa4RrMDAQMlk5syZRlfUPYwZMya1aNGC3N3d1VUSmoGAgxCAQekgHQU1QQAEQAAEQAAE7E+gb9++9PjxY/sroqAGP//8s4Jaha7SypUr5UggGJWhM8IVNQgMHjyYPD09qUePHmooZKQFDEojIKofxo8fn9KlS0f8ZA3i3AQSJUok+9q5W4nWgQAIgIBjEfj8+bNcD3rRokWOpTi01RE4cuQINW7cmI4dO0a1a9emjRs3wlOpo4MdFQls3bqVvL29YVCq2DmOqBMWu3fEXouYzv369SPeICAAAiAAAuoQiBEjBqVJk4ZSp06tjlLQxCICyZIlk+lbt25NHAAPRqVF+JAYBEIQQFCeEEhwAgRAAARAAARAAARAwNkJVK1alcaNG0c7d+6URuXbt2+dvcloHwjYhAAMSptgRaEgAAIgEDUEokWLFjUVoRYQAAEQcEICvIYmjEon7FgnaxJPdePREaoKJuKp2jPQCwRAAARAAARAAARAwOYE2Khk6dOnD4a/2pw2KogIgVOnTkUkW5TlgYcyylBbp6KTJ0/SoEGDKCgoyDoFohRlCezatYs4qhcEBEAABEAABEDAtgTgqbQtX5Tu3ARgUDpY/54+fZpGjhxJT58+dTDNoa6lBPbt2yf72tJ8SO+aBL58+eKaDUerQQAEQMBKBGBUWgkkinE5AjAoXa7L0WAQAAEQAAEQAAEQAAFTBGBUmqKCcyAQNgEYlGHzwVUQAAEQAAEQAAEQAAEXIgCj0oU620Gaun79evr111+V1RYGpbJdA8VAAARAAARAAARAAATsQQBGpT2oo87QCIwaNYpmzJgR2mW7n4dBafcusEyBZs2a0YMHDyht2rSWZURqhyPAwZfu37/vcHpDYRAAARAAARBwBgIwKp2hF9GGqCCAZUOigrIV6/Dw8CDeIM5PIH78+MQbBATCIoB1KMOig2sgAAIgEDkCbFSyYEmRyHFEbucmAA+lc/cvWgcCIAACIAACIAACIBAJAvBURgIesroEAXgoXaKb0UgQAAEQAAEQAAEQAIGIEoCnMqLkkM8aBFavXk2xYsWyRlE2KQMeSptgtV2h/v7+tH37dnr9+rXtKkHJShC4dOmS0hG9lIAEJXQEsA6lDgV2QAAEQMAmBOCptAlWFGoGgWzZslGmTJnMSGmfJDAo7cM9wrXu2LGDqlWrRgEBAREuAxkdg8DixYtlXzuGttASBEAABEAABJyfAIxK5+9jtNByAjAoLWeGHCAAAiAAAiAAAiAAAi5KwNiofPfunYuSQLNBIJgADEq8E0AABEAABEAABEAABEDAAgL6RmWtWrUIRqUF8JDUYgKXL1+ma9euWZwvqjIgKE9UkUY9IAACIAACIAACIAACTkOAjUoWXlKEjcpNmzaRm5ub07QPDVGHQMOGDcnb25t27typjlJ6msCg1IPhCLsVK1akzZs3U/LkyR1BXegYCQLNmzenokWLRqIEZHUFAliH0hV6GW0EARBQlQCMSlV7BnpFJQEYlFFJ2wp1+fj4EG8Q5yeQI0cO4g0CAiAAAiAAAiCgLgEYler2DTSLGgKYQxk1nFELCIAACIAACIAACICAkxLAnEon7Vg0yywC8FCahQmJQAAEQEBtAliHUu3+gXYgAALOTwCeSufvY3u1sH///uTh4WGv6sOtFwZluIjUSvD27Vt68eIFJU6cmGLEiKGWctDGqgRevXpFr1+/pmTJklm1XBQGAiAAAiAAAiBAVKNGDZssFp80aVLidcMbNWpEGzduBGoQiDSB+vXrR7oMWxYAg9KWdG1Q9pIlS6h9+/Z048YNSp8+vQ1qQJGqEBiQA4fWAABAAElEQVQ2bBhNnDiRPn/+rIpK0AMEQAAEQAAEHJ4AP6itWbOmTdtx5MgRunDhgk3rQOEgoAoBGJSq9AT0AAEQAAEQAAEQAAEQsDmB3LlzyyU+bFkRez/9/PxsWQXKBgFlCCAojzJdAUVAAARAAARAAARAAARAAARAwLEIwKB0rP6CtiAAAiBgQADrUBrgwAEIgAAIgAAIOB2BAgUKUNWqVZVtF4a8Kts1phXLmzcv9evXjxImTGg6Ac46DYHSpUtTzJj4iDpNh6IhIAACIAACIAACIBABAh8+fKCPHz9GIGfUZMHdatRwtlothQoVIt4gzk+gUqVKxBsEBEAABEAABEAABEAABFQlgCGvqvYM9AIBEAABCwhgHUoLYCEpCAgCz549I16KCwICIAACIBA5AjAoI8cPuUEABEAABEAABByQgLu7O5UqVYqmT5/usIYlL0sxbdo0+uuvv3Q98Pz5c5owYQK1adOGDhw4QPfv35dp9u/fr0tj6x1Tetm6Ti5/3rx5tGrVqqioCnWAQJQSqFatGpUrVy5K67SkMhiUltBCWhAAARAAARAAAacg4ObmRs2aNaMuXbpQnDhxHNKwPHjwIHXt2pX4VZNGjRpR7969af78+XTx4kW5bjWnWbt2rZbEqq8bN26kXr160fXr13XlmtJLd9GGOz169KDx48fbsAYUDQL2ITBixAjq2bOnfSo3o1YYlGZAUikJP3nLmDEj3b17VyW1oIsNCIwbN44yZcpkg5JRJAiAAAiAABNo1aqVDgQblj4+Pg5lWGbLlo18fX0pX758sh089P3QoUMUN25cOnr0KLVs2ZJSpkwp05QoUULXVmvu7N69myZOnEi3b9/WFWusl+4CdkAABJySAAxKB+tWHspy48YN4mhPEOcm8OTJE9nXzt1KtA4EQAAE7EeAvZSzZs3SKRAYGCg9lvYwLNkYNPe3/dWrV1LnMmXK0MKFC6lkyZLy+PPnz8TXUqdOTUWLFiUPDw/KkCGDTNOkSRNdO7WdT58+0aNHj7TDUF/fv39vtm5ciLFe+gVzO3kYLtdtjrx588acZBFKYwnzCFWATCDgIgRgULpIR6OZIAACzkkA61A6Z7+iVVFHgL2U7MWLHj06sUHGElnDko25LFmyGMxt5HLZOMqVKxflzJmT3r17x6fo3Llzcm4ULwfGnsXChQtLA1Be/PqPDTReSurIkSPSWIsXL57Mv27dOumdXLlyJe3YsYPy588vc1y9elWe37RpE509e1bujxo1Slckt6927dqUIEECSp48OWXPnp369OkjDT1dIrHDcxIrVqxIiRIlIk9PTznndMiQIbo5p8WKFaM1a9bILDx8mIfbsujrJU+If0FBQdS4cWNZVqpUqWRbuexr165pSYjbwdw2b95MHTt2lP3CRnHmzJnlEF5dQjN32GBkzzOXqenGWcNjvnPnTpmnYcOGIWri+alcnv6DiBCJcAIEXIwAlg1xsQ6PiubyE1b+EteX2LFj6x/KJ5PGTydjxYpF+jfH/MNuvOYOr8vIP/r6wk9O9YWvG6/faKwT18P16QvXpd1MaOcjorepJ54xYsQg3vTFHL3102MfBFQlYK3PjoqfeVM6GX9XWfMzb/xdxX0eke8hU3obf39GVG9bfn+aozczMef705hlaHrzeTam2PDQhPVg0QzL0aNHU//+/WWgGy1NWK+5c+emOXPmSMOK14/W5LfffqPz589T9erVib2jPDyVl4di45JfOVAQB9Jp3bq1NLTGjBkjs968eVMae7ywOY9USpEihfwtZP04IA97GXk6TNq0aaUByYZiunTpZHkvX76UaXhhdJYXL15Iw5OHqObIkUMat7t27ZJzDw8fPkzHjx+Xv8UrVqygdu3ayd/TH374QRqUrBvrHBAQQHPnzpXGMevGEXPZq8ueURZ9vfiYvaZs7PIIq4IFCxLrwkYd18t8mAnr+/TpU2JjuGnTpvT69WuqXLmyNF737t1Lbdu2lYYvG+vmCL+/OTDRggULpEE9c+ZMmc0c5mwo37t3T84L5aBNXl5euirZI8w6FilSRHcOOyBgawI8tD1x4sRyeLmt64pQ+eIDB3EgAlu3bv0inlR+efDggd21Fj/oX/bt2/fF39/fQJcqVaqwNanbxJNfg+t8MGzYMN11La34cTNIJ54Qhkizfv16gzTiiWeINGLSskEaPsiaNatBuuLFi4dII56uGqQRN3Eh0ognkgZpWPczZ84YpDt58mSINOKH1yANHwgD0yCdmOtikEY8GZZ9bXASByBgRGD79u3yfSRuBI2uRN2h8HQYvJfFj16IysWcYIM0/Nnx8/MzSCcCeYRIs3z5coM0wsMTIk2nTp0M0vCBuKE3SCduYEOkETebBmlYJ/GgyyCduHkMkebEiRMGacSNcYg0U6dONUjDB8L7ZJBOeExCpOHvd+07kV/FcMUQafr162eQhtMJg8IgnfDwhEizbds2gzT8O6JfF+8PHDjQIA0fCCPFIF2FChVCpKlXr55BGuHNCpFGzLMzSMP1Xbp0ySCd8MCFSLNkyRKDNPzbY6x3+/btDdLwgZhXaJCOj42F8xmXFdYx/55x28TNnXFRBsf8HuFyxDx4g/N169aV50Ugmy/iQcwX4a2UxyI+gi6dCG7zRXgN5W+EGBoqzwtjTabLkyfPFzFn8f/snQe8E0XXh4/03ntRmmBBEVTAgtiwIIqIggU7KGLHLljxfRW7WLAXFLFgQURRLCii4msFRFEBK6KgCAjS77f/4duY5BZy703ZTZ75/ZJsmZ0580yy2TPnzJk8T+F1xz0lyR2/9dZb3b7KVL3RbfWZ6vuudMUVV7g8ngIb+b57y6fk+XV4yp3Lp9+MyvIitrp9vX3xxRfumGcxjBzzFD13zIsiGzkWL9fVV1/t8vTv3z8iuzJ7irw7rnuIkn+dFyQpb/r06e6Y3rygQi6fZx2MHCtoQ78x/fb1O9Z/quRXO/SsoFQc5vp96vro/++ZM2e6Y55Ft6DqY455gwZ522yzTcwxdiBQUgL6XnsDOyW9POXXYaH07hZhSgobrFcQkkYS99tvPzdaoshqfpKLiB8gQMeqV6/un4p8KjiA96cW2deGRlSjk0Zb4/Noon900mhufJ6CRi+HDBliS5YsiVyqkdD41Lt3bzdC6h+PtyjquEZY4+tr1KiRf4n7lOtUfJ5oHn5m78EtxiIaPYqtPBpZ1YsEgUQIeP8WiWRLSR5PmXCWDr9wRcyMTxrNj/9daLQ1Oul3GZ9H7oHRSVa2+DxdunSJzuK29dtZtGhR5Lhc7OKTN/jl3P2ij8taFZ28B/h89cWXJetFvEyywsSnSy+9NMayFt825ZdlJvoeJlfD+CT3x3gvDLkFRidvEC2fTHIbjE5ym4yX25+LF53vnHPOcRYo/5juzfGpb9++5j08Rw7L+hafunbtmq++evXqxWRr3rx5vjyy9kUneaHEy10Qb1n5PKU5cqnuzfFJVkHJIAuf3DsLStGusMOGDTNPOSooW8wxtVVukd6giXlKmKkNshROmjTJ1SdL4yeffOKsdGqzp2hFrtecx379+tmdd95p3iBAzP+ANxhrPXr0iOQtycb48ePdZXJd9T1+1F+eUmpy9fStvwq0o3U65Q7rJ7VB/42yHhYn+RFmBw0aFOOJNHToUFMAOkWFjU4nnnhijAXQG8Qwb5DGRa2NzlfQtryfTjrpJPMGo9x/tqyb/vNFcZgPGDDAxo0bZ95AtrOOqi5tK+kcCQIQiCKQcpWVCrKWgEbEva9SnkadSRCAQGYI+BZKz40rMwJQKwSygIAsh55y5f7T9L+ml78vq6S8U2TFU6pfv/5mLZTKd91117lyfKuvNz/Q7XuutTqdJ+u76pFVTRbF6Jfn0urOXXvttS6vrIfympF1Njr5Fr1ELZSybHrKY543cJLnKYfRReXblpXvkUceyZOlTRY5b9DCySSZPdfWSP7NWShVjur0XMXzPNfXyHX+hjdA48r1Bn0jFsr454qPPvrI5SnIqu+Xo894LwBZdTzX50iW4jDXdd5gkbMUey68rgxZHMXu+++/j5RZ2AYWysLIcLwkBIJuoYydjObdJUgQgAAEIAABCEAgVwhoLt9zzz0X8RjxrXbyPlHgFc37k5dLQVbXohjJ2iyLt28R9IPXaCkPJQWpUZKlWFbv6Je8YeSNJGuln2SVjp/7759L9FNzGTVf01O8XATYoq5TEBvJqmA/suKqPZqPWJD3TlHlyJqpOmVtj7ekew/Wbn6lro/mW5CXQ1F1xJ/TAvA77rijsw5Hr0tZHObiLcuxLJ4KEqR5nl9//bVpfmVBXk7xMrAPgWQSaNmyZWSOcjLLTVZZuLwmiyTlQAACEMgxAnIXlEvc216gDhIEwkpAbqRSbKT86VNRTzUlQdFfo5Wc4rZPAXL23ntv9/vQmpAKQCMXat+F13cdVj4vPkJM8QoIo2A38dM8YjKVYEfKq5RDTQGRghTtdi23VLm8KviNlD+5d0rxlBLlB9uRy6sC9RQnqU7PquvcilVWtGv03LlzXSAenVe+ZCQ9eMu1WK7Gcj32rLwml2y5gReXuVxb5XqsQQF//W/cXZPRS5RRXAKK2BzkhIUyyL1TgGyaC6Cw24qglumkOQleIAHTPCQSBCCQewS0BEIq14jLPaK0ON0EfOuk6vUtklLkSmKRLEh2LaWhpDUgNTfRt07qmJRLRfD9+OOPY5brUIRZKUBe8DjzghYpa1KTLGxKUrr8pIEhRbn1AiA5hVpLjUi51vxkX5lU3jFjxuSLvu6XoWjPhSV/jqvnoh+TxVekFUW2uEnPQeq/6HmyKkPPJuKqSLJe0CVnHdV8WrWnuMwlt+YeewEI3RxbxW3Q/FYSBCAQSwCFMpZH4Pe0XpMmiWuUMNNJI7dyiYkebcy0TNQPAQhAAAIQSJSArFdSEhRoJ5mKpF+/NzfTuXlqiQ4pOVIs/aQgQQpoJ0VHa0wqKJAUOgVdmjFjhvuMDtDkX1faT7VZbqsKbHTxxRe7oDhysdVSIFqmQxa+nXfe2QXsUbAcLZfy8MMPO5dXL6Kyq/6PP/5wA8rakYVVSeVqqZGCks7JAuxFKHbl6TnG35Ybr4IdFTfdcsstzq1VQX0KS1p7U0usyEJ8zz33uHUti8tcFkkpywrypeB9Wi+UBAEIxBLA5TWWB3sQgAAEQkVAD2kkCECg+AQU2VXKm5Sg0ri2FlWz3Di9JTFcHYrsWrdu3ZjscreVRdJbDiPiSqrftOZPar1D//etz4LmLvrzPf1zyqdj/r4qi88jN1e5tkq5Vb1+Ovzww90cSe17y52YFDYpnP5amFKkpPTKHXfEiBFurUx5TKl9XsAhp7TJ0ikFLL5ORTrXPERZaP3yVI+UPbnW+gPT8dcpj1J0ezYdyd8uHY/n5C3xYrfddpsp+rwUWCn4iTL36xEnRcRVUpRaEgQgkJ/AFt7ImCJnkUJCQAsJy4VDQQI0ikiCAARym4AWSpfbuRbr1nI86Ux6qNTi8bI+kCCQKwS0TIyv8CWrzZrT+Nlnnzm32O23395atGiRrKILLUeKrOY0ytoot874JbB0obcOpnO71RzH9u3bRxRFWesU4Mefk6i83prUznonJa6wJIVTbqqajyglUkurFKQsFnZ9Mo8nylyBfDSvVn2iOZ++kr85WWTN1LIxqXBb3lzdnM8+AhoY0QBVUAc1sFCG7DunqGOaJO+P4mVSfI1FKHqb3HhKG3kuk+2gbghkA4FMjA3GrwWYDRxpAwQyQUCBckq7vmRx5dZzRPQakwVdL7fcgtbvLEj5TCTyqdyLNbdRr0ynRJnff//9buBMwYoSVSYz3Tbqzz4Cjz32mBv0CapCyRzKkH3nNLFc8ycTuXGnumka3dNoyahRo1JdFeVDAAIQgAAEIACBtBGQO3D37t3dXFNZpYsb3TZtglIRBAJAAIUyAJ2ACBCAAAQgAAEIQAACwSGgqLwzZ850gX+eeeYZ5x0WHOmQBALBIoDLa7D6A2kgAAEIQAACEIAABDJMQJFnSxJ9NsNiUz0EMkIAhTIj2KkUAhCAQPgJDB061M0t0sLfJAhAAAIQgAAEUkNg2rRpgYifUljrUCgLIxPQ44qO9tZbb7nQ21q8N5OpcuXKbiFkhQMnQQACuUfg008/dYuG517LaTEEIAABCEAgfQSqV6+evspKUBNzKEsALZOXTJ8+3c477zwX5juTcqhuBeS5/fbb3YLMmZaF+iGQqwSIOpirPU+7IQABCEAAAsEggEIZjH5ACghAAAKhI5CJpUpCBwmBIQABCEAAAllOAJfXLO9gmgcBCEAgVQS0Pp0iIZIgAAEIQAACEEgdgSlTppjWce3WrVvqKilFySiUpYDHpRCAAASCQiAT1sJx48YFpfnIAQEIQAACEMhaAhdddJE1atTIJk+eHMg24vIayG4pXKh+/fqZAvM0bdq08ExpOrN06VLbYYcd7LHHHktTjVQDAQhAAAIQgAAEIAABCASJABbKIPVGArLUqVPH9ApCWr9+vc2ePduWLFkSBHGQAQIQgAAEIAABCEAAAhBIMwEslGkGTnUQgAAEIAABCEAAAhCAAASyhQAWymzpSdoBAQhAIM0EHnjgAduwYYMNHjw4zTVTHQQgAAEIQCB3CIwePdoqVKgQ2AajUAa2awoW7LfffrMFCxZYx44drWLFigVnStPRcuXKWdeuXa1x48ZpqpFqIACBeAKZXIfyiSeecFFeUSjje4V9CEAAAhCAQPII7LbbbskrLAUloVCmAGoqi3zhhRfsjDPOsPnz51vLli1TWdVmy65du7Z98MEHm81HBghAAAIQgAAEIAABCEAgOwkwhzI7+5VWQQACEEgLgUxaSNPSQCqBAAQgAAEIQKBIAiiUReLhJAQgAIFwEMjEOpThIIOUEIAABCAAgXATWLRokS1evDiwjcDlNbBdg2AQgAAEgk1gwoQJhiIb7D5COghAAAIQCD+Bgw46yBo1amSTJ08OZGOwUAayWwoXqnv37vbggw9avXr1Cs+UpjMrVqywgQMH2uuvv56mGqkGAhAIEoFatWqZ5lKTIAABCEAAAhDIXQJYKEPW99tuu63pFYS0evVqe+ihh5w8BxxwQBBEQgYIQAACEIAABCAAAQhAII0EsFCmETZVQQACEIAABCAAAQhAAAIQyCYCWCizqTdpCwQgkHMEMhll9b333nNzKLt165Zz3GkwBCAAAQhAIF0EhgwZYlWrVk1XdcWuB4Wy2Mgyf4GCYGTyITKaQFDkiJaJbQhAID0ELr/8clu/fr29//776amQWiAAAQhAAAI5SOC0004LdKtxeQ109+QX7t5777UyZcrYggUL8p9M85H69evbxo0b7YILLkhzzVQHAQhAAAIQgAAEIAABCASBAAplEHoBGSAAAQiUkgDLd5QSIJdDAAIQgAAEIFAiAiiUJcLGRRCAAAQgAAEIQAACEIAABCDAHEq+AxCAAAQgUCICN9xwgwvKU6KLuQgCEIAABCAAgYQI9OjRwzTV7Mknn0wof7ozoVCmm3gp69MalIMGDbLq1auXsqTSX651KB9//HHr0qWL7bjjjqUvkBIgAIFQEdh9991DJS/CQgACEIAABMJIYPHixVa2bNnAio5CGdiuKViw7t27m15BSCtWrDBFnbr55ptRKIPQIcgAAQhAAAIpJ7BhwwZ7+OGHTZ8kCBRG4KWXXrJ27doVdprjEMgqAiiUWdWdNAYCEMg1Aizdk2s9TnszTaBRo0Yu2vrkyZMzLQr1B5hAvXr1TC8SBHKBAAplLvQybYQABCCQAgJ//vmnK7VOnTopKJ0iIRBMAl9++WUwBUMqCEAgawl069bNateuHdj2oVAGtmsQDAIQgECwCRx++OHO7W/69OnBFhTpIAABCEAAAiEmcOeddwZaepYNCXT35Bfu+eefd0FwFi5cmP9kmo/UqlXLZsyYYccee2yaa6Y6CEAgnkAm1qHMRJ3x7WYfAhCAAAQgAIHMEsBCmVn+xa79999/t48++sjWrFlT7GuTfUH58uWtc+fOyS6W8iAAAQhAAAIQgAAEIACBkBDAQhmSjkJMCEAAAhCAAAQgAAEIQAACQSOAhTJoPYI8EIAABEJC4MQTT7SNGzeGRFrEhAAEIAABCISTwNChQ01Tza688spANgCFMpDdUrhQdevWdWs+VqhQofBMaTqzfv16mzNnjjVu3Njq16+fplqpBgIQCAqBgQMHBkUU5IAABCAAAQhkLYG33nrLtGRRUBMur0HtmULkOuqoo+yLL76wpk2bFpIjfYeXLl1qHTp0sDFjxqSvUmqCAARiCLAOZQwOdiAAAQhAAAIQSDMBFMo0A6c6CEAAAhCAAAQgAAEIQAAC2UIAhTJbepJ2QAACEIAABCAAAQhAAAJZR0DzJ2vUqBHYdjGHMrBdg2AQgAAEEieQiTUh5YKvesePH5+4oOSEAAQgAAEIQKBYBKZOnVqs/OnOjIUy3cRLWd/06dPtnHPOsT/++KOUJZX+8mrVqtmoUaNsn332KX1hlAABCISOwKJFi0wvEgQgAAEIQAACuUsAhTJkfT9r1iy78847bfny5RmXvHLlynb22Wdbp06dMi4LAkAAAhCAAAQgAAEIQAAC6SeAQpl+5tQIAQhAAAIQgAAEIAABCEAgKwgwhzIrupFGQAACEEg/gV122cXNoUx/zdQIAQhAAAIQyB0CjzzyiFWtWtX69esXyEajUAayWxAKAhCAQGIEMrkO5W233ZaYkOSCAAQgAAEIQKDEBO644w5r1KhRYBVKXF5L3LWZuXDgwIG2cuVKa9GiRWYEiKp1yZIlbrREX3ISBCAAAQhAAAIQgAAEIJB7BLBQhqzPy5UrZ3oFIWm5gFWrVtn69euDIA4yQAACEIAABCAAAQhAAAJpJoCFMs3AqQ4CEIBAKghkYh3KVLSDMiEAAQhAAAIQCBeBYJi6wsUMaSEAAQhAwCNw1VVXOQ7XXHMNPCAAAQhAAAIQSBGBiRMnWtmyZVNUeumLxUJZeoZpLeHbb7+1J5980v7++++01ltQZRUrVrRjjz3Wtt1224JOcwwCEMhyAm+++abpRYIABCAAAQhAIHUEmjdvbk2aNEldBaUsGQtlKQGm+3I9vJ1xxhk2f/58q1atWrqrj6mvRo0aNnbs2Jhj7EAAAhCAAAQgAAEIQAACuUMAhTJ3+pqWQgACEMgaAop2vXHjRtceLZ0SP8C2du1aW7NmTUx7tYZXmTL/OuZs2LDBBRaLzlSpUiUrX7589CFbsWJFzH6FChVMHhrRKVoeHZdrUpUqVaKz2OrVq23dunUxx6pXrx6zr/PKF51UTrSrk9qt+qKT5JFc0UmeLNFza9UutS86KbCaOPhJfMQpOomjeEYn8Y5eskbB2f7555/oLFa5cuWYIHKSJd67JhGWCkSnsqKT6ooOCJfu70AiLIP4HUiEZRC/AwWxDMN3oCCWmb4PJPIdKOj3lOn7QEHfgXiWBcmdyv+C+PtAQfe4RO7NJe2T6Htixre9xpNCRGD06NF53pcmz7NQhkhqRIUABFJFYMqUKe6e8Prrr6eqikLL7dGjR94BBxxQ6PlUnmjYsKFrt+6HderUyVfVyJEjI+eVR69vvvkmJt/UqVPz5Xn88cdj8ngPrfnynHXWWTF5tLPjjjvG5OvcuXO+PIMGDYrJI5k85TAm34MPPpgvzwcffBCTZ9asWfny3H777TF5tOMphjH5jjnmmHx59t1335g8rVq1ypfnsssui8kjuRcvXhyT74UXXsiX5+WXX47Js3Dhwnx5rrjiipg82tlyyy1j8hX0HTvqqKNi8tSsWTNfOTfffHNMHsn91VdfxeSbNm1avjyPPvpoTB7vQTpfniFDhsTk0U7Hjh1j8u2888758gwePDgmj2TyBhFi8nkLmOfL895778XkmTNnTr48t9xyS0we7XieRDH5vEXR8+XR71hy+C9vWbJ8eYYNGxY57+dbtGhRTL6XXnopX54JEybE5Pntt9/y5bn88stj8minZcuWMfn222+/fHmOPvromDzeIEe+PN5auTF5JPvs2bNj8r3//vv58jz88MMxebzBi3x5Tj/99Jg82tlll11i8u2000758px55pkxeSSTpxjF5BszZky+PO+8805Mnrlz5+bLc+ONN8bk0U7t2rVj8vXt2zdfngMPPDAmj+demS/PlVdeGZNHcv/yyy8x+SZNmpQvz/PPPx+Tx1tyLl+eSy65JCaPdtq0aROTb++9986X57jjjovJ4w085cszatSomDySe+bMmTH5Pvzww3x5HnjggZg82tG10S9vKb+YPD/++GPMeeX1YgzE5NGO57oak69nz5758vTp0ycmT7169fLlCdIBLJReb5MgAAEIhJVAtJUo3W3wlNh0Vxmpz7eYjRgxIp/1Spm6detmOhed6tatG73r1vONz+M9AMbk0chxfJ5dd901Jo92PCXTvIflyPGC5rr07t3bPGUpkqegDU8JyVef5s5EJ0+Zzpdnt912i87itr0HwBjLYvv27fPlOfnkk22fffaJHPcePiPb/oancOSztsZbXzWXPp5T27Zt/SLcp6yx8XnUT/HpwgsvtGXLlkUOe0puZNvf6N+/v3lKvL+bz/KqE3vssUe++urXrx+5RhtbbbVVvjyeYhiTR5aReLk9xSEmj3Y8JdM8JStyvHHjxpFtf+Owww6zpk2b+rvuM9pqrgOqP76++O+N2hGfR+2NT8OHD4+x1G+33XbxWeykk06yvfbaK3K8Vq1akW1/Y//998/HON4rYJtttsknk45FJ1m/E5F76NCh9tdff0Uu9RTMyLa/4SnHtv322/u7+Sz0OqHfRXx9DRo0iFyjDf2+4vN06tQpJo/6aHN5dIGmJHkDJ5FrtRB9fOrVq5dboD76uO4z0Un3ofj64tcf1/0sPs+ee+4ZXYzb9hT2GK+HguJenHjiiRZ9raY0xSdPqc/nvRHvYaHffLxM8d853Tvi8+y+++7x1dn5559vf/75Z+S4fqvx6cgjj7To71i8d4nyd+3aNV99uodGp2bNmuXLo3txfIqXO/5e4Q1s5Sune/fu8cXYxRdfHOP54inP+fJ4A4AW/T2Mv+fmuyDDB7aQdpthGai+GAR0o/JGpdxNMt51qRjFJCWrbvZHHHGEeSOuphs7CQIQSD8BzavWw56UOz3450ryrIumB994BTBX2k87IQABCEAAAkEhEDskEhSpkKNQAhr1Lmjku9ALUnhCc33efvttO+SQQ1JYC0VDAAIQyE/Ac3/Kf5AjEIAABCAAAQikncC/0QnSXjUVQgACEIBAsgjgbJIskpQDAQhAAAIQgEBxCKBQFocWeSEAAQhAIELg6aefNr1IEIAABCAAAQjkLgEUypD1/fLly23evHn5Qs9nohkKVNC6dWs3jykT9VMnBCCQWQJe9Dy76667MiKEgp9EB2zIiBBUCgEIQAACEICAoVCG7Evw5JNPmqJB/fzzzxmX3AvVb999952deuqpGZcFASAAgdwioMh9Xvj93Go0rYUABCAAAQgEkAAKZQA7BZEgAAEIQAACEIAABCAAAQiEgQAKZRh6CRkhAAEIFEIgk+tQFiIShyEAAQhAAAIQyCECLBuSQ51NUyEAAQgkk8DYsWOTWRxlQQACEIAABCAQQgIolCHrtC5dutj1119vmr+Y6bRy5Uq77rrrrGfPntatW7dMi0P9EIBAmgm0aNEizTX+W915551nzZo1+/cAWxCAAAQgAAEIZIQACmVGsJe80o4dO5peQUirVq2yG264werVq4dCGYQOQYacJpBr61BKoSRBAAIQgAAEIJB5AsyhzHwfIAEEIAABCEAAAhCAAAQgAIFQEkChDGW3ITQEIACBzBOYNWuWzZ49O/OCIAEEIAABCEAAAhkjgMtrxtBTMQQgAIFwExg8eLCVLVvW3n333XA3BOkhAAEIQAACECgxASyUJUaXmQsfffRRq1+/vv3444+ZESCq1rp169rixYttyJAhUUfZhAAEIJB6Al27drUzzzwz9RVRAwQgAAEIQAACRRLAQlkknuCdXL16tS1ZssQ2bNiQceHKlCnjAvJkXBAEgEAOE8jVdSgXLVpkf/75Zw73PE2HAAQgAAEIBIMAFspg9ANSQAACEAgdgVyLLBu6DkJgCEAAAhCAQBoIYKFMA2SqgAAEIJCNBIYNG2a5aiHNxv6kTRCAAAQgAIGSEEChLAm1DF7TsmVLO/zww61q1aoZlGJT1WvWrLFXX33V2rdvb23atMm4PAgAgVwmkAlr4SGHHJIx5Hvvvbdts802GaufiiEAAQhAAAIQ2ERgC+8hJA8YECgJAQXkadCggd188812wQUXlKQIroEABEpJ4O2337Z9993XDe4cdNBBpSyNyyEAgSAQ+Oyzz2zevHlBEAUZ0kCgZs2a1qNHjzTURBUQSA0BLJSp4UqpEIAABJJKYOnSpVa7du1il1nS64pdERdAAAJJI/D111/b1KlTcSlPGtHgFiS7TpMmTVAog9tFSJYAARTKBCBlIsuHH35o2267rWnUKtH07bffujXhWrVqlegl5IMABEJC4KeffnLu7ldeeaXtt99+m5X6nXfesWuuucZuuOEG69y582bzlySDH21aa1GmIimq9YwZM6x79+4JF79+/XpT2xNhlHChZIRABghUqFDBRo4cmYGaqTKdBO6//35btmxZOqukLggknQBRXpOONDkFVq5c2aQYXnrppZu90XzzzTd21FFH2cEHH2zNmjVLjgCUAgEIBIrAjjvuaFr7df/997d27drZm2++WaB8UqZ22mkn0xzDihUrpkyZVOXdunWzffbZp0A5knGwUqVKdt999zmF8uWXXy6ySCmSo0ePtu22287mzJlTZF5OQgACEIAABCCQPAIolMljmdSSOnTo4AJOaHSyVq1adu211zrF8pVXXrFevXrZb7/9ZrJInnjiie7hcvz48XbRRReZRjTTlWQ91UNenz590lUl9UAgpwlcdtllrv0aRJJiKYVOc62UZs2a5ZQ7KZJffPGFO+bndzshfbviiivs3XfftUMPPdT22msv05xRpcGDB9ttt91mUiTHjBnj7pdDhgxx98VBgwaFtLWIDQEIQAACEAgfAYLyBLjP9FAoS4OfatSo4R6opMQdccQRNmHCBNu4caPJ/14uZ6tWrUqrQunLxScEIJA+An379rXnn3/eVajfve92qgPR+/JY0ABUKtPuu+9u5cuXdy6mqaynd+/e9tJLL0WqkCItpVpRrxUcLDp4ye23327nnntuJC8bEAgjgXHjxtn777+Py2sYO6+YMvsur1dddVUxryQ7BIJDAAtlcPoinySyUkpxLFNmUzetWLHCWQSV8YUXXnAPkn6Q3nvuuQdlMh9BDkAg+wjoocNf+9FXJuP31eqrr746axqveaD+fVCN0oO2vDQ013zBggWunTrfqFEjO/3007Om3TQEAhCAAAQgEAYCKJQB7yUF4PCVRv9TIvvbeojSvMmTTjop4C1BPAhAIBkENJdSbubRCpZ/P1D5Oi7rZKoC8US3QWviHnbYYdGHUrKtAGX9+/ePtNlXpFWZvDT8z8svv9w075IEAQhAAAIQgED6CODymj7WJa5JLm4vvvhi5MEpviAFrTjttNPiD6d8Xw9yshLIFbdq1aopr48KIACBTQRmzpzp3OGjFcloNoqMmg6FMrrOVG9/9dVX1r59+wLvg1KitSaurJUolKnuCcpPBoH58+fbQw89VGhRK1eutDVr1pRoqaBCC+VERglojnedOnXyyYDLaz4kHAghAZYNCUGnyUopF9f4pIcorV2UKevkH3/84eq/+eab7YILLogXj30IQCBFBHwrZfxAk+4JBx54YNYpk8LoWymffvrpfEqlBrewTqboy0axKSGwdu1aW7JkiYvmrkFZUvYS0LOSln2K9qzI3tbSslwlgEIZgp7XXEq5uMU/POohShEQ0xnZNQS4EBECOUFAcynjB5p0T8imuZPxHan7nRTK6ORbJ4nsGk2F7bAQ6NGjh4tQHBZ5kbP4BDTXO/6+VfxSuAICwSbAHMpg909Euui5lDqohyjmTkbwsAGBnCPgWyl1L1DSZ7rmTmYKtm+l9NssObBOZqo3qBcCEIAABCCwiQAKZUi+Cb6V0n+QwjoZko5DTAikkICslP48ykxYJ0855ZS0z9+WldJPuh8qsivWSZ8InxCAAAQgAIH0E0ChTD/zEtcoK6UeGpWCYJ2sUqWKc7nt2rVridvEhRCAQMkJyErZs2dPV0D37t3TPndSgXLmzp1b8gaU4ErfSqlLsU6WACCXQAACEIAABJJMAIUyyUBTWZyslL7yFoS5k4rseu2119oee+yRymZTNgQgUASB//73v87d9cYbbywiV3adirZSYp3Mrr6lNRCAAAQgED4CBOUpQZ8pOtucOXNKcGXpLzn//PNt6NCh1rFjR/v8889jCixXrpwLqx9zkB0IQCDpBNb9s9g2rFuZ9HJLUmDbFjXsiYdvth23aWCrl39fkiJKfE3zhuWtfPlyaa+3ZdPK1u/Iw6xL505maxfZ6rUlbkJCF5YpV9EqVGmcUF4yQcAn8Msvv0S8ivxj/ufixYvdpiK9Kh8p/ARq1qxp1apVC39DaAEESkAAhbIE0BYuXOgUuhJcmrRLCltj7txzz7Xbb789afVQEAQgkJ/A4m+etmULp+U/kaEjOzUwWzD9w7TXfs3pm5SsBdMvSXvdp/bcYA3qzPLanfq6K9duZy26Xpv2NlJhuAncdNNN9s8//xTZiOeee67I85wMD4FevXrZfvvtFx6BkRQCSSSAQlkKmN26dbMzzjijFCUk79LZs2ebXN/uuOMO05pWckUlQQACqSNQpmwla9ymR+oqoOQiCTRtV+TppJ1c/MN7SSuLgnKPwNZbb21dunTJvYbnUIvXrVvHsiA51N80tWACKJQFc0no6DHHHGN6BSG9+eabTqGUkjtixAgnUqqVSi3W26lTJxs2bFjaIz0GgTky5DaBMmXLWY362+Y2hBxo/Z+/fpoDraSJqSJQr14923nnnVNVPOUGgICs0KwzGYCOQISMEkChzCj+5FeuOZYNGzZMi1KpCIs//vijrVixIvkNoUQIQAACEIAABCAAAQhAIPAEUCgD30XFE7Bs2bL2wAMPuIvSZaksnoTkhgAEIAABCEAAAhCAAASyhQAKZbb0ZFQ7UCqjYLAJAQhAAAIQgAAEIAABCKSMAAplytBmtuB0KJUVKlSwAw44wLbaaqvMNpbaIQABCEAAAhCAAAQgAIGMEEChzAj29FSaaqVSay699tpr6WkMtUAAAhCAAAQgAAEIQAACgSOAQhm4LkmuQKlWKpMrLaVBAAIQgAAEIAABCEAAAmEigEIZpt4qoawolSUEx2UQgAAEIAABCEAAAhCAQJEEUCiLxJM9J1Eqs6cvaQkEIAABCEAAAhCAAASCQqBMUARBjtQT8JXKI4880q1TeeWVV5aq0uXLl1u/fv1s4sSJpSqHiyEAAQhAAAIQgAAEIACBcBLAQhnOfiux1L5SqQJKu07lmjVr7Nlnn7UuXbqUWB4uhAAEIAABCEAAAhCAAATCSwCFMrx9V2LJk6lUllgILoQABCAAAQhAAAIQgAAEQk8AhTL0XViyBqBUlowbV0EAAhCAAAQgAAEIQAAC/xJAofyXRc5tlVap3GKLLUxrUVaoUCHn2NFgCEAAAhCAAAQgAAEIQMAMhTLHvwWlUSrr1atnf/31V44TpPkQgAAEIAABCEAAAhDIXQIolLnb95GWl0apjBTCBgQgAAEIQAACEIAABCCQcwRQKHOuywtuMEplwVw4CgEIQAACEIAABCAAAQgUTgCFsnA2OXcGpTLnupwGQwACEIAABCAAAQhAoFQEUChLhS/7LkapzL4+pUUQgAAEIAABCEAAAhBIFQEUylSRDXG5KJUh7jxEhwAEIAABCEAAAhCAQBoJoFCmEXaYqopXKrVEyDXXXBOmJiArBEJJYP73v9jLk6fZp59/bQt+WGiNG9Wzbdq2sNNO6mNNGtcPZZsSEfqhMRNs3br1NvjUvolkJw8EIAABCEAAAgEhgEIZkI4IohjRSuW1117rRESpDGJPIVO2EHjm+Sk28KwRtuLvVfmadMuoJ+zOmy+yk447NN+5dB6QbNfe8IC1atHUzhh4ZNKqvvSqO23t2nXFVihTJU/SGkZBEIAABCAAgSwngEKZZR181lln2T777JPUVlWuXNlatmxpUio3bNhg1113XVLLpzAIQMBszLhJduLpVzkUZ53ez049/nBrsVVje+e9T+3Fl6fao2Mn2qCzr7M2rZrbnrvtlDFkK1f+YzePetz22qNTUhXK4/odbGXKbFHsdqVKnmILwgUQgAAEIACBHCWAQpklHV++fHmrW7eurVixwiZNmpSSVsli+fTTT6NQpoQuheYygVX/rLbLrr7LIbj7lktsyKCjIjh6H9Ld9Frx90p7bsJb9p+bHrZXnx8VOe9v/L1ylWfhW291atfwDxX6KUtguXJlPQWuTKF5VJ5c3atWqVxonsJOyHU1Ly/PKlQoH5NF9arM8uXz//XcPvKCmLzxO4nIHH8N+xCAAAQgAAEIpJ5A4U8Tqa+bGpJIYK+99rIlS5bY0qVL3ae2k/3q1auXSakkQQACySXwxFOv2MJfF9u27VoW6vJ5y3/Pt3322sVVLGXNT8+/9JZts3Nfq9l0b6u71b7WbJueNurep2zjxo1+Fuu670nWs+859u70T63z3idYtcbdXP6DjzjHlvzxVySfNh578mVrsf2hVr3xXu7Vesfe9uBjL7o8Tz/3uu3R4xS3/b9Pv7S2HY+w92fMtBcmvu22x41/zeS62qTtQXbVf+9z+fR238PP20F9zrbazfexms262949T3PnV69eG8mzb6/BttdBgyL7ichcmDyRQtiAAAQgAAEIQCDlBPIPE6e8SiqAAAQgAIFoArPnzHO7R/c9oFCr4VbNG9tbL98bfZmNfnC8DRl6g9WsUc2OPeog5zI6+Y0P7NyLb7bv5v1ko266yOWft+Bn+2zmSntj6ke2ZbNGdnivvZ0iOPmN9+3YU4bZ6xPudvnmfD3fThlyrdWvV8tOHnCYZ2EsZ+NffNO52lavVsUaNqhrrVs2MwUOqlK5km2/bSurWLG8LV+x0r6d96Ord/GSpc4yWb9ebVfmE0+/YoPP+6+ziB64325O1renfexceX/7/Q+79/bLXb5ZX37n5lC6He8tEZkLk8cvg08IQAACEIAABFJPAIUy9YypAQIQgECRBL757kd3fqstGxeZL/rk0r+W2/AR9zjlbeor99tOO7Z1pxUZdvf9T7a7H3jWTj2ht3XYYdNxuYz29xTWR0dfbZUqVbBfFy2x1h162wcfzXLuqXJFvf6WR51l866bL7EjD9/PlXf26Udb+y79TNbHF8fd4iLONt76QE+ZbG0vPHmzy+MrxFImr77sNDe3skH9Ou7cqNFPuc8v3h9n223Tym3PnP2tddj9GHvrnY/dfmFvm5N57247FyhPYeVxHAIQgAAEIACB5BPA5TX5TCkRAhCAQLEI/LN6jcvvW/USuXjKWzPsz6XLrfPO20eUSV3Xcqsm1ufQfZxi+O77n8UUdcfIC50yqYNajmSH7dqY5kr+9MtvLt/6Devd5+iHxpuv5MoK+f2XE01K5uZSxw7t7CpPofSVSeW/+T/n2Wsv3hVRJnXsby+wT9myZUxzRzeXNifz5q7nPAQgAAEIQAACqSWAQplavpQOAQhAYLME2m29lcujeZRFpWXL/3ZKpOZHfjf/J5e1+56d8l3SqcM27tg33/0QOVetqlxWN1kN/YP16tZym/5cxnPPOMaU7613/mftOh1hmj955gUjnXLZtEl9/7JCP3v37J7vnCLSql29jx5q23fuZ1Ub7unmYW7YsNEL0JMve8yBRGSOuYAdCEAAAhCAAATSTgCFMu3IqRACEAgKAQW3iQ5ekym5fIXyi9nfFCqCrJENWx9gDVrt79ap1L5Sk0b5FT1ZHZUqVqjgPvVWuXLFyHZhG1133cHmfvqcjRh+hu3RtYOzXN7juc4e0PtMO+2c/xR2WeR4lSqVItv+xjHeHM2Tz7jGXp3yvkmBPf6YnvbgXVc4C6Wfp7DPRGQu7NogHA/CdysIHMIuA/0Y9h5EfghAINUEmEOZasKFlP/222/bzJkzCzn772FFb+3YsaM9++yztnDhQuvXr581brxpntUnn3xi77333r+Zo7Zq1qxpu+yyi2233XaFBvmIys4mBHKSgOYNnn322da9e3fr27dvxn4rvkXxkccnenMQT7e6dWrm64+xz7xqa9asdS6uCsLTqkVTl0durdHLjOjgh/+b7c75edxOAm+K2KpgO8MvPtW9FGzn2RfecMrkQ2MmOPfVBIqJZJn77Q/uei098vUnz1mzpg3cOSm8CtSTrWnKlCn2xBNP2EMPPZSx71S2ss1EuxQx/fzzz7eLLrrIdtopc2vA+m2fNm2a/fbbJjd1/5g+q1Xz7gutWlnr1q1TFpH9u+++s88//9x22203a9p00z0oWoZ0b7///vs2b948d/+uUqVKuqunPghA4P8JoFBm6KvwzDPP2L33xkZsLEiUW2+91SmUI0eONCmQnTt3jiiUr776ql1xxRUFXRY5JmX05ZdftiZNmkSOsQEBCPxL4Mgjj7R99tnHHdDvMhOKpZYD0VqTEya9Y0edcIk9O2ZkjFIpRe/q/1+G4/wzj3Oy7urNnVSSe6rmIkoRVJIS+M57nzhFZv99urhjib71HXCRLV++0hZ//4Yrr0b1qnbScYfatTc8YD/+vMhWrVrt1pFUeevXb5pvWVTZn8+c6wL+dNm1fUSZVP4xT07yrt9Q1KXFPpeIPMUutJgXSJE84IAD3FUPP/ywF9mWv9hiIgxk9gYNGrj/Xf2fbr311qb7RCYVy/Hjx9tnn8XOj44G1759exsxYoRbmzr6eDK2P/74Y7vnnnusYcOGgVAo3333XXvllVds7733NhTKZPQwZUCgZAT4tysZt1Jfdcopp1i3bt0KLOepp56yiRMnuge3Dh06FJgn+qAeiI899tjIIbnnfPvtt/bII4+4P50+ffrYjBkzIufZgAAE/iWgBxE/yQNAVv2rr7467Yrl6Nsu89aJ/MzefvdjF1V1n267WJPG9d38xSlvf2ia5zigf087+shNCsuunbaLKKF7H3yanX5KX9uwYYPJkrjotz9c3rZttvSbltCnlFqtGak1K88c1M8ppVpjUsqkAu4okM+6detNFscZH892UWYHndSn0LJ37ritK2PqtE/s8mvutjatmrv2ydqq9Mefy+zJZye7JU8KLWQzJ2TNjZdHS6ykM0mRvOqqq+yDDz6IVHv88cdHttkIPwFZJ2+55Rb339qpUyfr3bu36/NMKpbnnHOOtWjRwsFdtWqV/fLLL/b888/b7Nmz7cEHH7RLLtl8IK3w9wwtgAAEgkAAhTJDvbDrrruaXvHp008/tTfeeMMdvuaaa2zfffeNz5Jvv127dialMT6deOKJ1qxZM9OI4rJly0xusCQIQCA/Abmg+1bKuXPnOtfydCuWUtY+fe8JO//SW+3Fl6e6ZTp8SWvVrG6jbrzI4pW3R++92q0RqbUi//fpHD+7DTzxcC8q68WR/TJlyniKXf4IOGXLlo3k0cZ/rzrL5i/4xaa8PcOtE+mf1JIk4x7e5KJavnw5J8cdo8fZf2562HbrvGPEahlfnhTIW/57nl18xShvSZJHXHFqy313XG6/eIF6Rox80AaeNeL/19AsE+Oml6jMBcmTLoUyWpGMbjvWSf+bkz2fsshdcMEFTqnU3OuXXnrJJkyYkFHFctttt7Xtt9/kqeCT1nOFBqzlCio55dYfndatW+eObc56roFpPTfUrr1pPdnoMoq7rTrLly+f0GXKq9+Sfv+lTf/8849ra6VK+ed2l7ZsrocABGIJoFDG8sjonuZpHHHEEaaboD6HDx9eKnk011J/gr/++qv9/vvvKJSlosnF2UxAVkrNV54+fbqz8qmtmVAsW2zZxK3tqIA7c76eb1prUms3ai5k/IOhZJRyJvfYn37+zRTQR1FRd2y/tdWpXUOnI+m3ea9HtqM3Xnr61uhdd93rE+52dc9b8LOtXbve1d1hh61jHvBuu2GoXXzeCbbWe/hr3rShO3fCMYfElOXvnDfkWOvXp4d9NXeBaVmU9tu1jpQ12LOqrlz1j8saL2P8vl9evMw6Hi+PnzdVnwUpkrIO6yF4yy23NKyTqSKf2XJlpbz77rs9b4HVkWBeQVAso6nUrVvX7VauXDnmniE55R6q2A1SNKWMyro6YMAAby3bCpEi/vrrL7v55pvto48+cu3caqutbI899jB5QtWrVy+SL3pDcxivu+46z3thnV188cW24447Oj6PPfaY6bciy2mdOnXc9J0zzzwzxhV38ODBVqNGDTvuuOMcW83RlPKpMvQMFD0Qrmk+L7zwgpszqWk8e+65Z4Gu95MnTzYN6ixatMgx0LOQ2tmrV69osdmGAASSSACFMokwS1OUHkb69+9vP/zwg2n+g27EBT1AFqcO3Zg1cV9KpeZ9kCAAgcIJyCPAt1Iql36TSgUplu5ECt+kEGq5jURT82YNTa9kJSmxehWVZFFNNMl1V6/41Kjhpoff+OMl2S+OPCUpX9cUpkj65cmqc+WVVzJ30geSZZ/6L5VCpNgGUsqU/AiwQVAsV6xYYQ888ICTa7/99nOfenv99dedkijLn+IwVK1a1U2HUXCdP//80y688EKXV26zgwYNcs8NLVu2NL2kWD755JP2xRdfuLmTkUL/f0PTaxSw6O+//3ZBi6QIKl166aX24YcfWqNGjdy8Yj3byPtK5YwaNSoy/1LKpsqQJ5X4aiqQXHY1Tefaa691FmGVp3mjuk6WVc1llfI6duxYnYpJ33//vd1www1Wq1Yt69mzp8s/depUu/HGG90cy0S8vmIKZAcCEEiIAAplQphSn0kjn2+99ZZzL3nxxRddtLZEa9UN+tFHH41k15+CLC36E9GfnW7syUqKNNulS5dIcYqOqRt1dBo6dKir3z+mUc1Jkyb5u+5T0Q/vv//+mGP6Q9Yfip/0Z3Tuuef6u+7z+uuvj3ED1h/o/vvvH5NHI52aWxKdNDdOf2h+0sjsfffd5++6TykUmtzvJ42SxkfR1Z/aTTfd5Gdxn48//ri1bds2cuyrr76yk046KbKvDc1lkdU5Ou2+++4RpUXHNXoaH2RJf+7R0YD1B685ttHp9ttvt3HjxkUfMrlwRgco0INwvMX7rrvuinG7liX78MMPjylHo8cnn3xyzLGDDz7YPYT4B/UAoBHt6KQHFEUi9JNGpzW6HJ00xzc+MJW++34UY+XVw4yisEYnjYT36NEjckjf92hFUCeOOeYYO++88yJ5tHH00UfbggULIsf04OM/fOmgrJSKWigO/kOijvuK5ddff+1cYWWBGnb2/tZ9p00PlMpDym4CstrISiM3Qn+gz/9e+C2XdVIP7KNHj873vfbz8Bl+AlJkfGUyujX+PUP3ML10L9WUk1QmzfWuWHHTckDybFq8eLGrTgPIGqD2k/63lHTP9edcyqqoe7um2fhJ/yMahO7atatTyvSdVnv1n/rll1+alLXopME2uQFLmdRzxkEHHeRO6/9H/9+SQxZd3+VUvw3VoaBGUkL9pDqk6F1++eXOWvrHH3+4+7UUS7HWPV7PDFIm77jjDtthhx3cpfq/lvIYnRRdWX2h+7/u6UoKtKYpQFJoUSgdEt4gkHQCKJRJR1r8AjX6d9ttt7mHESkLCvldnKQornoVlHbeeWc77bTTCjpVomN6mIpWVPw/vgjezgAAQABJREFUs+jCdCw6j1xv4pOUteg8Ou8/qPl59XAWn0fHolO8PDoX7b7j55UM0WX5f3D+eX3Gy13QnI+C5I6f61GQ3AWVJXmiH0oLYik5o+UuiKXaG50nuk3+tv6I4/PEy10Qy4LkjmdZkNzxLAuSuyCWiXwHCpr7E9+2kn4HfF5FfWp0v3KlClZmi7VFZeNcFhHQbyX+O1ZQ8/T91Xc9/rdVUF6OhZPAmjVrEhJc94n4+1lCFxYzk3+P1v+OBljljivvJA3Y+pZHWVXXrl0bUSZVhRRQfU+j2yNLntJJ3oCo/x1W+WeddZYb3IuOpKyBUw3wSpmUVT56YNcfPFRsh+j/WgUP1DOOXG+jFUrVqcFj/74tt10tf6I6NF1HEW1XrlxpGsz0lUldIwuklNP58+dr1yX/P1VKvZ6lmjdv7iytyhf//OBfwycEIFB6AiiUpWdYqhLkcjJw4EBXhkba/JDzxSlUli2NvvlJfxD6Q9FooJYakcUw3hLk5y3up6xHGn0sKulPZnPphBNOML2KSgousLm6tO7W5vKoDrkQby5phHVz1lxF9tOrqCRrZSIy+cGXiirrzjvvLOq0OzdkyBDTq6gkC168FS8+v1yTEpFbUQQ3l/7zn/9sLoub06J5LUUlDYhsTiY96G8uj+rQ6HxRyZ/rE59HDyF6SJGblazYhxxyiC384i5bueSz+KzsZykBzfHS90OeH7IK6berB27fKqVma1sP7bLmJHMQL0uRhrZZUnxkfYu3UvoKmLwj5A2yzTbb5POSSHaj9V2MDsojmWbNmuWiz8rjR544UvSkhL322mt22WWXufmMmlsoxTM66Vp5IEkJljIXnTS/XC8lPVMoyRLop3hF7aeffnKnZI2UYhedVM/SpUujD7lBmPjgP/7cSf2m5BarJKbxqU2bNjEKpeZ6ypNAllf9FjXXUl5V8qTR/wkJAhBIDYFyqSmWUhMhILcOjeBppFAjd/5oYiLXRufR0iK6icYnuVRKQU1EcYm/ln0I5BoBjbL7yqPa7m/rocxXJHONCe2NJSC316IUSykVWv9PFh7f2hJbAnthJiCFS4Oz0cpkQYpkptooZVCu/Br0VFAaKZdSKHX/0qCbvDukgCqPgvJET9+QginXU1nYC/I6iW+Tvt8aXFOQHLmhSlnTwIuSLKVKmsISX1b9+vXdYIysnb63SXwed3HUm6ygSlIu45Nfhn9c7dPcSrnDah6mrJySUS8NvitoEAkCEEg+ARTK5DNNqERZPDSnS3MStKaV1oxKdpJCqeSP7iW7fMqDQLYQkJIgq4MSimS29Grq2lGQYul/b37++Wd71JvTjpUydfwzVfLIkSMjSk2QFMl4HhqkVpLV/McffzS5ssr1VIqWFDol5Yme+y5FUlZBLRWiuebRVkrFd5Bydthhh7lr9SZL7aGHHupcUmW515x8zYFUklVw+fLlbs655mNGJ83FlBttvCIYnSd+W+UpSUGOnhuqY/q9RSfNu5SC6ntByVVW7ZfyrFgOcv+VOzIJAhBILoEyyS2O0hIlINdKWQ51c9fIWUFzzBItq7B8umnqIUcjj/68gsLychwCuUwg2tVcFknNSVbUQY3AZyLJAvLCxLftsqvvsp59z7EDep9pZ14w0rTeJCk4BHzFUsG7ol3KTz/99IjiERxpkaQ0BGSdVJRRJSmTcm2VciTXz4JcMUtTV2mu1XQXubcqyRKpfd1PtK6ur0zqnJbWiH8uUH6lDz74wH3qTVZBtVvzIhVczU+KoqokxVLKqsr73//+546pLqX4oHYatDvjjDPcdByXIcE3vzxNEVKAHj8pOqyUzOgkd2Mpjb5Lr56DNPdSbRcH/3j0NWxDAAKlJ4CFsvQMi13CN998ExkZ1M3tqKOOKrQMRSrTH1dJU/Xq1U0RCjXiqLkGJAhAIJaArJN+kiKZKSXSl0FrUA4YONxenfK+f8h9Tnl7ht3zwLPWfc9O9twTN1ndOjVjzodtZ8Xfq+zaGx5w61yeMTC/y36Y2uMrlrLUSLGU6yBWyjD14OZllXVSSa6dQVEiFeE7OliU1rKWR5Isk7vttptp6RBFrZYCLGVMgXoUyVpBbvz7niyJGtyWa+ypp57q5gnLY0rH5cKqaPFaWkSWxugI3D4xzb2Xi7dcgWUFHDNmjIvpIKV24sSJblBbiqospZpTKVk2Fz/BL9v/lBurfmP6fSnqtyylUnQVYT3a/Vj5tTal5o/KtVVTilSfggApeq2izvrrdPpl8wkBCCSHAAplcjgWq5ToqGqaa6ClEQpLfhhw3RSVZHH0kx9BLvqYf87/1J+HFEoF/EmFW61fD58QCCsBuUEFQZEUv7Vr19nu+59sc7/9wVps2cRuvf58271LB/tz6TKb+Oo0e/CxF+2d9z614wddYZPG35GWKJKp6teVKz2Xu1GP2157dLKwK5Q+Iz306kFXD75SKPWgzVxKn054P6WMyHVS8/GCZI3Ush3RSQqglDcpVRqo1jOCngFksVOQPj+QjoLZKWaDFFAFrJOyLIVSbq5yg9U8YCl/flJAGy19peQ/d/jPJDomN1QpkBq4VvAzWSGl7Kocf/6i8snCqSCBCnDmJ5Xjl+kf02f8c82wYcPcupSyct5yyy0uq+JHaBmQ6EBxcjWXEi1rqZRoP0mZvOqqq/xdPiEAgSQT2MIb3clLcplZX5zmPWo9wHvuucfdOLO+wf/fQK2rpbX49CJBIBsI6PZX0MPM5trmR3ndunPR0XU3V078+TtGj7PzLrnFtm69pX009TGrVbN6TJYvZn1jO+81wHNV22gfvvWoddmlfcx5tefXRUusYYO63gPZ5mc0/PPPGs/dvmJMGSXZUb3r12/w5kZtfoxy3br1zqogS2zjrQ90CuU7r95fYLVSsCtUKF/gufiDK1f9Y1Wr5F+iKD5fcfe/nznWe7qtZi26XlvcS107S/L9KnZFXJBSAiW9T8jDSC70Wgc500nKo9Zilquqnl98hVDWR82nlOLpJ3/upayUWksz2tXVz5PIp8rR85LmOapeBQLylzlJ5PqC8qgstUNt8OdWFpRP9cpaq+A/yqclRPw2F5S/NMfET/NHFfRHVuH4JCX46aefdnmi3Y79fLIca+4qCq9PhM8wEtj8E0cYW4XMEIAABBIgELSH/ZG3bVre5pphp+dTJtWcDju0tSsvGWR7d9vZFny/MNLCpX8tt2NPGWa1m+9jTdsdbFUb7WkH9Tnbvpv/UyTP2GdetbYdj7AXX57q5mM2aXuQVWm4h229Ux974NEXIvn26HGKy/fZF7HWDymfO3Ttb+279PPWrlvr8s/68jvb/7AhVqvZ3q7O3fY72R4aMyFSljY0F1T1jhv/ml161Z2mevudeKmpHqX/ffqlO//+jJluX8ryNdff745Vqr+7y3/cqcOdouwy/P/bvr0G2z6HnG7T3v/MtF2tUbeIXNH5MrkdtO9XJlmEue5s6Md69eo5d914xUrKYrQyqX6S4tWiRQtn7SypMumXI6unlhyR5bS0yqTKlIIrT4CilEnlk/zK1717d+fqmiplUnWRIAABs80PJ0MJAhCAAARSTkAWO1kXy5Ura/369Ci0visvHWR6+UmWuV32Ot7mf/+Ldd55e9vVe0nRe+3ND6zjHsfZ7I+etq2aN/Zc31fYt/N+9Nxlr7RV/6y2ngfsYau9NWvfePsjO/3c/9p227SyPbp2cErr6AfH2zMvTLGOHdr51dgrr0+32XPm2WE99/KiKFZwrrcH9z3bU+LW2cE9dvcCc1Swt9/92AaeNcIpstdffZa7dvmKla7ecy++2RYvWeosjk0bN/CCa6x2MlepXMm237aVV+YmS+Rh/c93dcnld0D/g+3rb763J5+dbO++/6m9Pek+a9OquStXCvXCRYut11Hnmepo3KheyiwQEQhsQAACEIAABCCQjwAWynxIOAABCEAg/QS++e4HV2mzJg0Tclf1Jbz5jsedYta/7wHODfaumy82uZBecv6J9vfKVTb0stv8rO5zw8YNNu21B23iM7fZlAn32HlDjnWumR98tMlCeMIxmyLbxkeUfeq5TZEjTzruUOdye/ZFN3qucmvsiQdH2MvP3m7jH7/R/vfO4567bR276Y4x+SyKUiavvuw0++mrSXb3rZfYmPs3uZBuv21re+HJm23nnba1Z194wymTUmSlCCvPR1PH2EXnnmA///K73Xb3kzFtkUtsq5ZN7fUJd9svc19NyOU2pgB2IAABCEAAAhAoNQEUylIjpAAIQAACpScg5Uypfr1N4fgTLfHp5zdFqR104uEx80GHnnWcK2LqtI9jijrx2F5eoJ9NywPoxAH7bVonbs7XC1y+rrvuYG3bbOmsjJqzqSTFdNJr71m9urWs10Hd7JPPv3JW0ObNGlr/I/61prZq0dRZV+W2OvHVd921/puUxKs8hbJB/X+XHvDP+Z+PPPGS2xwy8KiY+ZAXn3eCa5vcZ+PTNZcPth77dIlpe3we9iEAAQhAAAIQSB0BXF5Tx5aSIQABCCRMoN3WW7m8Cz2316KSrHJ/exFSK1QoZ3IXlaurguHsFqUk6nopbk2bNLBfFv5uf/y5LFKk7zLqH5CSqLR69SaFVtsnHNPLho+4x8ZPeNO5wL70yrvOGnnaSUe4unxr6p9/Lrddu5+gSyLp1982yf/b739Gjmmjd8/uMfsF7Xzz3Y/usCyccruNTgqM8vvi2DIVsEfutiQIQAACEIAABDJHAAtl5thTMwQgAIEIgSaN61v1alVs4a+L3VzDyIm4jeEjRlvdrfb1Atc84OZCKkBO7Vo1nHIZnVUKmJbmUPLnJ2q7cqXNR3U9/piezuLnu70+Nf51XWonDzjUfS715mMqVatW2SmtUlz91y4dt7NDD97LuaK6TP//VqVKpejdArcVXEhpy+aNIuX55apMvRQl1k/lvGWUEoks6+fnEwIQgAAEIACB5BPAQpl8ppQIAQhAoEQEOnbYxt6d/qndetdY84PaRBckZWrMuJfdoX2772rVqlbxXGRrO8udgtds07ZFJLvWsvxr2Qp3XvmKk7Zs1shFklWQnfc++NwF+Nlpx7bOWqlyWrds5opTvpeevjWmaFlEF/yw0LZt1zLmeCI7KvfPpXPs/DOPc0GDoq/RHE8FA0KBjKbCNgQgAAEIQCDzBLBQZr4PkAACEICAI3DLf89zAXluv+dJF9k0GouUyVOGXGtyJd1h+za2/96d3WlFdlV6efI09+m/yU1V6cD9dvMPFevTD86jJTvkZnvygMMi1+/kLV8id9OPP/vKWVT9E1p3ru+Ai63bgQPtq7mb5mT65wr71Dpxfuqya3u3OWHSO/4h96kIs7vvf4pdfMWomOPsQAACEIAABCCQeQJYKDPfB0gAAQhAwBGQu6gimt5w66MmRe6+h593yuOGDRts6rRP3BIaNWtUs0dGXxWx1F07fLCLjHrZ1Xd51r3lLv/M2d+6SKuy5g276JQS0T3y8P3szKEj7cefFznl8bh+B0fKkXvuBWcPsOtvecStBTn0rAHOrfbRsRNtxsezTdZTLUFSVKpbp6YLvKP8mq856KQ+dsXFA+3xca+4dTEl+55dd7Kvv/3ebrp9jFsSZPhFpxZVJOcgAAEIQAACEMgAARTKDECnSghAAAKFEfjvVWe6tRalIMr9VS8lLa5+wL5d7cG7rjBFV/VTJ89N9sVxt9jJZ1ztFDz/uNZlfHbMyIgbrL+wd1lv3mF0Klu2YEcVuckecdi+9sTTr7jIrlIAo9M1l59uskje5C1bMvi8/7pTklHzHB+6+4pI1FV/Ufj4eqUwSom8Y/Q4+89ND9tunXe0Qw7c0958ebRTpu++/xnTS6lRw7p2zzWXOjdcd8B786oq1vIq/nV8QgACEIAABCCQXAIolMnlSWkQgAAESkVACtipJ/Q2Le8xb8HPprmQisQqN1cF7SkoHdZzL28dxsk2a8533nqNvzklsm2brWIUrjMGHml6xScppHnLP44/7PYff+Ba06ugJIXwhmvOtgvPOd4+mznXucVuv20ra7Flk5jscp313WdjTng7t90w1LQkyNp166x5001Kstaj/PKjZ23O1/Pd0iWaIyq3XrnYRqf5szYtMRJ9jG0IQAACEIAABNJPAIUy/cypEQIQgMBmCZQrV9a0lIi/nMjmLqhUqYLt2mk799pc3mSel7KrdSBLmmRJjU+ymkqB1osEAQhAAAIQgECwCRTs6xRsmZEOAhCAAAQgAAEIQAACEIAABAJAAIUyAJ2ACBCAAAQgAAEIQAACEIAABMJIAJfXMPYaMkMAAhCAAAQgAAEIhIbAE0884UXnjp0LLuF//fVXq1WrVmjagaAQKIgACmVBVDgGAQhAAAIQgAAEIACBJBFQVGwtARWfGjRoYPXr148/zD4EQkUAhTJU3YWwEIAABCAAAQhAAAJhI3D66aeblEcSBLKRAHMos7FXaRMEIAABCEAAAhCAAAQgAIE0EEChTANkqoAABCAAAQhAAAIQgAAEIJCNBFAos7FXaRMEIAABCEAAAhCAAAQgAIE0EEChTANkqoAABCAAAQhAAAIQgAAEIJCNBAjKk429SpsgAAEIQAACEIAABNJGYO3atbZq1ap89ek4CQLZTgCFMtt7mPZBAAIQgAAEIAABCKSUwGuvvWavv/56SuugcAgElQAKZVB7BrkgAAEIQAACEIAABEJBoH379ta2bdtCZa1WrVqh5zgBgbATQKEMew8iPwQgAAEIQAACEIBARglImTzooIMyKgOVQyBTBAjKkyny1AsBCEAAAhCAAAQgAAEIQCDkBFAoQ96BiA8BCEAAAhCAAAQgAAEIQCBTBFAoM0WeeiEAAQhAAAIQgAAEIAABCIScAAplyDsQ8SEAAQhAAAIQgAAEIAABCGSKAEF5SkH+oYcesgoVKpSihHBdOmHCBGvXrl24hEZaCKSIwMYN6+yv32amqHSKDQqB9WtXWrnKRGcMSn+ETY7ff//dPvzww7CJjbzFIMA6k8WARdasJYBCWYqu/eSTT2zgwIGlKIFLIQCBsBLYuGGN/frt5LCKj9zFIFCucsNi5CYrBP4lMG/ePNOLVDwCK1eutKpVqxbvInJDAAIZI7BFnpcyVntIK163bp19//33IZW+dGKXL1/eWrRoUbpCuBoCISewfs1ftnHDPyFvRfHEnz17th1xxBF2xx132MEHH1y8i0Oeu0yZClauUt2QtwLx001g8eLFlolHrM8//9z69etnd999t/Xo0SPdzS51fd9++60NGTLEXn/9ddtiiy1KXV66CtA6k1WqVElXddQDgUARwEJZgu6QUrX11luX4EougQAEsoFAuYq1vGbolTtpY5lf7Idf/ra1G6tbhSqNc6fhtBQCJSRQv379El5Zustq1Khhy5Ytc8pNgwYNSldYBq7u06ePzZw50z766CM79NBDMyABVUIAAsUlQFCe4hIjPwQgAAEIQAACEIBA0gl88cUX9v7777tyR4wYkfTyKRACEEgNARTK1HClVAhAAAJZRUCuZ2XLlrUyZfjbyKqOpTFZR8D/rYbJXdTvhOHDh0fuMf/73/9sypQp/ik+IQCBABNgDmWAOwfRIAABCEAAAhCAQC4QmDFjhu22226ReacawNp9993t3XffzYXm00YIhJoAQ82h7j6EhwAEIAABCEAAAuEnEG2dVGs2bNhg06ZNc6/wt44WQCC7CaBQZnf/0joIQAACEIAABCAQaALvvPOOvfHGG06JjBZUVkrmUkYTYRsCwSSAy2sw+wWpIAABCEAAAhCAQE4Q6Natm33wwQf5FEq/8Yr4uuuuu/q7fEIAAgEjgIUyYB2COBCAAASCSEBr6t133302f/78IIqHTBCAwP8T+O2339xvdcGCBaFg8tprr9l7771XqDKpQGBYKUPRlQiZwwRQKHO482k6BCAAgUQJ/PDDDzZ48GD75JNPEr2EfBCAQAYISJHUb/Xzzz/PQO3FqzIvL8+GDRvmIkjryujItHJ3Vdq4caO9/PLLbm1Kd4A3CEAgcARQKAPXJQgEAQhAAAIQgAAEsp/AhAkT3CCVAvAoVatWzTp37mzlypWzdu3auWNSMqV4YqV0OHiDQCAJoFAGslsQCgIQgAAEIAABCGQvAVke+/Tp4xooRfK6666zn376yfbYYw+rUqWKzZo1y8aOHWutWrVyecaPH29ff/119gKhZRAIMQEUyhB3HqJDAAIQgAAEIACBMBJ45plnrHHjxnbllVfaokWLnOtrzZo17dZbb7Vly5aZ5k4ee+yxTokcOXKkNWjQwK6//vowNhWZIZD1BIjymvVdTAMhAAEIlJ7AypUr7auvvrLWrVtb7dq1S18gJUAAAikh4P9W27RpY7Vq1UpJHckoVMuE7LnnnlapUqWEilu7dq2NGTPG+vfvb9WrV0/oGjJBAALpIYBCmR7O1AIBCEAAAhCAAAQgAAEIQCDrCODymnVdSoMgAAEIQAACEIAABCAAAQikhwAKZXo4UwsEIAABCEAAAhCAwGYITJkyxbm2biYbpyEAgQARQKEMUGcgCgQgAIGgEli1apVb1+6vv/4KqojIBQEIeAQ0h1JrUCqwTRjTI488YsOHDw+j6MgMgZwlgEKZs11PwyEAAQgkTmDOnDnWsWNHk/WABAEIBJeAltvQb/Wtt94KrpBFSKY1KcuWLVtEDk5BAAJBI4BCGbQeQR4IQAACEIAABCCQowRQKHO042l2qAmgUIa6+xAeAhCAAAQgAAEIZA8BKZTlypXLngbREgjkAAF+sTnQyTQRAhCAAAQgAAEIhIHArbfeav/8808YREVGCEDg/wmgUPJVgAAEIACBzRLYcsst7a677rJOnTptNi8ZIACBzBFo2bKl+6126NAhc0KUombJT4IABMJFYIs8L4VLZKSFAAQgAAEIQAACEIAABCAAgSAQYA5lEHoBGSAAAQhAAAIQgAAEIAABCISQAAplCDsNkSEAAQhAAAIQgEA2Evj6669t7ty52dg02gSBrCWAy2vWdi0NgwAEIAABCEAAAuEi0K1bN9u4caNNnz49XIIjLQRymAAWyhzufJoOAQhAIFECn3zyiVWqVMmef/75RC8hHwQgkAECH330kfutTpgwIQO1l75K1qEsPUNKgEC6CaBQpps49UEAAhAIIQHFb1uzZo3pYY8EAQgEl4Cse/qt6jOMCYUyjL2GzLlOAIUy178BtB8CEIAABCAAgawhMHXq1FC3RQpluXKsahfqTkT4nCPALzbnupwGQwACEIAABCCQrQTq1avnmrZw4cJQNvGyyy6zihUrhlJ2hIZArhJAoczVnqfdEIAABIpBoG7dunb88cfbVlttVYyryAoBCKSbQOfOne0///mP9e/fP91VJ6W+vn37JqUcCoEABNJHgCiv6WNNTRCAAAQgAAEIQAACEIAABLKKAHMos6o7aQwEIAABCEAAAhCAAAQgAIH0EUChTB9raoIABCAAAQhAAAIQgAAEIJBVBFAos6o7aQwEIAABCEAAAhAIL4HWrVvbcccdF94GIDkEcpAACmUOdjpNhgAEIFBcAnPnzrXu3btb2JckKG67yQ+BsBF45plnrGHDhqbfbBjT2rVrwyg2MkMgpwmgUOZ099N4CEAAAokRWLFihb377ru2ePHixC4gFwQgkBECq1evtt9//93Wr1+fkfpLW6nWoSxbtmxpi+F6CEAgjQRQKNMIm6ogAAEIQAACEIAABAonIIWyXDlWtSucEGcgEDwC/GKD1ydIBAEIQAACEIAABEpEYIsttijRdUG5SOtn7rTTTkERBzkgAIEECKBQJgCJLBCAAARynUClSpWsbdu2Vr169VxHQfshEGgCzZo1s8MOOyy0v9VRo0YFmi/CQQAC+Qlskeel/Ic5AgEIQAACEIAABCAAAQhAAAIQKJoAcyiL5sNZCEAAAhCAAAQgAAEIQAACECiEAAplIWA4DAEIQAACEIAABCAAAQhAAAJFE0ChLJoPZyEAAQhAAAIQgAAE0kRgzz33tHvuuSdNtVENBCCQDAIolMmgSBkQgAAEspzAzz//bBdffLHNnDkzy1tK8yAQbgJTp051QXl++OGH0DVEYT2mT59uP/74Y+hkR2AI5DIBFMpc7n3aDgEIQCCOwKJFi0zrwMUnHb/pppts7ty58afc/sKFCws8zkEIQCC9BDT4M3HiRFu+fHl6K05Cbf69p2zZskkojSIgAIF0EUChTBdp6oEABCAQAgJr1661Tp062dixYwtULOObMGnSJOvcuTMWhXgw7EMgxQQ+/fRTW7ZsWbFq+f777+2bb74p1jXpzIxCmU7a1AWB5BFAoUweS0qCAAQgEHoCW265pXXt2tUGDBhgFStWLFSxlCKpdSl79eplVapUcdeEvvE0AAIhIlC1alVr06aNXXrppfbXX38VKbkUSf2m99prL9M6lUFNcnndbrvtrGHDhkEVEbkgAIECCKBQFgCFQxCAAARymYAeUJVkLdBD6LbbbmuTJ092x2QV2WWXXZwi+e2337pjV199tfvkDQIQSB+Bdu3aOe+AkSNHWu3atU2/w6VLl1qlSpWcQlauXDmTInnaaadZy5Yt3eDQWWed5QaA0idl8WqS7F9++aWdeeaZxbuQ3BCAQEYJbOGNBuVlVAIqhwAEIACBwBE444wz7N5773VylSlTxjZu3BiRUfObpGxuscUW1qNHD3vttdci59iAAATSR0Duq1Is/VS9enU777zzrE+fPjZ69Gh79NFHbf369eY/6q1cuTLQCqXfDj4hAIFwEUChDFd/IS0EIACBtBBQlEW5061bt67I+j744APcXYskxEkIpJbACSec4KyPGvTRII+vPEZvSwIF1brwwgtTKwylQwACOUkAhTInu51GQwACENg8AVkp77vvvsgDavQVslruv//+WCejobANgQwQkOu53NL9gDbxIkixrFOnjmkZEc27JEEAAhBINgHmUCabKOVBAAIQyBICl112mWkeVkFJ1pBrrrmmoFMcgwAE0khg6623dnOdNchTUJLF8pJLLgmFMqmotUOHDrX33nuvoKZwDAIQCCiBgu8+ARUWsSAAAQhAIH0EFPH11FNPdW500bXqwfWAAw7A1TUaCtsQyCCB4cOH5/udShxZJ+vWrWtDhgzJoHSJVy2F8rbbbrMvvvgi8YvICQEIZJwACmXGuwABIAABCASXQEFWSqyTwe0vJMtNAprvfPzxx+dTKsNknVTP+W67CvxFggAEwkMAhTI8fYWkEIAABNJOIN5KiXUy7V1AhRBIiMCwYcMs2u3VnzsZFuukGolCmVBXkwkCgSOAQhm4LkEgCEAAAsEiEG2llHVS692RIACBYBGQlVIRX6VIKoXNOimZfYWysLnbykOCAASCR4Aor8HrEySCAAQgEDgCgwYNsgcffNAtpD5jxozAyYdAEICA2bx589y6lFLM/Miu1apVCw0aDVhprcyKFStahQoVQiM3gkIg1wlgocz1bwDthwAEIJAAgSuuuMI95N1+++0J5CYLBCCQCQKtW7e2Qw891FV9wQUXWJiUSQktl93q1aujTGbiy0OdECgFASyUpYDHpRCAQG4SkLXuiSeeKHRJjWylIqtHkIJlyKVPVoxnnnnGrYmZrdxpVzgJNG/e3JYsWZL2+4R+F6tXr7bKlSuHE1ySpRaPFi1a2NSpU61evXpJLp3iIAABESh4gTHYQAACEIBAoQT0sKZXmIJdFNqYEJ/Qgu5Tpkyx3r172+TJk61bt24hbg2iZxsBLYHBfSLzvfrqq6/anDlz3KDTG2+8gVKZ+S5BgiwkgEKZhZ1KkyAAgdQTaNKkid19992pr4gaCiXw1FNPOYWydu3a1rNnT3vllVdQKgulxYl0E5A1/7TTTuM+kW7wcfUNGDDApNx/9dVXKJVxbNiFQLIIMIcyWSQpBwIQgAAEMkJg1KhRVr9+fadUTps2LSMyUCkEIBBcApUqVbLHH388olTKFZkEAQgkjwAKZfJYUhIEIAABCGSAQIMGDWzSpEkolRlgT5UQCAuBgw8+GKUyLJ2FnKEjgEIZui5DYAhAAAIQiCfQrFkzlMp4KOxDAAIxBFAqY3CwA4GkEUChTBpKCoIABCAAgUwSQKnMJH3qhkA4CKBUhqOfkDJcBFAow9VfSAsBCEAAAkUQQKksAg6nIAABRwClki8CBJJLAIUyuTwpDQIQgAAEMkwApTLDHUD1EAgBAZTKEHQSIoaGAAplaLoKQSEAAQhAIFECKJWJkiIfBHKXAEpl7vY9LU8uARTK5PKkNAhAAAIQCAgBlMqAdARiQCDABFAqA9w5iBYaAiiUoekqBIUABCAAgeISQKksLjHyQyD3CKBU5l6f0+LkEkChTC5PSoMABCAAgYARQKkMWIcgDgQCSAClMoCdgkihIYBCGZquQlAIQAACECgpAV+prFevnvXs2dOmTZtW0qK4DgIQyFICKJVZ2rE0K+UEUChTjpgKIAABCEAgCASkVL7yyiuGUhmE3kAGCASTAEplMPsFqYJNAIUy2P2DdBCAAAQgkEQCKJVJhElREMhSAiiVWdqxNCtlBFAoU4aWgiEAAQhAIIgEUCqD2CvIBIFgEUCpDFZ/IE2wCaBQBrt/kA4CEIAABFJAAKUyBVApEgJZRgClMss6lOakjAAKZcrQUjAEIAABCASZAEplkHsH2SAQDAIolcHoB6QINgEUymD3D9JBAAIQgEAKCaBUphAuRUMgSwigVGZJR9KMlBFAoUwZWgqGAAQgAIEwEECpDEMvISMEMksApTKz/Kk92ARQKIPdP0gHAQhAAAJpIIBSmQbIVAGBkBNAqQx5ByJ+ygigUKYMLQVDAAIQgECYCKBUhqm3kBUCmSGAUpkZ7tQabAIolMHuH6SDAAQgAIE0EkCpTCNsqoJASAmgVIa04xA7ZQTKpaxkCoYABCAAAQikgcDYsWNt9uzZSa1p0KBBdtttt1mPHj1sypQp1q1bt6SWT2EQgED6CCxcuNB0n0h2OvXUU+2BBx6wrl272ocffmj16tVLdhWUB4FQEEChDEU3ISQEIAABCBRG4N577y3sVFKOX3755TZt2rSklEUhEIBAZgicccYZKat43rx59vDDD9vFF1+csjooGAJBJoBCGeTeQTYIQAACECiUQM+ePW3OnDmFnk/GiQEDBiSjGMqAAAQyRODGG2+0YcOGpaz25cuXOwtlXl5eyuqgYAgEnQAKZdB7CPkgAAEIQKBAAjVq1DC9UpkqV66cyuIpGwIQSDGBJk2amF6pSkuXLk1V0ZQLgdAQIChPaLoKQSEAAQhAAAIQgAAEIAABCASLAAplsPoDaSAAAQhAAAIQgAAEIAABCISGAAplaLoKQSEAAQhAAAIQgAAEIAABCASLAAplsPoDaSAAAQhAAAIQgAAEIAABCISGAAplaLoKQSEAAQhAAAIQgAAEIAABCASLAFFeg9UfSAMBCEAgcATefPNNmzx5sq1bt85uv/32AuW7//77bYsttrBBgwYVeJ6DEIBAeAk89NBD7vc/ePDgtDXiiy++sKlTp1qvXr2sdevWaauXiiAAgeITQKEsPjOugAAEIJAzBGbMmGE9evQwrbFWr169QhVKrfOGQpkzXwsammMELr30Ulu7dq2lU6GcMmWKXXTRRbbVVluhUObY943mho8ACmX4+gyJIQABCKSNwLvvvuuUyZNOOsmuu+66Qus94ogjrFw5/lIKBcQJCISYwHHHHWdlyjBLKsRdiOgQSCkB/v1TipfCIQABCJScwN9//23VqlXbbAFyRZUFsUKFCpG82v/111+tYcOGVrZs2cjx+I3N5Vu+fLm75MADD7SmTZvGXx7Zv++++yLb8Rtqh6yXVatWjT8V2d+cHJGM/7/xzz//WOXKleMPsw+BrCSQjntBUeAKc3X3r5H1UgNKmVY6dR9Zv369lS9f3heNTwhAIA0EGG5KA2SqgAAEILA5AlKQOnXqZKeffrpJOdt5552tRo0azs303HPPtTVr1kSKeOGFF6xt27Y2btw4kytakyZN7KqrrnLnly5dascee6zVrl3bKYBS4g466CD77rvvItdrI5F8hx9+uD3wwAPuugsvvNCVE1NI1M6+++5r++23X9QRs8cee8xatGhh1atXdy/Ng3rwwQdj8iQix9ixY117X3zxRTvzzDNde6tUqWJbb711RL6YQtmBQIgJpOte8NRTT7nf1SmnnJKP1h133OHOjRo1yp3T73uvvfaK5Ovatav17NnT5MHQuXNnN/BVs2ZNO/jgg23JkiWRfNr4448/TBbOBg0aWP369e3oo4+2t956y7p372433nhjTN7N7cycOdM6dOhg22yzjb333nuR7LNmzbL999/fatWq5QaudtttN9O8Tz8dcsghrj3Tp0/3D7lPKerbbbed7bDDDm6OaMxJdiAAgcQJeKM5JAhAAAIQKAaBAQMG5HlKXDGu2HxW78Emz7tz53nWRPfZsWPHvCOPPDKvbt26bt9T7iKFPProo+6Y93DmPj3LZN4tt9ySpzJatWrljnkPeXme8pXnPQS6fc/Smff999+7MhLNd9555+W1bNnSXe89QOadcMIJERniN7z5lXmSx09ffvllnmetyPMspHknn3xynqcoR9riPci6bInKcdddd0XaoDK9IB153sOjO+ZZPvO8B0u/2qR/7rHHHnl77rln0sulwOwn4Ck3eaeddlqxG5que8HChQvd/Ub3j2XLlsXI2b59e/f7+vTTT91x/b69Aa5IHu3rOs8SmOcNFOUdddRReZ4Hg7vGm3Mdyed5OOR5g0ruuO6ZnhKap2t1r9Nr4MCBkbzxGzfddJPL4w2guVOfffaZu4foHuANTEWye4F78jxvBXe/8RTHvL59++bVqVPHXesNuLl8V1xxhds/66yzItdpwxuUc8cPO+ywmOPF2fnzzz9dGTfccENxLiMvBLKKgNykSBCAAAQgUAwCqVQo9ZB19tlnR6T5+eefIw9gnjXAHfcVSuW9+uqr83777Td3XNs61r9//7yNGzdGyrjkkkvccW+eY7HyKfPw4cPdtS+99FKkvII24hVKMZIszz77bCT77Nmz3bHevXu7Y4nK6yuUemj0LAyR8qTwqg49eKYqoVCmimz2l1tahVLf7VTfCzxXdvcbeuKJJyId4v9Od9xxx8ixghRK/17jWVRdPimo+o1q8Mq///iKnBQ2/9jvv/+e51kYXb2JKpQff/yxUxKlTHqeDxG5PPfWPM+66Mp68sknI8fnzZvnBrM0QCe55s6d6/I0btw4Iocy656odjzzzDORa4u7gUJZXGLkz0YCuLx6dxISBCAAgaAQ8B6Y7Prrr4+Io3mL3kOl25d7WXTyrJjO1VWuZEpPP/20+9TSHZqz6KehQ4e6TYXgV0o0n8tcwjfNY1IaPXq0ffPNN257++23N89Kap6C6PaLK8eJJ55ou+++u7tWbwcccIDbnjNnTuQYGxDIFgLpuBfoN6U0fvz4CDa5wip5ngWRY4VtyDW2UqVK7rSnrDnXUc/Caj/99JM75perfP49SW6vigqdaProo4+cO6unuJmn+JrnKRG59JNPPjG5uzZv3ty8gbTIcc9Tw/r162cbNmywiRMnOnfXXXfd1c0r991eV65caa+++qqbWnDooYdGrmUDAhAoPgEUyuIz4woIQAACKSOw5ZZb5gteo/k9SvPnz4+p17P0Rfa90X93XsEoNH8oOknhlGKqB7LFixcnlE/znkqTNO9TAYU0V6pdu3Yu7L/mP0q5lCyJyhstR5s2bWJE8qwmbn/16tUxx9mBQDYQSPW9QL8tzZPWXG2tMytFUEkDPbqPaN5jUUm/bwX9ik7Rv0nPCmMLFiwwzXfW0h/RybN+Ru8Wua0Btr/++svliY8k7Q9W6d4mhVFzz/2Xr8x6HhzuWs9rwn36x19++WXTfFXPRTaiFBcpCCchAIFCCaBQFoqGExCAAATST8C3NkbX7Ecz1Wh7dNKDmp9WrVrlAvcoGE/0cZ3Xg51G45WkyCnAz+byVaxY0eUv6ZuCdnhuZjZixAjz3EadxeKee+5xVkVvXpklKm+0HD6HksrEdRAIE4FU3wv029Jvypv/aBqUmTRpknlzJu3bb781BbGRJbGotLnfoyK/qlwpnr510i9Pv/9EkyygQ4YMcdnlrSHl0U8K6qWkOjRQFf3aZZddTJZHWSuVFAxICulzzz3n7omeO7477iuaboc3CPxfe+cBJkWxteECFHNAMScUxYQZzKiYcw7XHBBEwayomEDBgFlQMQfMXhVRMKIgimJCDCAKYgIFRcyChP7rO/evsXeY2Z1lZ3Z7tt96nt2pqe6uOvVWd0+dOqeqIDBPBFAo5wkbF0EAAhAoDYEw4h7PPaRpVdN8QR0qdQD9/CT32WefVThNip1G+HVcFoVCzlN+NQnDhw83WfwcTFuNUSs/aoVXufFp9UUpx7UhR03qwLUQqEsC4bmPyxDSivEuCM94cCGV5S64u2rf2ZoGKaxyg9U7Se+geNBqrYUGrTR7yy23mHIoa2Nw4df1WjlaQdZcP8+7wp/c7bt06ZJZnVoKul8wyPl56W7w4MHm7ioFdIcddrA8+AcBCMw7ARTKeWfHlRCAAASKTkCKnzpGIciaqI6Rgpburyxo+X4FuXLFQ8hPe0kqFHpePI94XG6zmrekfS7zBbmRyTIZLBFyq1MndeWVVzbrgNJrKke+skmHQH0gUBvvAnFq06aN86s5m4XSL/hl23vIQlmMoC0+FDSPMQS/oqy74YYbwtfMp+ZC670iL4p40MCTQu/evc37QtsRvfTSS5a28cYb2/67ftEe5xffsTT9Ux56B6luY8aMyaQHa6S2StE7SN81yEWAAARqRmC+ml3O1RCAAAQgUGwCRx99tLl4aaGJBx54wCyO2uNxiy22qLSoyy67zA0aNMhdcMEF5hamuZeyBPhVUG1OVFgIo9Dz8hXmtyhxV199tdM8yXwbnmt+p/bT1F51mjupTpv2z/zmm2+cFhOS5aKmcuSTj3QI1BcCpX4XiJPcUVWOnkfNKZQFMHuu4rzy7Nmzpyl/2i9XrrTak1bKZbC0hnzlGqtFuxTkxqr9JLOD5mFqv12/arXt1+tXo7U9ac8++2xbyKxt27YmuyyjUoxHjBhhg3Aa2ApBc0ZlmQ2LBoVFicJxPiEAgXkjgEI5b9y4CgIQgEBJCGgBG1nx/J5mmfy1obhfEj8zkh7mI/kl8TPnKLLpppu6/v372+qM8ZVipbxpvpA2A6/OeTo3lBE+lRZG9ONpSo+HK664whb/efnll93QoUMzh2RR8Hu/2fdC5c1XXmXlZwokAoEyJVAb74KAJiiU+i5PguygZzD+vOl7eC7j58bPUbqecb0DNPh05513mvK63nrrObmxnnbaaW6JJZawy8M7TV9CHiEtfNcxKbv9+vVzUia7d+/uevXqZZ+ySGrgrGPHjjrNytH8SbnXh3yUrvnlBxxwgOXh95d16667rpIJEIBADQk00F4oNcyDyyEAAQikioA6X1q9dOLEiUWrtxbN0ci53EA1si530k8//dQseWHkvtDCNNov1zHNFZIS2aJFi0wnLZ5HoefFr8kXl1uaOm6aLxUPcmPze8I5LdChxTHkApfdES2mHPGyixFXp1P1GjZsWDGyI48UEdDCV9q6Qpb66oS6eBdUR77qnCtFT3+yeP7+++/2HpJSJ28FvwekeWDofVqMoHnaI0eOtHeN3pnNmjXLme0555zj5GUhxTS4wOY8scBEWVSXWmopGwSU9ZQAgTQSwEKZxlanzhCAQOIJyKqov3kJWhVRS+jrr7JQ6HmV5aFjmouk+V4rrrjiXKfKGqG/ykKx5KisDI5BoFwJ1Ma7oFRspLDJI0GL/YR9ImfOnJnZizbMsSxG+dqyRIvuVBakrGsOpgbADj744MpO5RgEIFANAsxErgYsToUABCAAgYoEHnroIbOCzpo1y/Z/q3iUbxCAQJoJyEKrICvkrrvu6jp37mzvCXl4SKFr2bJlreDRoJfmoGv/S1kyzz33XPaerBXyFJIWAiiUaWlp6gkBCCSagNxA5Z5a2XYASayA3FW1CIYW4bn22muTKCIyQaCsCJTruyAXZC2Co+1I9Kk9Lvv27Wsu5FpIR5bLbPf3XHkUI01u6xMmTDB3WM2z1PxNAgQgUDwCuLwWjyU5QQACEJhnAtokPL68/TxnVMsXtmvXzumPAAEIFIdAub4L8tVe23foT3MpNZdaLu61HcQ0e353bctAeRCozwSwUNbn1qVuEIAABCAAAQhAIAEEZI2sC2UyAVVHBAjUewIolPW+iakgBCAAAQhAAAIQgAAEIACB0hBAoSwNV3KFAAQgAAEIQAACEIAABCBQ7wmgUNb7JqaCEIAABCAAAQhAAAIQgAAESkMAhbI0XMkVAhCAAAQgAAEIQAACEIBAvSeAQlnvm5gKQgACEIAABCAAAQhAAAIQKA0BFMrScCVXCEAAAhCAAAQgAAEIQAAC9Z4ACmW9b2IqCAEIQAACEIAABCAAAQhAoDQEUChLw5VcIQABCEAAAhCAAAQgAAEI1HsCKJT1vompIAQgAAEIQAACEIAABCAAgdIQQKEsDVdyhQAEIAABCEAAAhCAAAQgUO8JoFDW+yamghCAAAQgAAEIQAACEIAABEpDAIWyNFzJFQIQgAAEIAABCEAAAhCAQL0ngEJZ75uYCkIAAhCAAAQgAAEIQAACECgNARTK0nAlVwhAAAIQgAAEIAABCEAAAvWeAAplvW9iKggBCEAAAhCAAAQgAAEIQKA0BFAoS8OVXCEAAQhAAAIQgAAEIAABCNR7AiiU9b6JqSAEIAABCEAAAhCAAAQgAIHSEEChLA1XcoUABCAAAQhAAAIQgAAEIFDvCaBQ1vsmpoIQgAAEIAABCEAAAhCAAARKQwCFsjRcyRUCEIAABCAAAQhAAAIQgEC9J4BCWe+bmApCAAIQgAAEIAABCEAAAhAoDQEUytJwJVcIQAACEIAABCAAAQhAAAL1ngAKZb1vYioIAQhAAAIQgAAEIAABCECgNATmK0225AoBCECgfhOYNGmSGzt2bP2uJLVz48aNc2uttRYkIFBtArNnz7Z3BO+JaqMrqwumTZtWVvIiLARKQQCFshRUyRMCEEgFgXXWWScV9Ux7JVEo034HzFv9GzVq5IYOHep4T8wbP66CAATKhwAKZfm0FZJCAAIJIdC+fXvXtm3bhEiDGKUmsNxyy5W6CPKvhwT69OnjZsyYUQ9rRpVyEWjVqlWuZNIgkAoCDSIfUlFTKgkBCEAAAhCAAAQgAAEIQAACRSXAojxFxUlmEIAABCAAAQhAAAIQgAAE0kMAhTI9bU1NIQABCEAAAhCAAAQgAAEIFJUACmVRcZIZBCAAAQhAAAIQgAAEIACB9BBAoUxPW1NTCEAAAhCAAAQgAAEIQAACRSWAQllUnGQGAQhAAAIQgAAEIAABCEAgPQRQKNPT1tQUAhCAAAQgAAEIQAACEIBAUQmgUBYVJ5lBAAIQgAAEIAABCEAAAhBIDwEUyvS0NTWFAAQgAAEIQAACEIAABCBQVAIolEXFSWYQgAAEIAABCEAAAhCAAATSQwCFMj1tTU0hAAEIQAACEIAABCAAAQgUlQAKZVFxkhkEIAABCEAAAhCAAAQgAIH0EEChTE9bU1MIQAACEIAABCAAAQhAAAJFJYBCWVScZAYBCEAAAhCAAAQgAAEIQCA9BFAo09PW1BQCEIAABCAAAQhAAAIQgEBRCaBQFhUnmUEAAhCAAAQgAAEIQAACEEgPARTK9LQ1NYUABCAAAQhAAAIQgAAEIFBUAiiURcVJZhCAAAQgAAEIQAACEIAABNJDAIUyPW1NTSEAAQhAAAIQgAAEIAABCBSVAAplUXGSGQQgAAEIQAACEIAABCAAgfQQQKFMT1tTUwhAAAIQgAAEIAABCEAAAkUlgEJZVJxkBgEIQAACEIAABCAAAQhAID0EUCjT09bUFAIQgAAEIAABCEAAAhCAQFEJoFAWFSeZQQACEIAABCAAAQhAAAIQSA8BFMr0tDU1hQAEIAABCEAAAhCAAAQgUFQCKJRFxUlmEIAABCAAAQhAAAIQgAAE0kMAhTI9bU1NIQABCEAAAhCAAAQgAAEIFJUACmVRcZIZBCAAAQhAAAIQgAAEIACB9BBAoUxPW1NTCEAAAhCAAAQgAAEIQAACRSWAQllUnGQGAQhAAAIQgAAEIAABCEAgPQRQKNPT1tQUAhCAAAQgAAEIQAACEIBAUQmgUBYVJ5lBAAIQgAAEIAABCEAAAhBIDwEUyvS0NTWFAAQgAAEIQAACEIAABCBQVAIolEXFSWYQgAAEIAABCEAAAhCAAATSQwCFMj1tTU0hAAEIQAACEIAABCAAAQgUlQAKZVFxkhkEIAABCEAAAhCAAAQgAIH0EEChTE9bU1MIQAACEIAABCAAAQhAAAJFJYBCWVScZAYBCEAAAhCAAAQgAAEIQCA9BFAo09PW1BQCEIAABCAAAQhAAAIQgEBRCaBQFhUnmUEAAhCAAAQgAAEIQAACEEgPARTK9LQ1NYUABCAAAQhAAAIQgAAEIFBUAiiURcVJZhCAAAQgAAEIQAACEIAABNJDAIUyPW1NTSEAAQhAAAIQgAAEIAABCBSVQKNuPhQ1RzKDAAQgAIFaJTBjxgz366+/uvnmm8/KnTZtmmvUqJFr2LCh+/nnn+1Tx6ZOnWrH559/fkufM2eOa9y4sdP5s2fPtrjy+eeff9wCCyzgfvvtNzd9+nS34IILut9//939/fffFv/zzz/dH3/84RZaaCH3119/2XkLL7ywnavrdb7yUFz5zJo1y/3yyy+Wv8pUefMqq/JRfpI7n6ySTXJJjnKQVTKKZSllbdCggVO757sHxHXmzJnWXpVxramskiGKokrvgdqQVbzDc5N9v+pZEI/KZNXzpWerlLLqedMzWEpZ9SyG90C+e0DPfngP6NnKdQ8kSdbwniqlrHq3VnYPxN+plXGtqax6D1Z1v9a1rHqviEFlsuo5Cr9VpeKq3wTdy3qe8t2vNZFV77Xsemb/zqluai+1Sb0LHgABAhCAAATKhMBHH31kkj7xxBPRiiuuGH3++efRww8/HPkfp+jZZ5+NPv30U4vff//90ffff2/xG264IfKdZ4tfdNFFdv2iiy4anXLKKRZfbbXVov/85z8W32STTaJddtnF4jvttFO02WabWfyQQw6JVl99dYt37NgxWmKJJSzetWtXy9f/EEfXXnutxSdPnhzde++9Fh8zZkz0zDPPWPyNN96Ihg0bZvEBAwZkZL3vvvuiH374wdKvv/76yCujFr/wwgutjMUWWyw6+eSTLd6sWbPosMMOs/imm24a7bzzzhbXp74rHHrooZHOU9B1iy++uMWVnzgp/+uuu87iKlflK3306NGR5FJcckpexSW/jimueql+iisP1VtxcVBQWeKjIF6SRUEcg6ziK84Kqov4K6g9VFcFtZPyVbuJieJqT7Wr4mpntbfikvXNN9+0eP/+/SMxV/o999wTTZkyxeJqG6+IW/yCCy6wMtSGJ510ksXXWGONSG2s0KpVq0htr7DrrrtGG2+8scV1j6y66qoW79SpU6R7SOHiiy+2fL3SEeleU9mTJk3KyPrJJ59Ezz33nKW//vrr0fDhwy3+9NNPR5999pnF77777ujHH3+0+DXXXBP5TpfFzz//fCtjySWXjDp06GBxyXrwwQdbvHXr1tGOO+5o8d122y3aaKONLH744YdHq6yyisU7d+4cLbLIIha/5JJLLF/foYxuvPFGi0+cODF64IEHLP7xxx9HAwcOtPjQoUOjt956y+JPPfVUNHbsWIvfdddd0U8//WTxXr16Re4s1XcAAD+ZSURBVF4hs3iQtUmTJlH79u2tvObNm0cHHXSQxTfffPOobdu2Ft99992jDTfc0OJHHHFEtPLKK1v81FNPjfzgjMUvvfRSy1ey3nTTTRb/7rvvon79+llc74JBgwZZfMiQIdHbb79t8SeffNLeC2qHO++8M/KDCJZ+9dVXW75KP++88yy+1FJLRSeeeKLF11xzzejAAw+0+BZbbBHtsMMOFt9jjz2iDTbYwOJHHnlktNJKK1lcsvrOucW9bcLK8J326Oabb7b4t99+Gz344IMWHzVqVPT8889b/LXXXotGjBhh8f/+97/RF198YfE77rgjI+tVV11l+XpFI+rSpYvFl1566ahdu3YWX2uttaIDDjjA4ltuuWW0/fbbW3zPPfeMWrZsafGjjjrK3pH6ctppp0V+4MDSu3fvbuV5xTjq3bu3xb/55pvooYcesviHH34YvfDCCxZ/9dVXo3feecfieueOGzfO4rfffnvkFSCLX3nllZavVxKic8891+JNmzaNTjjhBIu3aNEi2n///S2+1VZbRdttt53F99prr4ysRx99dLTCCitY+umnnx75gTiLX3bZZVaGV46jPn36WPzrr7/OvPNHjhwZvfjii5Y+ePDg6N1337W4ZB0/frzF+/btG3kF1+JXXHGF5esVm+icc86x+DLLLBMdf/zxFl977bWj/fbbz+Jbb7111KZNG4vvvffe0frrr2/xY445Jlp++eUtfsYZZ0ReUbT45ZdfbmV4pS265ZZbLP7VV19FjzzyiMU/+OCDjKyvvPJK9N5771n6448/Hn355ZcWv+222yKvlFm8Z8+elq9XyqKzzz7b4ssuu2x03HHHWXydddaJ9t13X4tL1m233dbi++yzT7TeeutZ/Nhjj42WW245i5955pmRHySyeI8ePawMP2AT3XrrrRafMGFC9Oijj1r8/fffj1566SWLv/zyy5G+67l57LHHIp2nuK7zg28WV356nyld7ze95xTXe0/vP8X17hYP3dN63+m3Q8+N3jn1IWCh9K1MgAAEIJBkAv7HxiwhvqPtfIfPeSXFecXD+U678x1+5zsvznf0ne+oON/psu+K+x9S55UG5ztbziufzneqne/Q2rmyKOoc3+E1S94222zjfGfC4r4z6XznwaxVXrlwvpNucX3qu0aafafN+Y6cxf0Pu9P1SvedUud/2C0fr9RZXLL6DrOV5xUD5zsjFpfcklfyBVl9J9b5DqvJqrhXtmxEOciq0WXfeZhLVlmZvNLmvPJjsuozyKq6SFZZnCSr5FM8yKo8JavvPDmvJFWQVXKp7FyySu4gq7hKVnFVPoFrXFavUBg3WW3jsubiGmTN5hqXVVxVvsoTV8kqmXLJGrhKvnxcfWfX+IhlkFVxr6hnuAZZJV+4B4Ks4hruAcmkssRE8SCrWHqFy2TN5qr7wivkVgfVS9dnc1WbhXtAbSn5vFI5F1fJkX0PqH7ZsqqdJHcuWSV3kFVcfcfbeQXM5AuyZnPVfST5dG2QNRfXXPeA6hG4Bln1TIZ7QLJWxdV3uO1+jcuq+yJw1XMY7gHJqrjqny2r5Av3gOK6B/wgiLWv7gHJKsZ6tuKyKi+dn4urZNB7KHCVrOF+DVy9UmWyimu2rHGuanc9W/F7wCu9VraeLckqObzSnldWcQ2ySia9H/UeVTzIGu7XXFzj90BlskpuMVp33XWtPHENskrOXFy9QmT10/2geyBw9YMpFo/LqmcrcBXHbFnFUlx1XuAqmRQP96vy90q6PU9B1vBsBVnDPRC4qh7hHlBbSFavPNv9qnMka7hfA1f9HknWONfwbOlZUzxbVt2jSvcDdJlnS7KqDnqvi2u2rGIqeSWf7oEga5yrZK2Ma/weEFc9U5Jbn5JV/OKyimWu37nwm6w6KC5rrB9Qcn5QyvlBOmtfPU9embW6lKv1soG04iR3pJANAhCAQJoJeGuT81YB50durRPuR0GdH6G1H7Q0c6HuEIAABCAAgXIm4D1kbFDHe0KYkuk9YOz3vRzrhEJZjq2GzBCAQCoIaP6U5iJ6V0nn3dWcd+lLRb2pJAQgAAEIQCAtBGTb81MYnHeDdt4N3PmpLM5PezBrZrkwQKEsl5ZCTghAIFUE/Jwfp1FLPxfD3HnkJkOAAAQgAAEIQKD+EvDzhJ2ft+v8XExzUy6XmjYsF0GREwIQgECaCGhOheayaC4KymSaWp66QgACEIBAWgn4Rb+cX2jNVt32C7+VDQYslGXTVAgKAQikgYBfadC2dpCFkgABCEAAAhCAQPoI+JWOze3Vr95sC8wlnQAKZdJbCPkgAIFUEfBL9Nt+XH4biMxejakCQGUhAAEIQAACKSeg/Sr9tjCmTGrv5bCnZVKxoFAmtWWQCwIQSB0BbbYsF1dtiq3lxQkQgAAEIAABCKSXwFlnneX8Pp3O7zGcaAjMoUx08yAcBCCQFgJ+g3fnN2J3ftNvlMm0NDr1hAAEIAABCFRCQPsKa8/TmTNnVnJW3R+ar+5FQAIIQAACENCPhTZK1kbd2WHOnHRsF9ywISvZZrc93yEAAQhAIL0EunbtapWX51KTJk0SCwKX18Q2DYJBAAJpITBnzhyn+RLzzz9/zirP+CfZI5M5hZ6HxPnna+QaNsRxZh7QcQkEIAABCNRTApdffrm7/vrr3eTJk13jxo0TWUsslIlsFoSCAATSRGDUqFFmndSGxrvsskuaqk5dIQABCJQFgdGjR7sTTjihLGTNJeT555/v9t9//1yHSEs4gS222MIdeeSR7rfffnNygU1iQKFMYqsgEwQgkCoC2mdyn332cc2bN09VvaksBCAAgXIh8Mcff7gRI0a49ddf3y2zzDLlIrbTYm+Se8qUKWUjM4JWJLDrrrs6/SU5oFAmuXWQDQIQSAWBjTfe2D344IOpqCuVhAAEIFDOBLp37+4OOuigsqnC+PHj3Zprrlk28iJobgKtW7d2slT26dMn9wl1nIpCWccNQPEQgAAEOnXq5D766CM3bNiwgmG8++67bpZfyGeVVVd1K6+8csHXJe3EKVMmu6+/+to19tultNps06SJhzwQgAAEIACBOiew0047JXpgAIWyzm8RBIAABNJOYKONNnJLLrlktTDsv/9+bupPP7lOnTq76/xk/XINd999t+verZu5+37++eflWg3khgAEIAABCJSMwFVXXVWyvIuRMQplMSiSBwQgAIEaEOjQoUMNruZSCEAAAhCAAATqMwEt2Ke5uw8//HAiq4lCmchmQSgIQCBNBDp37uy0guCrr75a9Gr/+OMU9+yAZ92ECRPcGmus4XZo29atvvrqFcp577333JAhr7koitx//nO4Gz9+nPvhh8lOltN1113Xzq0sn3/++ccNGDDAztvR5z/yw5Hurbfecttss41r02Y7N998//7UyMV14HMD3cSJE902225TQQ6+QAACEIAABCAwNwHNn1xiiSXmPpCQlH9/5RMiEGJAAAIQSBuBbAWvWPUf/uab7tDDDnU//fhjJsuFF17YPeRHOPfYY09L69Ontzv3nHNMmVTCbbfe6mbOnOWkQF7m976SQllVPn/8/rs76sgjLD8t/jBu3DiL699qq63mRrzzrrn0fvzxx26fvff2yur3meMrrLBCJk4EAhCAAAQgAIG5CfTo0WPuxASlsIN0ghoDUSAAgXQSOPvss4u+cpushh06tDdlUpbJ88+/wGk12b/++ssdecQRTkvgy0rY9YILTJls1qyZO+roo93vXjmUMhlCIfmEc/X5ww8/uHPOOddtttlmlvz11197i+RzFj/rrDMzyuTOO+/iWm++ufv++/8pl7KOEiAAAQhAAAIQmJvAwQcf7Dp27Dj3gYSkYKFMSEMgBgQgkF4CF3ilbuzYse6pp54qGoRRo0ZlLIW9rrnWbendZfbZd1+3zdZbmVI54Jln3K+//eqkMDZs2NC98OJLTkrlqaee5rbYvHVGjkLy2X333TPnX3zJJe70089wc+bMccs0Xdr9+eef7utvvnaTJ//ghr3+up130UUXu4suvtjO2X67Nk4r1hIgAAEIQKB8CPz2229O0yXkebKAX6V7vfXW81Mc2jjtq0woPgF58zRp0qT4GRcpRxTKIoEkGwhAAALzSkA/xnJFLWaIu50efNCBc2UtJW/az9MsfZVVVjFlUl80b3KZZZbNWCkLySeeua5XkJLatGlTUyhlffxqwleWrn9hg2ads8suu6JQZsgQgQAEIJB8As8//7w72nu0TJ06tYKwW221lXvkkUdsqkOFAyn98sADD7hFF13UHXjg3L/B1UXSu3fv6l5Sq+ejUNYqbgqDAAQgMDeBbt26zZ1Yw5QFF1wwk0PnzqfONZm/zbZt3CuvvGLnaKQ5BLm8/vLL/xRNpRWST7hWnws0XiD+NWf8t9//LW+yX6SHAAEIQAAC5UHgxRdfdHvttZdbaaWVXP/+/c0qOX78ePfkk0+6q6++2h100EHu7bffrrAYW3nUrPhS9urVy63q94ouhkLZrl07t9RSS7lrrrmm+IIWIUcUyiJAJAsIQAACNSHQs2dPv7LqeHfPPfdUOxutmjpmzJi5rltrrbUyaSuvsrI744wzzep4Rc8rbM7kwoss4tb1LkoK06ZNc7173+yOOeZYd4Pf03LmzJmZa1u0aJGJ58snc0IlEckjVyhZK7XsuVZ/nTx5snvBj3QTKhKYMWOGkwVgX++iLCtuXQTNsdW+oFowqjpuVt988417//33XcuWLV38HqyLOlRW5o9+oarvvvvOLPKlYqznSO6A+cLSSy/tVl55ZSe3cnXOl1tuuXynkg6BRBDQVIZzzz3XzT///G7YsGEZzxYpOq1bt3Zffvmle+KJJ9wbb7zhdthhB5NZ0yre9AvE6X0ibxilB48c/QZ8++23Nudexz/66CM7ru0xfv75Z8tHq4RrxfCwwqmeXf1pwTg9O3rGNGdfLrfxoLyHDx9uVtQNNtjAaZXUEHRMz7+u0/X604Jy+t6oUaNwmn3qmFZh17tw0003zSjK2XnonM39ugBhkb2RI0e6v//+2/3k94vWtA7xqUnQ+yT+21yTvEpyrf9xJ0AAAhCAQB0S8IvyRH7EN68E02f8E2X/Ld20qVaxyfs39edpkV/4xo57l9po2zZtoiWXXNK+e5fWSMd//+PPyC/YkzcPv8qrlVtVPpMmfZ/J47XXhmRk9Su8WrqfV2lpRxx5ZOa8psssE/lOSea75Jg9e3ZeBmk7cNJJJ0Xrr79+1Ldv3zrhMmTIEGubG2+8sWD0fh5wtNBCC1X7uoILqMGJftAkuvbaayPfObRcbrrpJpPTLxpVg1wrv9R3lDP3d65ndc8994x++eUXO8dvWl55ZhytcwIjRoywtvrvf/9b57JURwA/bcHkvv3226tzWc5zP/30U8vLW8tyHp8yZUo0cODAyCtrdtwPMEVeCbNrvGJon17hiryyZcfDc+inQdgxPSd+gCe68MILI6+kZtL0++AVOLumS5culu7na2aO6zq/FkFGJm85jRZffHE7Hsr1A3SRV/AqlHtk7DdJeRx++OGZPLy3TuQtixXK8AOs0RdffJE3D6+MRl6htuNeKc5cqzrV91A3Q5++1QgQgAAEIPA/Ar6j6577/5VQC2VS1cIHsrrcc+89br/99nOyeL3hR5N959VGYZ/2bkqLeAulRplffOllP6dxN/u+/PIruE6dOruwlYeOK1SVTwNfVgiVWXuuu+56p9VdFbSViWQ47vjj7Xv2qLAlpvifFmrynTdb1U+j648//rgtYpRkJK/7RZc0Iv/ggw/6FYY7JEpUrSZ8jt8eJywAteWWW7qLLrooY/UopbByD1T7Zf+pjQkQKCcCsiIqaMXwXEGWRT9QYhZ3Hdcey1pw7qWXXrLfIe1PrCkWmn85a9asTBZacVxTMOSZod8Fee3ss88+5n1zxRVXmOXzhRdeyJyviFYslzyycO6xxx7uyiuvdHoHyXp5zDHHOHnXKF9N49BvrPZKVl7x8M4775h7rqyJsi5q/qeuV7j00kttobzL/fZZskYOHTrUrKaHHnpoPAsX8tB7b7HFFsus2C7Z1llnHf+bt7NdV+Giefhy1llnucsuu2werqydS3B5rR3OlAIBCEAgLwE/Suu++uord8MNN+Q9J/vAd99NzE6a67u3FrnHHn/CyS123Bfj3IrerU77QgZlVD+2o0d/6jp17uT6+R9DP6Lr3XN+dLfeeovlFRbYWXbZ5SrNRy6R3oI6V/ljP/+iQprOe27gQCe3SC3mIEVJ7kx9+95e4Ty+/G//zhNOOMHcoOVKddhhh5lLlzo5Wj6+MsW9FPyy3buyXcS0XYzcthWWXXZZ6+zp/lP45JNPzA22cePG5rqmOUUK3iLtPvjgAxvkUH0GDRpk9VQHVPeoXNDkOieXuR28m5yuVydNLrXaCkcuZHEOGjiRi5tczLbeeutMp1YdSsmrMGHCBJNT7rhiGlzvdKwq17xCXeSUVzyorEMOOSSelIn/+uuvmXiIVCaHOr6See2117bT1fnVu0M85EKroHaQYi+3YwIEiklA0yMUll9++Sqz1SCOlDg9Z7vs8r+BRA3kdOrUyRSj+FQNKXw77bST5anfBSmeUhA1uHnKKae4rl27zjW1Q7+bwa3+jjvuMHdazen88MMPTWnVgM2KK65oeWprrrvvvtvcceNKmRa6Ca6wOkeyaiBv2223dbfccovTIkMaeFLQe00KstY88FZKS9O/kIfyefrpp03xVLr3CDL3WQ3MBnddpc9r0HOthe6SGlAok9oyyAUBCKSGgH5Y1ekuVZBCqL/sMGnSJLefn6enoD0hN9lkE/eoH6H1rjnWUW/devMKl+TLp8JJBXyRQhGUigJOT+0pl/gtWPr165eZNyNFq64Uy8cee8xvB3O68y5i7qGHHsq0iXcRszmx1113nVkBdECr+HpXWXfaaaf5bWhOtY6ZLNBSILWisTqP6phpnqasAhrx925ytiKwFvRo3769WQR0vhRABc0xPMLvnxpfkEIKtzqJCt4N0R177LGmyErJ1FwvdfBkGZHSKm4KsjZIKZXCqfpon1Tdi7Jy7L///nauBjlkPdFcKG3lI2tMVfW3zIvwryo5xEYKs5RIBfHQn+6V7t27W5oWAFHHc/DgwfadfxAoFgEN8ihogClXmD59uj1Del71bClsv/32FU4NA5VhAEoHZckLQauiyroYPGXCwnAaaImHDTfcMPNVc5E1j1Pvi3DedtttlzmuiMrVwkH6fQshXm5Q1mT5VD4aoNJgnp96EE7PWBr12xlCPA9ZaHV9KcIzfquvJId//ZSSLCWyQQACEKjHBPw8ObPE5KviAo3n96unFv9v2222ttFW/ZC+611/7rj9dhvZ1WiqOtJNl16qJOXmq0vc2pSPRZrSZU2W0hQsylKwFIJiWReusMG9K9tFTKP+fh5gRj5twC3FU6P8559/vimP6oSqk3fGGWeYFcFO9v/kCio3Obm7yQqpoO1qdK4GWmSdkDVdSutdd91lx9q2bevuu+8+U0J1vsoTDy3qIUVVllw/581pRUpZG2TxUJCie++991o8/q9Q17x89Y/nlR3XipeyasT/evTokX2afa9KDrn2qaMuK7+C3PAUhgwZYp+yWMoaK54ECBSbQLCMh/suO3+5jGoBnZdffjkzEKYBmniQ5VIhbrULSmM4L0y3CN+zP/VbocGpEORGK2t/GAzSOzN7GoWUQHnhhPepro3nEfLSZ3DH1SI9sqiGv4v9/sl6pzVr1ixzer48MicUKaIBo+p4MRWp2IKzqdjKBV/GiRCAAAQgUCwCsrLInU6d4NoOKlPWjc8++8wsN82bNzc3otr6kSxVfaV0yTUyHtTJlhtSCLL0yIIVD7JqiUE8aFXaeNBxnRcPUlzie7KpnOxOvTYBl3UsHmQ5i3d8ZHmS22YIWrlQx0MHR+nZiqXcz+T+VRuusMG9S3LEXcTkkhrcR+XarPtHAyVye1VHSIqiOo3X+1WEpfhpwELXK4illMp4kLXhzjvvtHm+6sxp7pM6qlo6X0HWytdee82Ua+WnMnRccYUwx0ttok5m6LyqQxlcce1E/686rnmV1T/kl/0phVKKaDzIChNc6UJ6IXLonpIyqrlimh8t66s8C6Q8yzr06quvmgUm+94LZfAJgZoQkNunXwzHLH26r+XCGoIsc3o+9KzvtttuGUugLOWyrIegwR0phFJOgyt6OFbopzwQdO+H8jWgovei3OD1vpQVUs+CPB4U9P7U+1cKYiFB73i9N/78809zuQ3XaJBM3gp6/9R20PtO/M8888zaLrqg8lAoC8LESRCAAARKR0A/fFr+vC4UStVKI7Zagl1/9SVIwZNLYzzIehVXKOVyJRfOeJASE1co1THJPkedo2yFUkp5XGmQO1Z2p16bXKvDFQ8HHHBABQVHy+sfddRR8VPM9VJWKXWi4iEolpq/KNdTKdEaQS9liLt3xV3EcpWpeUbq8AWro87RPabvskCGkM1J6ZoTGKwUUr4UpLSGECwaWkZf58maqT3fZDmVUq6OYKEhzIeqrmteVfUP5csiW4hloRA5tJWM5krKQqTy1VGWgqmFf9RR17tErrr16VkOHPlMBgENgMp9dMcdd3R+xVXbSkNbfMhyp+dP96O2B1GQRV2umnr3SRHVfavBIw1+hfmN81qrE0880d6nchOXh4QGivQ+1cI43bp1s99TucLqna93gxReueEXEvSO0nver4xrbvt6J8vqKnd9zU2O/45Ulp9k0ZxM1Tv7/VLZdbmOSWlOckChTHLrIBsEIJAKAvE5aamocC1UUiPIcQVERYYFHELxsmZJkY8HdUDiQcp29jmynmUHtWF87kxQeOLnyfVTnaB4yLYES7mKlxfcW+PzfsL1GuVXuubMyUIXn+sTzin2Z7a8leUvZSfb3U0WQ81xChZDXZ8rz1z8svPStaq/FgrRnEgpnsf7VYPV2dVIvjq8hYSwt1t2/rIYKlQlayFlFHJOIXKozWX9kYVSCqUs2LvvvrvNH1OHU9agXAp6IeVzDgQKIaD3qDw7tFiO3jshSMnSXsp6BkPQAJ3mSGt+cwiaY33rrbfa1+B+qvs6BMXj3+PpIa5PTQkIz7hkktIa3vGyImql12DBlNVSXg7BYpmv3Hj+cuGXC3mfPn0yK7dqznfwWMmVR/x6xTXQp9VZd/CDYbne4dnnV/Zd7vpSUIOXRmXn1sUxFMq6oE6ZEIAABGIENGKrzmu2RS12CtFqElBnO1iQ8l0qF834wg75zivknLBYRb48lK4R+apG5eUuqr8QNNKujku8M6LOlr5rlF+W0dpQJIM81flU506rtGpxi6A0hrmM2ZuQVyff7HPVwdO8Sa30qA6cwrPPPpt9Wt7voRNaCte8vIXmOFCIHLpMCqPq/Oijj5plUvdDmFOquZUolDngklRUApqXLI8PWQflbSCLpLwKshVBLc6jd4C8QXRvysMh/g7Uol36iwfNpY4HvTvi7z8dUzlayEvzIqX0hYV+wnV6BjSNRHOwNVCjwcPg6aBzcpWbrfTJPd7vKWl1lPeAFgmKW/5z5XHbbbc5/YUgi2ix3GPvv/9+W10XhTLQ5RMCEIAABCoQ0I+WXIVQKCtgSf0XLX+vZfBDZ6pcFMnQcCeddJItKqSOl/aAlFvceeedZ+5ish4UK4R5UbLQ+U3UbcGf8CypUymLqEb2FeQSqq0A4kGrvJbSNS9eVmXxQuWQhVL3glx7pUgqaMsFrWApt7+QVllZHINAMQhIkQzurfny04CYBtwKGXTLl0e+9MoG6eTl0KpVq3yXFpxeSB0ry6yqgc3Kro0fUx8hyQELZZJbB9kgAIFUEJC7ZFAaUlFhKlkQAbmUhftCnbLatEgGd64gaPget0DE4zov+7vc3LQljuYdyfVNQaP8zz33nLmRamVGhezrQll2MMfxkB4+5damjdK1equslNoYXe5tsuJpg3Qd33vvvW2epTYfl4IpC0s8zKtrXjyP7HioR3b94udln1OVHLpWHVQtPqI5u7KqKIQ9/KRMZi86ZCfwDwIQKGsCer/p3SYX4iSGBv7H6t8NWZIoITJBAAIQqOcEtKG73Hbi80zqeZWpXhUEZJ3U6p0K6kAk2bW1iqrYvolyPdO8Rq3sGF/Vtqprq3Ncz5Dc6uT+pvmQ6t5oPzlZGMICP3LR06I2YUXaeP46P59rXvy8UseTIkep61lu+UuB12Jc2vM0zMUrhzronpZ1UAvMdOjQoRxErlRGbSGkhciCZ0KlJ9ejg1q5Wit6v/DCC4msFQplIpsFoSAAgTQROOSQQ8zlNb7yZZrqT13nJiBrpBQv7cGYPT9o7rNJgQAESk0AhbLUhMm/MgLy6JC3Q3wuaGXn1/YxXF5rmzjlQQACEMgioJHjsMJj1iG+ppCAFrHRMvjFXLgmhRipMgQgAIF6Q+CVV14xd3bN905iQKFMYqsgEwQgkCoCcgfU1gfaqJwAAa1qiDLJfQCBZBLQ1j+dO3dOpnA5pAr71eY4RFIZEdAgo1xeUSjLqNEQFQIQgEBtEtBm91rBDYWyNqlTFgQgAIHCCWgxpHKe596iRYvCK8uZiSOgrZBKNf+8GJVlDmUxKJIHBCAAgRoQ0EIif//9ty1YUoNsuBQCEIAABCAAgXpIQPvkynsle4XqpFQVhTIpLYEcEIBAagnIOqkJ99tvv31qGVBxCEAAAhCAAARyE2CV19xcSIUABCAAgf8nwCqv3AoQgAAEIAABCOQjoLUWtP2Rtl5KYmBRniS2CjJBAAKpItCtWzf3xx9/pKrOVBYCEIAABCAAgcIITJ8+3SV5gSUUysLakbMgAAEIlIxA48aN3YILLliy/MkYAhCAAAQgAIHyJaDVhbXK6wsvvJDISjCHMpHNglAQgECaCODymqbWpq4QgAAEIACB6hF48803bVGeVq1aVe/CWjobC2UtgaYYCEAAAvkInHPOOe6XX37Jd5h0CEAAAhCAAARSTGDZZZd1882XXLUNC2WKb06qDgEIJIPA999/72bMmOGaNWuWDIGQAgIQgAAEIACBxBBgldfENAWCQAACEEgmAVxek9kuSAUBCEAAAhBIAoFBgwa5hRZayLVt2zYJ4swlQ3Jtp3OJSgIEIACB+kmgY8eOburUqfWzctQKAhCAAAQgAIEaEdhss81co0aNapRHKS/G5bWUdMkbAhCAQAEEtGXIrFmz3JJLLlnA2ZwCAQhAAAIQgECaCCTd5RULZZruRuoKAQgkksDxxx/vRo4c6caNG5dI+RAKAhCAAAQgAIG6I3Deeee5hRdeuO4EqKJkLJRVAOIwBCAAgVIT6N+/v5syZYrr0KFDqYsifwhAAAIQgAAEyozA9OnTXYMGDWzrkCSKjkKZxFZBJghAAAIQgAAEIAABCEAAAp4ALq/cBhCAAAQgUCkBVnmtFA8HIQABCEAAAqkmoMX7Fl100cQyYA5lYpsGwSAAgbQQ2G+//Vzr1q3TUl3qCQEIQAACEIBANQhIoUxywOU1ya2DbBCAAAQgAAEIQAACEIBAqglsueWWbtlll3UDBgxIJAcslIlsFoSCAATSRECrvH788cfuvffeS1O1qSsEIACBekvg8ssvdyNGjCi4fkcccYTTHwECuQgceOCBbrHFFst1KBFpKJSJaAaEgAAE0kxgiy22cCussEKaEVB3CEAAAvWKgAYIBw4c6Fq2bFllvUaPHu0GDRrk5syZ44466qgqz+eE9BHo0qVLoiuNy2uimwfhIAABCEAAAhCAAATKjYDmxn/++eduzJgxVYq+xBJLuIUWWsj99NNP7r777kOprJJY+k7Ybbfd3DLLLOMefPDBRFYeC2UimwWhIACBNBE49dRTnUaoBw8enKZqU1cIQAACEPAEtL+gFAYpoMcdd5wxwVLJrREn0KpVK6eBh6QGFMqktgxyQQACqSGw6qqrutmzZ6emvlQUAhCAAAQqEph//vndU0895TRXDqWyIhu+OdezZ89EY0ChTHTzIBwEIJAGAueee24aqkkdIQABCECgEgLaZxClshJAKT506KGHuqWXXtrddtttiaTQMJFSIRQEIACBFBHo2rWrO+igg1JUY6oKAQhAAAK5CASlUnsTy1KZ1DlzuWQnrXQEtGWIFMqkBiyUSW0Z5IIABFJDQK5OCyywQGrqS0UhAAEIQCA/gaBU4v6an1HajvTp0yfRVUahTHTzIBwEIJAGAt27d09DNakjBCAAAQgUSAClskBQKTmtffv2rkmTJq5Xr16JrDEur4lsFoSCAATSROCKK65w7dq1S1OVqSsEIAABCFRBICiVuL9WASoFh6dPn+5mzJiR2JpioUxs0yAYBCCQFgJTp05133//fVqqSz3LiIBWH/7oo4/cBx984H777TfXvHlzt/322yd2+Xo9S998843baKONXMOGlY+ZT5s2zTVq1MgtvvjiBbXIxx9/bK7pLVq0KOh8nfTnn3+6N99808rZaaedCr6utk+cOXOmU/2aNWvmllpqqZIVr20x/vjjj7z5b7zxxu7LL7+042uuuWbe89J0ICiVSXF/LaQN9Rx+99139hxGUeRGjRrlVlppJbfccsulqemKWtd+/foVNb+iZ+YbmgABCEAAAhCAAAQqEPAdwmjrrbeOfMejwp9fHCLyK1FWOLemX7xyF1177bWRV2pqlNUdd9xhso4fPz5vPr6zG/nOedS4cePIbyYfHXPMMdGcOXPynh8O+E3FjUf4XsjnlltuafJsu+22hZxeq+fcf//90ZNPPmllTpo0yeRUG5QybLXVVhXupex7yyub0S677BJtttlmpRSjVvLed999o3XWWaegsvz+gpH3Uon8oE3eP7WR7ic/CBJ55aKgfEtxUiFteNNNN1k7f/3119Evv/xi8auuuqoU4qQmz7POOiu67LLLEltfLJRFV9HJEAIQgED1CNx8883O//C66667rnoXcna9JCC3phEjRrjtttuuzuonK9IWW2zhJk+e7C6//HKnTdZlzRs4cKDr0aOHO/zww90777zjNtxww6LIKAv9OeecY9axli1bFiXPfJncfffd7uWXX3a33nqrk5VS2/YceeSRbtddd813yTyl//777+7tt982VioraUFzsbQHrixfstJefPHFzissJRdTFtC+ffvmLGfBBRfMmV7fE2fNmuW8gu/WXXfdSqu6zz772DN57LHHOrlAnnjiiZWeX6qDVbWh7qOLLroosZ4MpeJSyny/+OIL17Rp01IWUaO8UShrhI+LIQABCNScwCeffOI+/fTTmmdEDvWCgFb8veuuu6yD36VLF7fXXnvVer00uDFx4kTnLQ3utNNOy5TfsWNH69QccsghphTEFSXdx++//77zlj+3zTbbmLKiC+VO+eGHHzq5iv7999/urbfect4y6LylwzqcUrzkbqkwYcIE562L5nopN1u5Pcp1ddCgQe6www6zuJTc4cOHO7nVbbDBBqb42sUF/nvllVfciiuuaPOWVUcplPqsTqiqTjouhVtBrn4///yzW3LJJe17ZfKPHTvWzllrrbWc5NTnwgsv7L799lvnrXZO7oZyQd5hhx2ct5havm+88Yabb775jLm3dNn14d/o0aOtTaT4i1VwAx45cqS1xU8//eTeffddy1t8s10S57VNQ/m5PtX2un+qE/LJoYG4KVOmuE033dQGPOSirftGrMVOQYMG48aNs/onVWFV+8k9WoMqhYZu3brVmUJZVRuKve4n3bt//fVXzirpmdf9ufrqq1v7iQEhP4EBAwbkP5iEI4m1nSIYBCAAAQhAIKUEvGKRcQ1s06ZNNHjw4Folsd5660Vy8fTW0pzlvvjii5FXROyY3EU7depk8sodz/dtIq8UR71797bjwZ3SW1fMxVTH9bfaaqtFcqt97bXXMnVVuu+IZtzk/Gbe0SKLLGLHJUv//v0jb02z774Dap9yLfSKqpVViMurt7DadV5pj5S/VzKsvJwVjSXGXV6rqpO3MFsZoa7B5bUq+eXu6RdgibyV1q73exBGwX3QW1AzeXrFMLrwwgsjbynKpK2xxhqRV1ZN4h9++CHSd5Wvc/Xplaxo2LBhdlx1CbLpeKhPcHmtaZvGsFWIyl3SK9gV0rK/xF1eq5JDbpSqh1feLRt96ru39GWy9RZ2Y+AVz0xabUSq4/LqBwwiuYcW+qe8vXW5NqoxVxmFtGG4Z1WfbJdXP4BkLufh/tOnH2yKvAVurrJI+JeAXw0+uvHGG/9NSFjMJUwexIEABCCQOgL33HNPoudGpK5BElLhAw44INPpV6erthRLb+UxhdC73BZEQvO5JN/5559vip2UGikFUi69JSyjrEgBvP322yMpO6eeeqpd4/dWi7w1L/JWS/uuDpO3aGQ6ocrXW7Oi559/PpJCIGWyVatWkbcoWllSgHSOd9c0WQtRKL2rYLT88svbdZpD+fjjjxdUz1wKZb46eRfGaMyYMVbGlVdeGWluYCHyi5vq462JkRResQyd8/XXXz/yVktjsdhii9l53vXRyvErRdt3zYtU8JZka8NnnnnGBgXE1+93Gx188MF2XHNWNb9v5513NtbZCmVN29QKyfFPyohkv/TSS+f60yCKQlyhrEoOb621egdF+JprrrHvYqj7TKFt27aRd9+2eG3+q45CWV25/vOf/9SpQllVG4Z7NpdCqbmAah8p+rq/hw4dGnlXzmiTTTapLoZUna/3cXh+k1hxFMoktgoyQQACqSLg56NFsggRIBAnoA52sC6pAxasf6VWLGVBUHmy3hUSvHurWR7j1kwtrqM8pOgFZUWLjoSgc6XgnHzyyZbkXd/sfA2uKASrRlwRCJ3UsJCMnej/yRoVFj+pSqH89ddfIz1vkq1BgwaRd301xUMdWyljQQkJecc/cymUldXJzwu1cqQ0KxQiv5QpyfXVV19lig7XSakOQYsl6TyxVQi8pNQrePe46IknnrC4/kmWVVZZJdpxxx0zaVJQ99hjD/se2igoZsVo00xBsYgUSrHXfZ399+yzz9qZcYWyKjl0wcorrxzJ+q2w9957m2KiMh599FEbnJC1XNad2g71WaGsqg3DPZutUGrwSO2h+yAevPuu3RfepTueTLyMCFS+pra/YwgQgAAEIFBaAg8//DBzKEuLuCxz15xDLRbjO94mv+aHKWj+oLag0KI9r776qqUV85+2KdBcOq9c5c1W2wBorpqCFovQIhyaOxmCFhfRd81dC8ErfSFqx7QQTL75VeHEPffcM0Rt/qC+qN7xoC1CNO/S973iyTnjV199tXvsscfc9ddfb/MyvSLp9ttvP+etlE4LnXglLed1+RKrUyfNf1SoSn6v6DnvDjxXkfGy1Ea6P1ZYYQU7L8wN/Oeff+y7ylAbqV38qrx2nuZhFhpK2aaaU6p7OfvPK4NziVeIHF4pdppHqoVtvEuvO+GEE2xe3pAhQ2zLFj944eL30VyFkFBtAtVpw3jmmiOt9tDcSd3n4S8s0uQHNuKnE48R8Eq68wNusZRkRZkBm6z2QBoIQCCFBLwlwTrv3g0whbUvTZW1F+Fnn31WmsxrMVctvvLQQw9VKDFbsdRiLVqx01ufKpxXky9rr722LaSjvSel+MWDFsPRCrDaj9LPpbSOfPaCGjpHyk18kRgtNlTdEL9GCoMUPq02Gw/qhErGqpRBKZx+TqLzbp7uzDPPtCykYGohFC1Mo86tlK/qhLh8VV1XqPz58gxKYyjHW3hDdK7P4447znl3V1OS27dvb3Xr3LnzXOflS5CspWrTfGXmSi9EDimLd955p/Pusc5boO050MJFUii1OI8GR/SMEOqegNpTQe1x0EEHzSWQ9kEl5CZw7733Ou+qbwMmuc+o21QUyrrlT+kQgAAEzDqiVRdRKIt3M/jFT9zpp59evAzrOCcpS9kWuKBYamVVWSy16qOfm1YUSbUK5+uvv25bhEhZjYcbbrjBrAzawkBBKzrKQiTLQ1CGtJKrgnflts9i/FM5YiCrbOiMqoP63nvvFaQwSD6t+Onnf2XEOfvss51fFMi2Q/FzMzPppYjUVP5CZZLVVcqkLK/qhCpo1VlZSP2CPwVlU1ttWpUwhcihAQJZw/0efTYgoHtOz4OUTHl/yIJZ1WBDVXJwvDgEmjdvbgMVWtH2lFNOyWSqQTN5DhxxxBGZNCIVCaiPkOT7GIWyYnvxDQIQgECtE5DVxK9mWOvl1ucC/YI2rtT7GdYGP1la/Ty9nPeHLHVSKv18JOdXu5zLlbIm8qmz5+egOb/Iie2RKp6yiPl5fE77OMrCoC1EFE466SQbNdeAiKx92iLjvPPOM+vQMcccU6Vbq/IISp6URdUnuHLqWAhy/w1Ks583Z/lL2ZXbbHxrk3B+9qcsfH5RC9vvT9uiaGsTuUj6FXStburUyrInq3ApQk3lL1QmP9fTtmzRFiRyS9aeoj179nTankUKtf6aNGlizLVdkV8Uxdxn4/kXo03j+c1rvCo5lK/cf/28YmtHbVWhIGu9Ot96fnB3NSSJ+CfFXxZzvziXDaBqf1vtCevn7tr7OmytkwhhEyaE9in1K15Xe8ud2qoGCmVtkaYcCEAAAnkIqBOt/eCOPvroPGeQXF0CfgESp79yD+pwZYegSGqenBSs7Dl52efPy3fN23zqqaecLHga8NAcQwWlS8GVlTK4RGruoV/R1DqFsgopSCF87rnnzOVVe08qhLmg9uX//4U0KYiqh8qSq2zIJxzX6XL3khVDSqrmBiqIhV/hNGOxrGoEX4qu5qCG/f7kKislUntR+q09TOHUnpmSJzso7yBPKCd8j5+bnRa+z6v8ucpSniHf7LKV7lfQtLaT4q/vGhDQRvNSLGW5f+CBB5xfnMj5FTfdDl6B9ov2xLMxV9matmmFDP//S6hLrmMhLX5OVfdWuEZKowYG/IquliSlWntvSmH2262E0/gsAoF4++TLLn5OiIf7VYNfP/74o/OLVdmf8th8883NmpwvP9Kd8ytg2zuwunu41ha7Bt59pOpZ7LUlDeVAAAIQSCEB/UDInSW+gEkKMVDlLAKaA6p5fcF6HRRJdZpLpUhmiWBf/QqipjDKQil5tKl5rqBBEW1Ar3mImoMpeasbtHDM0ksvbRui57vWb/th5ciN02+vYRaqfOfmSpdVV4v4yGK38cYbz5OcufItNK2m8hdajvjIHVoLJIW5rFpoSW7JslAqqM0U/LYN9pn9rxhtmp3nvHxPihzVkV0ux3IzlmJe7KDBAA2M+FVUi511reWnZ12LLmnwSfcooXICmh8s5Tx7TnvlV9XeURTK2mNNSRCAAARyEggLmORy88t5AYmpIKAOqd/+IVPX2lYkMwUTgQAEqk0AhbLayLigEgJPP/20DebtvvvulZxVd4ca1l3RlAwBCEAAAiKgEWytMkmAQCAg62RQJqVIap6bXKNL4d4ayuQTAhCAAASSScDvpWpur8mUzjnmUCa1ZZALAhBIDQHtLyWXV78RdmrqTEUrJ9CjRw9bWERz/pgDVjkrjkIAAhCo7wQ0wDgv0whqiwsKZW2RphwIQAACeQhohbuwcEmeU0hOEQFtb3HyySfbKqQpqjZVhQAEIACBPAS0xoJWql5ppZXynFG3ybi81i1/SocABCBgy/hPmTIFEhAwAlo0RVtaECAAAQhAAAIioBWZtddqUgMWyqS2DHJBAAKpIaCl/FnlNTXNTUUhAAEIQAAC1SLQr18/2y+3WhfV4skolLUIm6IgAAEI5CJw6aWX2ubjuY6RBgEIQAACEIBAuglof94kBxTKJLcOskEAAqkgoHkRYa/BVFSYSkIAAhCAAAQgUDCBdu3aueWXX9698MILBV9TmyeiUNYmbcqCAAQgkINA165dbQNybbZOgAAEIACB+kFA2//MN1/xu9qzZ892q6yySv2ARC0KItCnTx+n+fVJDcW/y5NaU+SCAAQgkFACXbp0YZXXhLYNYkEAAhCYFwL777+/W2uttebl0oKuadKkSUHncVL9INCwYUPXtGnTxFamQeRDYqVDMAhAAAIpIDBt2jQ3atQoW9lz/vnnT0GNqSIEIAABCEAAAoUQkKq2yCKLOLm99u7du5BLav0ctg2pdeQUCAEIQKAiAW1Y3LZtW/fJJ59UPMA3CEAAAhCAAARSTUAKpeZOtm/fPrEcsFAmtmkQDAIQSAuBiRMnurfeesvttttubrHFFktLtaknBCAAAQhAAAJVEBg9erTNxW3RokUVZ9bdYRTKumNPyRCAAAQyBKZPn+6GDx/udtxxx0waEQhAAAIQgAAE0k1g7733toX7vvvuO9eoUaNEwsDlNZHNglAQgEDaCPTq1cvtvPPObuzYsWmrOvWFAAQgAAEIQCAPgcsvv9zmTiZVmZTYWCjzNB7JEIAABGqTwKRJk8zt9YADDnBazY0AAQhAAAIQgEC6Cdxzzz1u2223dUl2d1ULoVCm+z6l9hCAQIII/PPPP+7666+3Hw/9gBAgAAEIQAACEEgnAa0A36xZM3fYYYe5O+64I9EQ2Icy0c2DcBCAQJoI/PXXX+7WW291mieBQpmmlqeuEIAABCAAgX8JaF2FJZZYwo0cObIsFuvDQvlv2xGDAAQgUOcEvv76a7fqqqu6zz77zK2xxhpugQUWqHOZEAACEIAABCAAgdohMGfOHLfffvvZyq5PPvlkWUyDYaJO7dwblAIBCECgIAKrrbaamzx5sttqq63cKaecUtA1nAQBCEAAAhCAQPkT0J6TWkdhk002cW3atCkLZVLUsVCW/71HDSAAgXpIQPMl9GOy4oorum+//da1bNmyHtaSKkEAAhCAAAQgIAKa7qKF+bp37+723HPPsoKChbKsmgthIQCBtBDo0KGDW3fddd25557rWrdu7aZMmZKWqlNPCEAAAhCAQGoI/PLLL2706NE2Z3LmzJluxowZZVd3LJRl12QIDAEIpInA999/7wYOHOhOPPFE1759e/vBufbaa9OEgLpCAAIQgAAE6hUBKY2ySDZv3ty8kX766Sf3ySefuAYNGpSNm2u8QbBQxmkQhwAEIJAwAiussIIpk5qkr21F/vjjD5Nw3333taXE9eXKK690V199taVL2bzkkkss3rdvX3fWWWdZvF+/fu6kk06y+NNPP+2OO+44N2vWLPfSSy9ZXCOkw4cPt/jEiRPdqFGjLD527Fg3fvx4i3/wwQfuhx9+sPjrr79ushzn83n++eed5n0o/sQTT1gZmv953333WbxLly6uT58+FpcrT5D1uuuucxdffLGlx2V98MEHnSy0CkFWjdq+/PLLVoaWUg+y6gf5o48+snQtZBRkff/9920uqmSKyzpo0CDLNy5rp06d3L333mvpcVkvu+wyd9VVV1l6XNbbb7/dnXnmmZYel7V///4mh9opLutbb71l6XJdjsv65ZdfWvp7772XkXXo0KHuzz//tHQNJCgc5+vw+OOPW1yyal8yhfPOO882u1Zcsuo+UNDWMxdddJHF47I+9NBDNiihA3FZX3nlFSvj559/tr1QVZ5k/fjjjy19zJgxLi6rrOU6Z8iQIXPJevzxx7vHHnvMyu7cuXNG1vPPP9/dfPPNlq5NuoOsN9xwg7vwwgstXW7eZ5xxhsUffvhhu+/15ZlnnrHy1AGLy/r2229b+jfffFNB1gkTJlj6u+++a5b9IKtWUVb8ueeeszLisp566qnu7rvvtvS4rD169HBXXHGFpcdlvfPOO93pp59u6XFZBwwYYGVI1sGDB1t86tSpbsSIERaXrOo0HuflkEXiq6++srhk/fHHHy3+2muvub///tviQdYTTjjBPfroo1ZeXNYLLrjA3XTTTZYel/XGG290Xbt2tfS4rI888ohr166dpQdZtZrkq6++auWpUxtk1QJhn376qaXrM8j6zjvvOJ13nK9DXNZnn33W8o3Letppp7m77rrL0uOy9uzZ0+lPIS6rztU1CnFZlbfKE5e4rJJF6ZItLqtkV7rqEmTVdaqr0lV3BbFQOQoqV6wUxE5yKUhOsVUQa9VDIS6r2kb1VojLKj4qT20bl1Vtr3TdC3FZda8oXfdOtqwaVNS9pqB7L8iq50f3poLu1SCrnjfdywq6t3XfKOj51L2voPtL5enZiMuq+1Hpepbisur+Vbqevbisut+VrmdVIS6rnumw5UVcVr0D9C5QiMuq95veHQpxWfU+VBmSVe8exfUu0vtTccmqd5XienfpHaa4ZNW7TXG9P/R+VjzIqoFavRsV4rLqHap3qUJc1t69e9u7V+lxWeVNdMsttyjZdevWzfXq1cvi8d9k/Q6G+2f//fd3u+yyi52j32z9BjVq1KgslUlVAoXSmpJ/EIAABJJNQJP077//fifFS2GjjTZy6623nsWlXKkDoCBFSt8VpBRKQVHQD61+TBW++OIL9+KLLzopqerMKK4OwaRJkyz++++/WwdI6VLepGwqrsWCpOwoLqVTP8yK64dcQfHPP//c4uq8qYOnIIXuww8/tLh+3IOs6ggEWaVoqZOgEJd13Lhxlm8+WaVgq7OmsiXrr7/+avG4rFI6pZAGWaX85pN12LBhtky75IjLKq5vvvmmkk0pDFylxEp5VIjLqo6XylCnMHCVrOrcKl0dnLis6iQpPVtW5VuIrOo4B65xWdWxinMNskrxVr6zZ892cVllEVe67oFCZNWghM6XwplLVnWYFcQ1fg+oc60wr7JKsYjLqs6t5NBnnKvOU7o6l/F7QGVrMEUDJgq6X4Osb7zxRoV7IMiqAZVwD8S56h5QXgqBq7jk4vrbb7+ZjNmyaqAml6xxrkFWdfxVvkJcVt0D+lPIllXXKMRlVd6SI1tWyaJ0yRq/B/Rd6XFZVcfse0AsVI6Cyo1zlVwKcVm1LYLqoaB6BVlV31xc1ZaSQ7zissbvgVyy6rrKZNVzkktWtX+4B+Ky6lzdNwpxWeNc47LqnSS5dX/GZdWzpnTdz/F7QM+m0nVPKcS5Stb4PRC4Ss74PRC4FiKr3j0qT++iOFe9q5SueyEuq95tStc9kC2r3jPxeyDIqudHz7xCXFZx1TtCQbLG7wGVoRC46jnOJau4xmUN94C45pJV72uFuKziqt8iBckauOrdqt8Dhbis+o0L94B+5/SbqxD/7Yj/zum3LdS/Y8eONmApdlIst9xyS7u2XP/h8lquLYfcEIAABCAAAQhAAAIQgAAE6pgAFso6bgCKhwAEIAABCEAAAhCAAAQgUK4EUCjLteWQGwIQgAAEIAABCEAAAhCAQB0TQKGs4wageAhAAAIQgAAEIAABCEAAAuVKAIWyXFsOuSEAAQhAAAIQgAAEIAABCNQxARTKOm4AiocABCAAAQhAAAIQgAAEIFCuBFAoy7XlkBsCEIAABCAAAQhAAAIQgEAdE0ChrOMGoHgIQAACEIAABCAAAQhAAALlSgCFslxbDrkhAAEIQAACEIAABCAAAQjUMQEUyjpuAIqHAAQgAAEIQAACEIAABCBQrgRQKMu15ZAbAhCAAAQgAAEIQAACEIBAHRNAoazjBqB4CEAAAhCAAAQgAAEIQAAC5UoAhbJcWw65IQABCEAAAhCAAAQgAAEI1DEBFMo6bgCKhwAEIAABCEAAAhCAAAQgUK4EUCjLteWQGwIQgAAEIAABCEAAAhCAQB0TQKGs4wageAhAAAIQgAAEIAABCEAAAuVKAIWyXFsOuSEAAQhAAAIQgAAEIAABCNQxARTKOm4AiocABCAAAQhAAAIQgAAEIFCuBP4P1tcwr4jT5LgAAAAASUVORK5CYII=;" vertex="1" parent="1">
                    <mxGeometry x="-210" y="30" width="916" height="1086" as="geometry"/>
                </mxCell>
                <mxCell id="7" value="" style="shape=filledEdge;curved=0;rounded=0;fixDash=1;endArrow=none;strokeWidth=9;fillColor=#FFFFFF;edgeStyle=orthogonalEdgeStyle;html=1;exitX=0.633;exitY=0.552;exitDx=0;exitDy=0;exitPerimeter=0;strokeColor=#FFFFFF;" edge="1" parent="1" source="3">
                    <mxGeometry width="60" height="40" relative="1" as="geometry">
                        <mxPoint x="360" y="600" as="sourcePoint"/>
                        <mxPoint x="190" y="730" as="targetPoint"/>
                        <Array as="points">
                            <mxPoint x="190" y="630"/>
                        </Array>
                    </mxGeometry>
                </mxCell>
                <mxCell id="10" value="" style="rounded=0;whiteSpace=wrap;html=1;fillColor=#FFFFFF;strokeWidth=0;strokeColor=#FFFFFF;" vertex="1" parent="1">
                    <mxGeometry x="300" y="300" width="370" height="650" as="geometry"/>
                </mxCell>
                <mxCell id="11" value="&lt;font style=&quot;font-size: 18px;&quot; color=&quot;#000000&quot;&gt;Witness&lt;/font&gt;" style="shape=note;whiteSpace=wrap;html=1;backgroundOutline=1;darkOpacity=0.05;fillColor=#FFFFFF;fontColor=#333333;strokeColor=#000000;strokeWidth=2;" vertex="1" parent="1">
                    <mxGeometry x="400" y="470" width="100" height="80" as="geometry"/>
                </mxCell>
                <mxCell id="12" value="&lt;font style=&quot;font-size: 18px;&quot; color=&quot;#000000&quot;&gt;proving.key&lt;/font&gt;" style="shape=note;whiteSpace=wrap;html=1;backgroundOutline=1;darkOpacity=0.05;fillColor=#FFFFFF;fontColor=#333333;strokeColor=#000000;strokeWidth=2;" vertex="1" parent="1">
                    <mxGeometry x="380" y="730" width="120" height="80" as="geometry"/>
                </mxCell>
                <mxCell id="17" value="" style="edgeStyle=elbowEdgeStyle;elbow=horizontal;endArrow=classic;html=1;curved=0;rounded=0;endSize=8;startSize=8;fontSize=18;fontColor=#000000;exitX=0.502;exitY=0.313;exitDx=0;exitDy=0;exitPerimeter=0;entryX=0.43;entryY=-0.003;entryDx=0;entryDy=0;entryPerimeter=0;dashed=1;strokeWidth=2;strokeColor=#000000;" edge="1" parent="1" source="3" target="11">
                    <mxGeometry width="50" height="50" relative="1" as="geometry">
                        <mxPoint x="180" y="660" as="sourcePoint"/>
                        <mxPoint x="430" y="650" as="targetPoint"/>
                        <Array as="points">
                            <mxPoint x="443" y="420"/>
                        </Array>
                    </mxGeometry>
                </mxCell>
                <mxCell id="19" value="" style="rounded=0;whiteSpace=wrap;html=1;strokeColor=none;strokeWidth=0;fontSize=18;fontColor=#000000;fillColor=#FFFFFF;" vertex="1" parent="1">
                    <mxGeometry x="210" y="670" width="120" height="60" as="geometry"/>
                </mxCell>
                <mxCell id="22" value="" style="edgeStyle=elbowEdgeStyle;elbow=vertical;endArrow=none;html=1;curved=0;rounded=0;endSize=8;startSize=8;dashed=1;strokeColor=#000000;strokeWidth=2;fontSize=18;fontColor=#000000;startArrow=classic;startFill=1;endFill=0;entryX=0.5;entryY=1;entryDx=0;entryDy=0;entryPerimeter=0;exitX=0;exitY=1;exitDx=0;exitDy=0;" edge="1" parent="1" source="19" target="11">
                    <mxGeometry width="50" height="50" relative="1" as="geometry">
                        <mxPoint x="380" y="700" as="sourcePoint"/>
                        <mxPoint x="430" y="650" as="targetPoint"/>
                        <Array as="points">
                            <mxPoint x="330" y="690"/>
                        </Array>
                    </mxGeometry>
                </mxCell>
                <mxCell id="23" value="" style="rounded=0;whiteSpace=wrap;html=1;strokeColor=#FFFFFF;strokeWidth=0;fontSize=18;fontColor=#000000;fillColor=#FFFFFF;" vertex="1" parent="1">
                    <mxGeometry x="250" y="740" width="120" height="60" as="geometry"/>
                </mxCell>
                <mxCell id="24" value="" style="endArrow=classic;startArrow=classic;html=1;dashed=1;strokeColor=#000000;strokeWidth=2;fontSize=18;fontColor=#000000;fillColor=#FFFFFF;exitX=0;exitY=0.5;exitDx=0;exitDy=0;" edge="1" parent="1" source="23" target="12">
                    <mxGeometry width="50" height="50" relative="1" as="geometry">
                        <mxPoint x="390" y="680" as="sourcePoint"/>
                        <mxPoint x="440" y="630" as="targetPoint"/>
                    </mxGeometry>
                </mxCell>
                <mxCell id="25" value="&lt;font color=&quot;#000000&quot;&gt;API&lt;/font&gt;" style="rounded=0;whiteSpace=wrap;html=1;strokeColor=#F8CECC;strokeWidth=0;fontSize=18;fillColor=#f8cecc;" vertex="1" parent="1">
                    <mxGeometry x="80" y="480" width="220" height="70" as="geometry"/>
                </mxCell>
            </root>
        </mxGraphModel>
    </diagram>
</mxfile>